{
DisplayStrings = (
/uniF171,
/uniF172,
/uniF150,
/uniF170
);
copyright = MedeiraCloud;
customParameters = (
{
name = glyphOrder;
value = (
    ".notdef",
    uniF110,
    uniF111,
    uniF112,
    uniF113,
    uniF114,
    uniF115,
    uniF116,
    uniF117,
    uniF118,
    uniF119,
    uniF11A,
    uniF11B,
    uniF11C,
    uniF11D,
    uniF11E,
    uniF11F,
    uniF120,
    uniF121,
    uniF122,
    uniF123,
    uniF124,
    uniF125,
    uniF126,
    uniF127,
    uniF128,
    uniF129,
    uniF12A,
    uniF12B,
    uniF12C,
    uniF12D,
    uniF12E,
    uniF12F,
    uniF130,
    uniF131,
    uniF132,
    uniF133,
    uniF134,
    uniF135,
    uniF136,
    uniF137,
    uniF138,
    uniF139,
    uniF13A,
    uniF13B,
    uniF13C,
    uniF13D,
    uniF13E,
    uniF140,
    uniF141,
    uniF142,
    uniF143,
    uniF144,
    uniF145,
    uniF146,
    uniF147,
    uniF148,
    uniF149,
    uniF14A,
    uniF14B,
    uniF14C,
    uniF14D,
    uniF14E,
    uniF14F,
    uniF150,
    uniF151,
    newGlyph
);
}
);
date = "2014-04-03 03:31:45 +0000";
familyName = "MadeiraIcon";
fontMaster = (
{
ascender = 840;
capHeight = 0;
customParameters = (
{
name = TypoAscender;
value = 840;
},
{
name = TypoDescender;
value = "-120";
}
);
descender = "-120";
id = "8F1B665C-F854-4941-BE6D-BEE4265743FC";
weightValue = 400;
widthValue = 5;
xHeight = 0;
}
);
glyphs = (
{
glyphname = uniF110;
lastChange = "2014-04-08 14:38:59 +0800";
layers = (
{
layerId = "8F1B665C-F854-4941-BE6D-BEE4265743FC";
name = Regular;
paths = (
{
closed = 1;
nodes = (
"760 387 CURVE",
"237 680 LINE",
"234 680 OFFCURVE",
"231 682 OFFCURVE",
"228 683 CURVE",
"225 684 OFFCURVE",
"220 685 OFFCURVE",
"216 685 CURVE SMOOTH",
"206 685 OFFCURVE",
"198 681 OFFCURVE",
"191 675 CURVE SMOOTH",
"184 667 OFFCURVE",
"180 658 OFFCURVE",
"180 648 CURVE",
"180 648 LINE",
"180 38 LINE",
"180 38 LINE",
"180 28 OFFCURVE",
"184 18 OFFCURVE",
"191 11 CURVE",
"198 4 OFFCURVE",
"206 0 OFFCURVE",
"216 0 CURVE SMOOTH",
"220 0 OFFCURVE",
"225 1 OFFCURVE",
"228 2 CURVE",
"231 3 OFFCURVE",
"234 5 OFFCURVE",
"237 6 CURVE",
"759 299 LINE",
"766 303 OFFCURVE",
"771 310 OFFCURVE",
"775 317 CURVE SMOOTH",
"778 325 OFFCURVE",
"780 333 OFFCURVE",
"780 341 CURVE SMOOTH",
"780 350 OFFCURVE",
"778 359 OFFCURVE",
"775 366 CURVE SMOOTH",
"771 373 OFFCURVE",
"767 382 OFFCURVE"
);
}
);
width = 960;
}
);
unicode = F110;
},
{
glyphname = uniF111;
lastChange = "2014-04-08 14:38:32 +0800";
layers = (
{
layerId = "8F1B665C-F854-4941-BE6D-BEE4265743FC";
name = Regular;
paths = (
{
closed = 1;
nodes = (
"195 660 LINE SMOOTH",
"190 660 OFFCURVE",
"185 658 OFFCURVE",
"183 655 CURVE SMOOTH",
"180 653 OFFCURVE",
"178 648 OFFCURVE",
"178 644 CURVE SMOOTH",
"178 76 LINE SMOOTH",
"178 72 OFFCURVE",
"180 67 OFFCURVE",
"183 65 CURVE SMOOTH",
"185 62 OFFCURVE",
"190 60 OFFCURVE",
"195 60 CURVE SMOOTH",
"762 60 LINE SMOOTH",
"766 60 OFFCURVE",
"771 62 OFFCURVE",
"773 65 CURVE SMOOTH",
"776 67 OFFCURVE",
"778 72 OFFCURVE",
"778 76 CURVE SMOOTH",
"778 644 LINE SMOOTH",
"778 648 OFFCURVE",
"776 653 OFFCURVE",
"773 655 CURVE SMOOTH",
"771 658 OFFCURVE",
"766 660 OFFCURVE",
"762 660 CURVE SMOOTH"
);
}
);
width = 960;
}
);
unicode = F111;
},
{
glyphname = uniF112;
lastChange = "2014-04-08 18:02:32 +0800";
layers = (
{
layerId = "8F1B665C-F854-4941-BE6D-BEE4265743FC";
name = Regular;
paths = (
{
closed = 1;
nodes = (
"780 -61 LINE",
"780 360 LINE",
"180 360 LINE",
"180 -61 LINE"
);
},
{
closed = 1;
nodes = (
"720 300 LINE",
"720 -1 LINE",
"240 -1 LINE",
"240 300 LINE"
);
},
{
closed = 1;
nodes = (
"60 780 LINE",
"61 -60 LINE",
"900 -60 LINE",
"900 640 LINE",
"746 780 LINE"
);
},
{
closed = 1;
nodes = (
"600 660 LINE",
"600 480 LINE",
"480 480 LINE",
"480 660 LINE"
);
},
{
closed = 1;
nodes = (
"120 0 LINE",
"120 720 LINE",
"270 720 LINE",
"270 420 LINE",
"690 420 LINE",
"690 720 LINE",
"712 720 LINE",
"840 607 LINE",
"840 0 LINE"
);
}
);
width = 960;
}
);
unicode = F112;
},
{
glyphname = uniF113;
layers = (
{
layerId = "8F1B665C-F854-4941-BE6D-BEE4265743FC";
name = Regular;
paths = (
{
closed = 1;
nodes = (
"60 660.002 LINE",
"480.002 840.003 LINE",
"900.003 660.002 LINE",
"900.003 540.002 LINE",
"480.002 360 LINE",
"60 540.002 LINE"
);
},
{
closed = 1;
nodes = (
"480.002 120 LINE",
"60 300 LINE",
"60 480.002 LINE",
"480.002 300 LINE",
"900.003 480.002 LINE",
"900.003 300 LINE"
);
},
{
closed = 1;
nodes = (
"480.002 -120 LINE",
"60 60 LINE",
"60 240.001 LINE",
"480.002 60 LINE",
"900.003 240.001 LINE",
"900.003 60 LINE"
);
}
);
width = 960;
}
);
unicode = F113;
},
{
glyphname = uniF114;
lastChange = "2014-04-08 15:03:51 +0800";
layers = (
{
layerId = "8F1B665C-F854-4941-BE6D-BEE4265743FC";
name = Regular;
paths = (
{
closed = 1;
nodes = (
"900 5 OFFCURVE",
"894 27 OFFCURVE",
"883 71 CURVE SMOOTH",
"858 159 OFFCURVE",
"794 273 OFFCURVE",
"677 361 CURVE SMOOTH",
"617 405 OFFCURVE",
"539 428 OFFCURVE",
"445 428 CURVE",
"445 590 LINE",
"120 298 LINE",
"445 24 LINE",
"445 212 LINE",
"548 212 OFFCURVE",
"635 208 OFFCURVE",
"709 180 CURVE SMOOTH",
"783 151 OFFCURVE",
"846 99 OFFCURVE",
"900 5 CURVE"
);
}
);
width = 960;
}
);
unicode = F114;
},
{
glyphname = uniF115;
lastChange = "2014-04-08 15:03:07 +0800";
layers = (
{
layerId = "8F1B665C-F854-4941-BE6D-BEE4265743FC";
name = Regular;
paths = (
{
closed = 1;
nodes = (
"575 24 LINE",
"900 298 LINE",
"575 590 LINE",
"575 428 LINE",
"385 428 OFFCURVE",
"271 322 OFFCURVE",
"205 216 CURVE SMOOTH",
"172 163 OFFCURVE",
"149 115 OFFCURVE",
"138 71 CURVE SMOOTH",
"126 27 OFFCURVE",
"120 5 OFFCURVE",
"120 5 CURVE",
"174 99 OFFCURVE",
"237 151 OFFCURVE",
"311 180 CURVE SMOOTH",
"385 208 OFFCURVE",
"472 212 OFFCURVE",
"575 212 CURVE"
);
}
);
width = 960;
}
);
unicode = F115;
},
{
glyphname = uniF116;
lastChange = "2014-04-08 15:06:44 +0800";
layers = (
{
layerId = "8F1B665C-F854-4941-BE6D-BEE4265743FC";
name = Regular;
paths = (
{
closed = 1;
nodes = (
"703 255 LINE",
"722 284 OFFCURVE",
"737 317 OFFCURVE",
"747 352 CURVE SMOOTH",
"757 386 OFFCURVE",
"762 421 OFFCURVE",
"762 459 CURVE SMOOTH",
"762 564 OFFCURVE",
"719 659 OFFCURVE",
"650 729 CURVE SMOOTH",
"580 798 OFFCURVE",
"486 840 OFFCURVE",
"381 840 CURVE SMOOTH",
"276 840 OFFCURVE",
"181 798 OFFCURVE",
"112 729 CURVE SMOOTH",
"42 659 OFFCURVE",
"0 564 OFFCURVE",
"0 459 CURVE SMOOTH",
"0 354 OFFCURVE",
"42 260 OFFCURVE",
"112 191 CURVE SMOOTH",
"181 121 OFFCURVE",
"276 78 OFFCURVE",
"381 78 CURVE SMOOTH",
"419 78 OFFCURVE",
"456 85 OFFCURVE",
"491 96 CURVE SMOOTH",
"526 106 OFFCURVE",
"558 121 OFFCURVE",
"588 141 CURVE SMOOTH",
"605 153 LINE",
"876 -118 LINE",
"960 -31 LINE",
"689 240 LINE",
"702 257 LINE"
);
},
{
closed = 1;
nodes = (
"623 645 OFFCURVE",
"644 613 OFFCURVE",
"659 578 CURVE SMOOTH",
"674 542 OFFCURVE",
"682 503 OFFCURVE",
"682 463 CURVE SMOOTH",
"682 423 OFFCURVE",
"674 384 OFFCURVE",
"659 349 CURVE SMOOTH",
"644 313 OFFCURVE",
"623 281 OFFCURVE",
"594 252 CURVE SMOOTH",
"566 223 OFFCURVE",
"533 202 OFFCURVE",
"498 187 CURVE SMOOTH",
"462 172 OFFCURVE",
"423 165 OFFCURVE",
"383 165 CURVE SMOOTH",
"343 165 OFFCURVE",
"305 172 OFFCURVE",
"270 187 CURVE SMOOTH",
"233 202 OFFCURVE",
"201 223 OFFCURVE",
"172 252 CURVE SMOOTH",
"144 281 OFFCURVE",
"122 313 OFFCURVE",
"107 349 CURVE SMOOTH",
"92 384 OFFCURVE",
"85 423 OFFCURVE",
"85 463 CURVE SMOOTH",
"85 503 OFFCURVE",
"92 542 OFFCURVE",
"107 578 CURVE SMOOTH",
"122 613 OFFCURVE",
"144 645 OFFCURVE",
"172 674 CURVE SMOOTH",
"201 703 OFFCURVE",
"233 724 OFFCURVE",
"270 739 CURVE SMOOTH",
"305 754 OFFCURVE",
"343 761 OFFCURVE",
"383 761 CURVE SMOOTH",
"423 761 OFFCURVE",
"462 754 OFFCURVE",
"498 739 CURVE SMOOTH",
"533 724 OFFCURVE",
"566 703 OFFCURVE",
"594 674 CURVE SMOOTH"
);
},
{
closed = 1;
nodes = (
"420 420 LINE",
"420 240 LINE",
"360 240 LINE",
"360 420 LINE",
"180 420 LINE",
"180 480 LINE",
"360 480 LINE",
"360 660 LINE",
"420 660 LINE",
"420 480 LINE",
"600 480 LINE",
"600 420 LINE"
);
}
);
width = 960;
}
);
unicode = F116;
},
{
glyphname = uniF117;
lastChange = "2014-04-08 15:07:11 +0800";
layers = (
{
layerId = "8F1B665C-F854-4941-BE6D-BEE4265743FC";
name = Regular;
paths = (
{
closed = 1;
nodes = (
"703 255 LINE",
"722 284 OFFCURVE",
"737 317 OFFCURVE",
"747 352 CURVE SMOOTH",
"757 386 OFFCURVE",
"762 421 OFFCURVE",
"762 459 CURVE SMOOTH",
"762 564 OFFCURVE",
"719 659 OFFCURVE",
"650 729 CURVE SMOOTH",
"580 798 OFFCURVE",
"486 840 OFFCURVE",
"381 840 CURVE SMOOTH",
"276 840 OFFCURVE",
"181 798 OFFCURVE",
"112 729 CURVE SMOOTH",
"42 659 OFFCURVE",
"0 564 OFFCURVE",
"0 459 CURVE SMOOTH",
"0 354 OFFCURVE",
"42 260 OFFCURVE",
"112 191 CURVE SMOOTH",
"181 121 OFFCURVE",
"276 78 OFFCURVE",
"381 78 CURVE SMOOTH",
"419 78 OFFCURVE",
"456 85 OFFCURVE",
"491 96 CURVE SMOOTH",
"526 106 OFFCURVE",
"558 121 OFFCURVE",
"588 141 CURVE SMOOTH",
"605 153 LINE",
"876 -118 LINE",
"960 -31 LINE",
"689 240 LINE",
"702 257 LINE"
);
},
{
closed = 1;
nodes = (
"623 645 OFFCURVE",
"644 613 OFFCURVE",
"659 578 CURVE SMOOTH",
"674 542 OFFCURVE",
"682 503 OFFCURVE",
"682 463 CURVE SMOOTH",
"682 423 OFFCURVE",
"674 384 OFFCURVE",
"659 349 CURVE SMOOTH",
"644 313 OFFCURVE",
"623 281 OFFCURVE",
"594 252 CURVE SMOOTH",
"566 223 OFFCURVE",
"533 202 OFFCURVE",
"498 187 CURVE SMOOTH",
"462 172 OFFCURVE",
"423 165 OFFCURVE",
"383 165 CURVE SMOOTH",
"343 165 OFFCURVE",
"305 172 OFFCURVE",
"270 187 CURVE SMOOTH",
"233 202 OFFCURVE",
"201 223 OFFCURVE",
"172 252 CURVE SMOOTH",
"144 281 OFFCURVE",
"122 313 OFFCURVE",
"107 349 CURVE SMOOTH",
"92 384 OFFCURVE",
"85 423 OFFCURVE",
"85 463 CURVE SMOOTH",
"85 503 OFFCURVE",
"92 542 OFFCURVE",
"107 578 CURVE SMOOTH",
"122 613 OFFCURVE",
"144 645 OFFCURVE",
"172 674 CURVE SMOOTH",
"201 703 OFFCURVE",
"233 724 OFFCURVE",
"270 739 CURVE SMOOTH",
"305 754 OFFCURVE",
"343 761 OFFCURVE",
"383 761 CURVE SMOOTH",
"423 761 OFFCURVE",
"462 754 OFFCURVE",
"498 739 CURVE SMOOTH",
"533 724 OFFCURVE",
"566 703 OFFCURVE",
"594 674 CURVE SMOOTH"
);
},
{
closed = 1;
nodes = (
"180 420 LINE",
"180 480 LINE",
"600 480 LINE",
"600 420 LINE"
);
}
);
width = 960;
}
);
unicode = F117;
},
{
glyphname = uniF118;
lastChange = "2014-04-08 17:58:30 +0800";
layers = (
{
layerId = "8F1B665C-F854-4941-BE6D-BEE4265743FC";
name = Regular;
paths = (
{
closed = 1;
nodes = (
"720 60 LINE",
"60 60 LINE",
"60 540 LINE",
"240 540 LINE",
"240 540 OFFCURVE",
"346 600 OFFCURVE",
"346 600 CURVE",
"48 600 LINE SMOOTH",
"35 600 OFFCURVE",
"23 594 OFFCURVE",
"14 586 CURVE SMOOTH",
"5 577 OFFCURVE",
"1 566 OFFCURVE",
"1 552 CURVE SMOOTH",
"1 48 LINE SMOOTH",
"1 34 OFFCURVE",
"5 23 OFFCURVE",
"14 14 CURVE SMOOTH",
"23 5 OFFCURVE",
"35 0 OFFCURVE",
"48 0 CURVE SMOOTH",
"733 0 LINE SMOOTH",
"746 0 OFFCURVE",
"758 5 OFFCURVE",
"767 14 CURVE SMOOTH",
"776 23 OFFCURVE",
"781 34 OFFCURVE",
"781 48 CURVE SMOOTH",
"781 320 LINE",
"719 241 LINE",
"719 59 LINE"
);
},
{
closed = 1;
nodes = (
"641 274 LINE",
"961 514 LINE",
"641 755 LINE",
"641 606 LINE",
"447 606 OFFCURVE",
"346 504 OFFCURVE",
"295 401 CURVE SMOOTH",
"269 350 OFFCURVE",
"254 303 OFFCURVE",
"249 259 CURVE SMOOTH",
"242 216 OFFCURVE",
"240 194 OFFCURVE",
"240 194 CURVE",
"295 284 OFFCURVE",
"343 345 OFFCURVE",
"403 383 CURVE SMOOTH",
"463 419 OFFCURVE",
"536 435 OFFCURVE",
"641 435 CURVE"
);
}
);
width = 960;
}
);
unicode = F118;
},
{
glyphname = uniF119;
lastChange = "2014-04-08 15:14:55 +0800";
layers = (
{
layerId = "8F1B665C-F854-4941-BE6D-BEE4265743FC";
name = Regular;
paths = (
{
closed = 1;
nodes = (
"900 300 LINE",
"900 420 LINE",
"540 420 LINE",
"540 780 LINE",
"420 780 LINE",
"420 420 LINE",
"60 420 LINE",
"60 300 LINE",
"420 300 LINE",
"420 -60 LINE",
"540 -60 LINE",
"540 300 LINE"
);
}
);
width = 960;
}
);
unicode = F119;
},
{
glyphname = uniF11A;
lastChange = "2014-04-08 15:15:45 +0800";
layers = (
{
layerId = "8F1B665C-F854-4941-BE6D-BEE4265743FC";
name = Regular;
paths = (
{
closed = 1;
nodes = (
"120 780 LINE SMOOTH",
"90 780 OFFCURVE",
"60 750 OFFCURVE",
"60 720 CURVE SMOOTH",
"60 0 LINE SMOOTH",
"60 -30 OFFCURVE",
"90 -60 OFFCURVE",
"120 -60 CURVE SMOOTH",
"840 -60 LINE SMOOTH",
"870 -60 OFFCURVE",
"900 -30 OFFCURVE",
"900 0 CURVE SMOOTH",
"900 720 LINE SMOOTH",
"900 750 OFFCURVE",
"870 780 OFFCURVE",
"840 780 CURVE SMOOTH"
);
},
{
closed = 1;
nodes = (
"840 0 LINE",
"120 0 LINE",
"120 720 LINE",
"840 720 LINE"
);
},
{
closed = 1;
nodes = (
"540 300 LINE",
"540 120 LINE",
"420 120 LINE",
"420 300 LINE",
"240 300 LINE",
"240 420 LINE",
"420 420 LINE",
"420 600 LINE",
"540 600 LINE",
"540 420 LINE",
"720 420 LINE",
"720 300 LINE"
);
}
);
width = 960;
}
);
unicode = F11A;
},
{
glyphname = uniF11B;
lastChange = "2014-04-08 15:24:52 +0800";
layers = (
{
layerId = "8F1B665C-F854-4941-BE6D-BEE4265743FC";
name = Regular;
paths = (
{
closed = 1;
nodes = (
"120 45 LINE",
"57 96 OFFCURVE",
"60 180 OFFCURVE",
"60 240 CURVE SMOOTH",
"60 660 LINE",
"60 660 OFFCURVE",
"90 780 OFFCURVE",
"210 780 CURVE SMOOTH",
"600 780 LINE SMOOTH",
"660 780 OFFCURVE",
"747 797 OFFCURVE",
"800 720 CURVE",
"270 720 LINE SMOOTH",
"160 720 OFFCURVE",
"120 690 OFFCURVE",
"120 570 CURVE SMOOTH"
);
},
{
closed = 1;
nodes = (
"840 -60 LINE SMOOTH",
"870 -60 OFFCURVE",
"900 -30 OFFCURVE",
"900 0 CURVE SMOOTH",
"900 600 LINE SMOOTH",
"900 630 OFFCURVE",
"870 660 OFFCURVE",
"840 660 CURVE SMOOTH",
"240 660 LINE SMOOTH",
"210 660 OFFCURVE",
"180 630 OFFCURVE",
"180 600 CURVE SMOOTH",
"180 0 LINE SMOOTH",
"180 -30 OFFCURVE",
"200 -60 OFFCURVE",
"240 -60 CURVE SMOOTH"
);
},
{
closed = 1;
nodes = (
"840 300 LINE",
"600 300 LINE SMOOTH",
"540 300 OFFCURVE",
"540 240 OFFCURVE",
"540 240 CURVE",
"540 0 LINE",
"300 0 LINE SMOOTH",
"240 0 OFFCURVE",
"240 60 OFFCURVE",
"240 60 CURVE",
"240 600 LINE",
"840 600 LINE"
);
},
{
closed = 1;
nodes = (
"600 0 LINE",
"600 240 LINE",
"840 240 LINE",
"840 60 LINE",
"840 60 OFFCURVE",
"840 0 OFFCURVE",
"780 0 CURVE SMOOTH"
);
}
);
width = 960;
}
);
unicode = F11B;
},
{
glyphname = uniF11C;
lastChange = "2014-04-08 18:04:36 +0800";
layers = (
{
layerId = "8F1B665C-F854-4941-BE6D-BEE4265743FC";
name = Regular;
paths = (
{
closed = 1;
nodes = (
"718 600 LINE",
"718 752 LINE SMOOTH",
"718 778 OFFCURVE",
"708 798 OFFCURVE",
"693 816 CURVE",
"678 830 OFFCURVE",
"656 840 OFFCURVE",
"631 840 CURVE SMOOTH",
"328 840 LINE SMOOTH",
"302 840 OFFCURVE",
"280 830 OFFCURVE",
"266 816 CURVE",
"251 798 OFFCURVE",
"241 778 OFFCURVE",
"241 752 CURVE SMOOTH",
"241 600 LINE",
"73 600 LINE",
"73 532 LINE",
"96 532 LINE",
"96 532 OFFCURVE",
"97 532 OFFCURVE",
"98 532 CURVE",
"101 531 OFFCURVE",
"104 531 OFFCURVE",
"106 531 CURVE",
"109 530 OFFCURVE",
"114 527 OFFCURVE",
"118 523 CURVE SMOOTH",
"122 520 OFFCURVE",
"124 514 OFFCURVE",
"125 510 CURVE",
"126 508 OFFCURVE",
"126 505 OFFCURVE",
"127 504 CURVE",
"127 503 OFFCURVE",
"127 501 OFFCURVE",
"127 501 CURVE",
"203 -116 OFFCURVE",
"212 -101 OFFCURVE",
"217 -105 CURVE",
"221 -111 OFFCURVE",
"230 -115 OFFCURVE",
"242 -116 CURVE",
"254 -120 OFFCURVE",
"271 -120 OFFCURVE",
"294 -120 CURVE SMOOTH",
"666 -120 LINE SMOOTH",
"689 -120 OFFCURVE",
"706 -120 OFFCURVE",
"718 -116 CURVE",
"742 -112 OFFCURVE",
"752 -101 OFFCURVE",
"755 -79 CURVE SMOOTH",
"757 -62 OFFCURVE",
"754 -119 OFFCURVE",
"833 501 CURVE",
"833 501 OFFCURVE",
"833 503 OFFCURVE",
"834 504 CURVE",
"834 508 OFFCURVE",
"836 513 OFFCURVE",
"838 517 CURVE SMOOTH",
"841 522 OFFCURVE",
"843 526 OFFCURVE",
"849 528 CURVE SMOOTH",
"851 530 OFFCURVE",
"854 530 OFFCURVE",
"855 531 CURVE",
"856 531 OFFCURVE",
"859 531 OFFCURVE",
"862 532 CURVE",
"863 532 OFFCURVE",
"864 532 OFFCURVE",
"864 532 CURVE",
"887 532 LINE",
"887 600 LINE",
"719 600 LINE",
"719 600 LINE"
);
},
{
closed = 1;
nodes = (
"301 741 LINE",
"301 753 OFFCURVE",
"304 763 OFFCURVE",
"315 769 CURVE SMOOTH",
"323 776 OFFCURVE",
"334 779 OFFCURVE",
"344 779 CURVE SMOOTH",
"617 779 LINE SMOOTH",
"627 779 OFFCURVE",
"639 776 OFFCURVE",
"647 769 CURVE SMOOTH",
"656 763 OFFCURVE",
"661 753 OFFCURVE",
"661 741 CURVE SMOOTH",
"661 600 LINE",
"299 600 LINE",
"299 741 LINE"
);
},
{
closed = 1;
nodes = (
"221 481 LINE",
"296 481 LINE",
"369 0 LINE",
"296 0 LINE"
);
},
{
closed = 1;
nodes = (
"443 0 LINE",
"443 481 LINE",
"517 481 LINE",
"517 0 LINE"
);
},
{
closed = 1;
nodes = (
"591 0 LINE",
"664 481 LINE",
"739 481 LINE",
"664 0 LINE"
);
}
);
width = 960;
}
);
unicode = F11C;
},
{
glyphname = uniF11D;
lastChange = "2014-04-08 15:34:20 +0800";
layers = (
{
layerId = "8F1B665C-F854-4941-BE6D-BEE4265743FC";
name = Regular;
paths = (
{
closed = 1;
nodes = (
"715 420 OFFCURVE",
"738 430 OFFCURVE",
"754 446 CURVE SMOOTH",
"770 462 OFFCURVE",
"780 485 OFFCURVE",
"780 510 CURVE SMOOTH",
"780 535 OFFCURVE",
"770 558 OFFCURVE",
"754 574 CURVE SMOOTH",
"738 590 OFFCURVE",
"715 600 OFFCURVE",
"690 600 CURVE SMOOTH",
"665 600 OFFCURVE",
"642 590 OFFCURVE",
"626 574 CURVE SMOOTH",
"610 558 OFFCURVE",
"600 535 OFFCURVE",
"600 510 CURVE SMOOTH",
"600 485 OFFCURVE",
"610 462 OFFCURVE",
"626 446 CURVE SMOOTH",
"642 430 OFFCURVE",
"665 420 OFFCURVE",
"690 420 CURVE SMOOTH"
);
},
{
closed = 1;
nodes = (
"113 720 LINE SMOOTH",
"98 720 OFFCURVE",
"85 715 OFFCURVE",
"76 705 CURVE SMOOTH",
"67 696 OFFCURVE",
"60 682 OFFCURVE",
"60 663 CURVE SMOOTH",
"60 53 LINE SMOOTH",
"60 39 OFFCURVE",
"67 25 OFFCURVE",
"76 16 CURVE SMOOTH",
"85 7 OFFCURVE",
"98 0 OFFCURVE",
"113 0 CURVE SMOOTH",
"848 0 LINE SMOOTH",
"862 0 OFFCURVE",
"876 7 OFFCURVE",
"885 16 CURVE SMOOTH",
"895 25 OFFCURVE",
"900 39 OFFCURVE",
"900 53 CURVE SMOOTH",
"900 663 LINE SMOOTH",
"900 682 OFFCURVE",
"895 696 OFFCURVE",
"885 705 CURVE SMOOTH",
"876 715 OFFCURVE",
"862 720 OFFCURVE",
"848 720 CURVE SMOOTH"
);
},
{
closed = 1;
nodes = (
"654 346 LINE",
"652 349 OFFCURVE",
"648 353 OFFCURVE",
"645 355 CURVE",
"639 357 OFFCURVE",
"635 358 OFFCURVE",
"630 358 CURVE SMOOTH",
"625 358 OFFCURVE",
"621 357 OFFCURVE",
"617 355 CURVE SMOOTH",
"615 354 OFFCURVE",
"613 352 OFFCURVE",
"611 351 CURVE SMOOTH",
"610 350 OFFCURVE",
"608 349 OFFCURVE",
"606 348 CURVE",
"571 318 LINE",
"568 314 OFFCURVE",
"564 313 OFFCURVE",
"561 312 CURVE",
"558 311 OFFCURVE",
"554 310 OFFCURVE",
"550 310 CURVE SMOOTH",
"547 310 OFFCURVE",
"543 311 OFFCURVE",
"540 312 CURVE SMOOTH",
"535 313 OFFCURVE",
"533 314 OFFCURVE",
"530 318 CURVE SMOOTH",
"529 319 OFFCURVE",
"527 321 OFFCURVE",
"526 321 CURVE SMOOTH",
"525 322 OFFCURVE",
"523 324 OFFCURVE",
"522 325 CURVE",
"421 434 LINE",
"417 438 OFFCURVE",
"414 441 OFFCURVE",
"408 444 CURVE SMOOTH",
"402 447 OFFCURVE",
"397 448 OFFCURVE",
"390 448 CURVE SMOOTH",
"384 448 OFFCURVE",
"378 447 OFFCURVE",
"372 444 CURVE SMOOTH",
"366 441 OFFCURVE",
"362 438 OFFCURVE",
"358 434 CURVE",
"120 148 LINE",
"120 636 LINE",
"121 643 OFFCURVE",
"125 649 OFFCURVE",
"129 652 CURVE",
"133 656 OFFCURVE",
"139 658 OFFCURVE",
"146 658 CURVE SMOOTH",
"816 658 LINE SMOOTH",
"822 658 OFFCURVE",
"828 655 OFFCURVE",
"833 651 CURVE",
"836 648 OFFCURVE",
"839 642 OFFCURVE",
"839 636 CURVE SMOOTH",
"840 147 LINE",
"655 347 LINE"
);
}
);
width = 960;
}
);
unicode = F11D;
},
{
glyphname = uniF11E;
lastChange = "2014-04-08 19:31:07 +0800";
layers = (
{
layerId = "8F1B665C-F854-4941-BE6D-BEE4265743FC";
name = Regular;
paths = (
{
closed = 1;
nodes = (
"600 -60 LINE",
"0 -60 LINE",
"0 720 LINE SMOOTH",
"0 760 OFFCURVE",
"30 840 OFFCURVE",
"120 840 CURVE SMOOTH",
"750.002 840.003 LINE SMOOTH",
"866 840 OFFCURVE",
"960.003 746.002 OFFCURVE",
"960.003 630.002 CURVE SMOOTH",
"960.003 514.002 OFFCURVE",
"866.003 420 OFFCURVE",
"750.002 420 CURVE SMOOTH",
"690.002 420 OFFCURVE",
"638.002 444 OFFCURVE",
"600.002 484.002 CURVE"
);
},
{
closed = 1;
nodes = (
"833 480 OFFCURVE",
"900 548 OFFCURVE",
"900 630 CURVE SMOOTH",
"900 713 OFFCURVE",
"833 780 OFFCURVE",
"750 780 CURVE SMOOTH",
"668 780 OFFCURVE",
"600 713 OFFCURVE",
"600 630 CURVE SMOOTH",
"600 548 OFFCURVE",
"668 480 OFFCURVE",
"750 480 CURVE SMOOTH"
);
},
{
closed = 1;
nodes = (
"540 0 LINE",
"540 694 LINE",
"539 734 OFFCURVE",
"575 770 OFFCURVE",
"600 780 CURVE",
"120 780 LINE SMOOTH",
"60 780 OFFCURVE",
"60 720 OFFCURVE",
"60 720 CURVE",
"60 0 LINE"
);
},
{
closed = 1;
nodes = (
"120 540 LINE",
"120 600 LINE",
"480 600 LINE",
"480 540 LINE"
);
},
{
closed = 1;
nodes = (
"120 360 LINE",
"120 420 LINE",
"480 420 LINE",
"480 360 LINE"
);
},
{
closed = 1;
nodes = (
"120 180 LINE",
"120 240 LINE",
"480 240 LINE",
"480 180 LINE"
);
}
);
width = 960;
}
);
unicode = F11E;
},
{
glyphname = uniF11F;
lastChange = "2014-04-08 15:41:32 +0800";
layers = (
{
layerId = "8F1B665C-F854-4941-BE6D-BEE4265743FC";
name = Regular;
paths = (
{
closed = 1;
nodes = (
"180 720 LINE",
"540 360 LINE",
"180 0 LINE",
"300 -120 LINE",
"780.003 360 LINE",
"300 840.003 LINE"
);
}
);
width = 960;
}
);
unicode = F11F;
},
{
glyphname = uniF120;
lastChange = "2014-04-08 15:41:58 +0800";
layers = (
{
layerId = "8F1B665C-F854-4941-BE6D-BEE4265743FC";
name = Regular;
paths = (
{
closed = 1;
nodes = (
"720 0 LINE",
"360 360 LINE",
"720 720 LINE",
"600.002 840.003 LINE",
"120 360 LINE",
"600.002 -120 LINE"
);
}
);
width = 960;
}
);
unicode = F120;
},
{
glyphname = uniF121;
layers = (
{
layerId = "8F1B665C-F854-4941-BE6D-BEE4265743FC";
name = Regular;
paths = (
{
closed = 1;
nodes = (
"180.001 478.002 LINE",
"480.002 120 LINE",
"780.003 478.002 LINE"
);
}
);
width = 960;
}
);
unicode = F121;
},
{
glyphname = uniF122;
lastChange = "2014-04-08 15:44:19 +0800";
layers = (
{
layerId = "8F1B665C-F854-4941-BE6D-BEE4265743FC";
name = Regular;
paths = (
{
closed = 1;
nodes = (
"380 720 OFFCURVE",
"290 680 OFFCURVE",
"225 615 CURVE SMOOTH",
"160 550 OFFCURVE",
"120 460 OFFCURVE",
"120 360 CURVE SMOOTH",
"120 260 OFFCURVE",
"160 170 OFFCURVE",
"225 105 CURVE SMOOTH",
"290 40 OFFCURVE",
"380 0 OFFCURVE",
"480 0 CURVE SMOOTH",
"580 0 OFFCURVE",
"670 40 OFFCURVE",
"735 105 CURVE SMOOTH",
"800 170 OFFCURVE",
"840 260 OFFCURVE",
"840 360 CURVE SMOOTH",
"840 460 OFFCURVE",
"800 550 OFFCURVE",
"735 615 CURVE SMOOTH",
"670 680 OFFCURVE",
"580 720 OFFCURVE",
"480 720 CURVE SMOOTH"
);
},
{
closed = 1;
nodes = (
"654 239 LINE",
"655 238 OFFCURVE",
"657 236 OFFCURVE",
"658 235 CURVE",
"658 233 OFFCURVE",
"658 231 OFFCURVE",
"658 229 CURVE SMOOTH",
"658 227 OFFCURVE",
"658 226 OFFCURVE",
"658 224 CURVE",
"657 223 OFFCURVE",
"655 220 OFFCURVE",
"654 219 CURVE SMOOTH",
"620 185 LINE SMOOTH",
"619 184 OFFCURVE",
"617 182 OFFCURVE",
"616 182 CURVE",
"614 182 OFFCURVE",
"612 181 OFFCURVE",
"611 181 CURVE SMOOTH",
"610 181 OFFCURVE",
"609 182 OFFCURVE",
"607 182 CURVE",
"605 182 OFFCURVE",
"603 184 OFFCURVE",
"602 185 CURVE SMOOTH",
"481 306 LINE",
"359 185 LINE SMOOTH",
"359 184 OFFCURVE",
"357 182 OFFCURVE",
"355 182 CURVE",
"354 182 OFFCURVE",
"351 181 OFFCURVE",
"351 181 CURVE SMOOTH",
"350 181 OFFCURVE",
"348 182 OFFCURVE",
"347 182 CURVE",
"345 182 OFFCURVE",
"343 184 OFFCURVE",
"342 185 CURVE SMOOTH",
"307 219 LINE SMOOTH",
"306 220 OFFCURVE",
"305 223 OFFCURVE",
"305 224 CURVE",
"304 226 OFFCURVE",
"303 227 OFFCURVE",
"303 229 CURVE SMOOTH",
"303 231 OFFCURVE",
"304 233 OFFCURVE",
"305 235 CURVE",
"305 236 OFFCURVE",
"306 238 OFFCURVE",
"307 239 CURVE SMOOTH",
"429 361 LINE",
"306 481 LINE SMOOTH",
"304 484 OFFCURVE",
"303 487 OFFCURVE",
"303 490 CURVE SMOOTH",
"303 493 OFFCURVE",
"304 497 OFFCURVE",
"306 499 CURVE SMOOTH",
"341 534 LINE SMOOTH",
"342 534 OFFCURVE",
"344 536 OFFCURVE",
"346 537 CURVE",
"347 537 OFFCURVE",
"348 538 OFFCURVE",
"351 538 CURVE SMOOTH",
"353 538 OFFCURVE",
"355 537 OFFCURVE",
"356 537 CURVE",
"358 536 OFFCURVE",
"359 534 OFFCURVE",
"360 534 CURVE SMOOTH",
"482 414 LINE",
"603 534 LINE SMOOTH",
"604 534 OFFCURVE",
"606 536 OFFCURVE",
"608 537 CURVE",
"609 537 OFFCURVE",
"610 538 OFFCURVE",
"613 538 CURVE SMOOTH",
"615 538 OFFCURVE",
"617 537 OFFCURVE",
"618 537 CURVE",
"620 536 OFFCURVE",
"621 534 OFFCURVE",
"622 534 CURVE SMOOTH",
"657 499 LINE SMOOTH",
"659 497 OFFCURVE",
"660 493 OFFCURVE",
"660 490 CURVE SMOOTH",
"660 487 OFFCURVE",
"659 484 OFFCURVE",
"657 481 CURVE SMOOTH",
"535 361 LINE",
"656 239 LINE"
);
}
);
width = 960;
}
);
unicode = F122;
},
{
glyphname = uniF123;
lastChange = "2014-04-08 15:43:27 +0800";
layers = (
{
layerId = "8F1B665C-F854-4941-BE6D-BEE4265743FC";
name = Regular;
paths = (
{
closed = 1;
nodes = (
"587 362 LINE",
"833 606 LINE SMOOTH",
"837 611 OFFCURVE",
"840 617 OFFCURVE",
"840 625 CURVE SMOOTH",
"840 631 OFFCURVE",
"837 638 OFFCURVE",
"833 642 CURVE SMOOTH",
"762 713 LINE SMOOTH",
"760 715 OFFCURVE",
"757 717 OFFCURVE",
"754 718 CURVE",
"750 719 OFFCURVE",
"747 720 OFFCURVE",
"744 720 CURVE SMOOTH",
"740 720 OFFCURVE",
"737 719 OFFCURVE",
"734 718 CURVE",
"731 717 OFFCURVE",
"728 715 OFFCURVE",
"725 713 CURVE SMOOTH",
"480 469 LINE",
"235 713 LINE SMOOTH",
"232 715 OFFCURVE",
"229 717 OFFCURVE",
"227 718 CURVE",
"223 719 OFFCURVE",
"220 720 OFFCURVE",
"216 720 CURVE SMOOTH",
"213 720 OFFCURVE",
"210 719 OFFCURVE",
"207 718 CURVE",
"203 717 OFFCURVE",
"200 715 OFFCURVE",
"198 713 CURVE SMOOTH",
"127 642 LINE SMOOTH",
"123 638 OFFCURVE",
"120 631 OFFCURVE",
"120 625 CURVE SMOOTH",
"120 617 OFFCURVE",
"123 611 OFFCURVE",
"127 606 CURVE SMOOTH",
"373 362 LINE",
"128 115 LINE SMOOTH",
"126 112 OFFCURVE",
"124 109 OFFCURVE",
"123 106 CURVE",
"122 103 OFFCURVE",
"121 100 OFFCURVE",
"121 96 CURVE SMOOTH",
"121 92 OFFCURVE",
"122 90 OFFCURVE",
"123 87 CURVE",
"124 83 OFFCURVE",
"126 80 OFFCURVE",
"128 77 CURVE SMOOTH",
"199 7 LINE SMOOTH",
"201 5 OFFCURVE",
"204 3 OFFCURVE",
"208 2 CURVE",
"211 1 OFFCURVE",
"214 0 OFFCURVE",
"217 0 CURVE SMOOTH",
"221 0 OFFCURVE",
"224 1 OFFCURVE",
"228 2 CURVE",
"230 3 OFFCURVE",
"233 5 OFFCURVE",
"236 7 CURVE SMOOTH",
"480 253 LINE",
"724 7 LINE SMOOTH",
"727 5 OFFCURVE",
"730 3 OFFCURVE",
"733 2 CURVE",
"736 1 OFFCURVE",
"739 0 OFFCURVE",
"743 0 CURVE SMOOTH",
"746 0 OFFCURVE",
"749 1 OFFCURVE",
"753 2 CURVE",
"756 3 OFFCURVE",
"759 5 OFFCURVE",
"761 7 CURVE SMOOTH",
"832 77 LINE SMOOTH",
"834 80 OFFCURVE",
"836 83 OFFCURVE",
"837 87 CURVE",
"838 90 OFFCURVE",
"839 92 OFFCURVE",
"839 96 CURVE SMOOTH",
"839 100 OFFCURVE",
"838 103 OFFCURVE",
"837 106 CURVE",
"836 109 OFFCURVE",
"834 112 OFFCURVE",
"832 115 CURVE SMOOTH"
);
}
);
width = 960;
}
);
unicode = F123;
},
{
glyphname = uniF124;
layers = (
{
layerId = "8F1B665C-F854-4941-BE6D-BEE4265743FC";
name = Regular;
paths = (
{
closed = 1;
nodes = (
"120 660.002 LINE",
"120 60 LINE",
"540.002 360 LINE"
);
}
);
width = 600;
}
);
unicode = F124;
},
{
glyphname = uniF125;
layers = (
{
layerId = "8F1B665C-F854-4941-BE6D-BEE4265743FC";
name = Regular;
paths = (
{
closed = 1;
nodes = (
"540.002 660.002 LINE",
"540.002 60 LINE",
"120 360 LINE"
);
}
);
width = 600;
}
);
unicode = F125;
},
{
glyphname = uniF126;
layers = (
{
layerId = "8F1B665C-F854-4941-BE6D-BEE4265743FC";
name = Regular;
paths = (
{
closed = 1;
nodes = (
"559.002 360 LINE",
"648.002 449 LINE SMOOTH",
"653.002 454 OFFCURVE",
"653.002 463 OFFCURVE",
"648.002 468 CURVE SMOOTH",
"588.002 528.002 LINE SMOOTH",
"583.002 533.002 OFFCURVE",
"574.002 533.002 OFFCURVE",
"569.002 528.002 CURVE SMOOTH",
"480.002 439 LINE",
"391 528.002 LINE SMOOTH",
"386 533.002 OFFCURVE",
"377 533.002 OFFCURVE",
"372 528.002 CURVE SMOOTH",
"312 468 LINE SMOOTH",
"307 463 OFFCURVE",
"307 454 OFFCURVE",
"312 449 CURVE SMOOTH",
"401 360 LINE",
"312 271 LINE SMOOTH",
"307 266 OFFCURVE",
"307 257 OFFCURVE",
"312 252.001 CURVE SMOOTH",
"372 192.001 LINE SMOOTH",
"377 187.001 OFFCURVE",
"386 187.001 OFFCURVE",
"391 192.001 CURVE SMOOTH",
"480.002 281 LINE",
"569.002 192.001 LINE SMOOTH",
"574.002 187.001 OFFCURVE",
"583.002 187.001 OFFCURVE",
"588.002 192.001 CURVE SMOOTH",
"648.002 252.001 LINE SMOOTH",
"653.002 257 OFFCURVE",
"653.002 266 OFFCURVE",
"648.002 271 CURVE SMOOTH"
);
}
);
width = 960;
}
);
unicode = F126;
},
{
glyphname = uniF127;
lastChange = "2014-04-08 17:03:48 +0800";
layers = (
{
layerId = "8F1B665C-F854-4941-BE6D-BEE4265743FC";
name = Regular;
paths = (
{
closed = 1;
nodes = (
"670 740 OFFCURVE",
"580 780 OFFCURVE",
"480 780 CURVE SMOOTH",
"381 780 OFFCURVE",
"290 740 OFFCURVE",
"225 675 CURVE SMOOTH",
"160 610 OFFCURVE",
"120 520 OFFCURVE",
"120 420 CURVE SMOOTH",
"120 320 OFFCURVE",
"160 230 OFFCURVE",
"225 165 CURVE SMOOTH",
"290 100 OFFCURVE",
"381 60 OFFCURVE",
"480 60 CURVE SMOOTH",
"580 60 OFFCURVE",
"670 100 OFFCURVE",
"735 165 CURVE SMOOTH",
"800 230 OFFCURVE",
"840 320 OFFCURVE",
"840 420 CURVE SMOOTH",
"840 520 OFFCURVE",
"800 610 OFFCURVE",
"735 675 CURVE SMOOTH"
);
},
{
closed = 1;
nodes = (
"447 656 OFFCURVE",
"463 663 OFFCURVE",
"480 663 CURVE SMOOTH",
"497 663 OFFCURVE",
"513 656 OFFCURVE",
"525 645 CURVE",
"536 633 OFFCURVE",
"543 617 OFFCURVE",
"543 600 CURVE SMOOTH",
"543 583 OFFCURVE",
"536 567 OFFCURVE",
"525 556 CURVE SMOOTH",
"513 544 OFFCURVE",
"497 537 OFFCURVE",
"480 537 CURVE SMOOTH",
"463 537 OFFCURVE",
"447 544 OFFCURVE",
"436 556 CURVE",
"424 567 OFFCURVE",
"417 583 OFFCURVE",
"417 600 CURVE SMOOTH",
"417 617 OFFCURVE",
"424 633 OFFCURVE",
"436 645 CURVE SMOOTH"
);
},
{
closed = 1;
nodes = (
"392 180 LINE",
"392 202 LINE",
"436 202 LINE",
"436 459 LINE",
"392 459 LINE",
"392 483 LINE",
"524 483 LINE",
"524 202 LINE",
"568 202 LINE",
"568 180 LINE"
);
}
);
width = 960;
}
);
unicode = F127;
},
{
glyphname = uniF128;
layers = (
{
layerId = "8F1B665C-F854-4941-BE6D-BEE4265743FC";
name = Regular;
paths = (
{
closed = 1;
nodes = (
"675.002 495.002 LINE SMOOTH",
"675.002 556.002 OFFCURVE",
"650.002 614.002 OFFCURVE",
"609.002 654.002 CURVE SMOOTH",
"569.002 695.002 OFFCURVE",
"511.002 720.002 OFFCURVE",
"450 720.002 CURVE SMOOTH",
"368 720.002 OFFCURVE",
"296 677.002 OFFCURVE",
"255.001 608.002 CURVE SMOOTH",
"235.001 573.002 OFFCURVE",
"225.001 536.002 OFFCURVE",
"225.001 495.002 CURVE SMOOTH",
"225.001 405 LINE",
"200.001 405 OFFCURVE",
"180.001 385 OFFCURVE",
"180.001 360 CURVE SMOOTH",
"180.001 45 LINE SMOOTH",
"180.001 20 OFFCURVE",
"200.001 0 OFFCURVE",
"225.001 0 CURVE SMOOTH",
"675.002 0 LINE SMOOTH",
"700.002 0 OFFCURVE",
"720.002 20 OFFCURVE",
"720.002 45 CURVE SMOOTH",
"720.002 360 LINE SMOOTH",
"720.002 385 OFFCURVE",
"700.002 405 OFFCURVE",
"675.002 405 CURVE"
);
},
{
closed = 1;
nodes = (
"585.002 405 LINE",
"315 405 LINE",
"315 495.002 LINE SMOOTH",
"315 569.002 OFFCURVE",
"375 630.002 OFFCURVE",
"450 630.002 CURVE SMOOTH",
"525.002 630.002 OFFCURVE",
"585.002 569.002 OFFCURVE",
"585.002 495.002 CURVE SMOOTH"
);
},
{
closed = 1;
nodes = (
"518.002 111 LINE",
"518.002 98 OFFCURVE",
"508.002 87 OFFCURVE",
"495.002 87 CURVE SMOOTH",
"404 87 LINE SMOOTH",
"391 87 OFFCURVE",
"381 98 OFFCURVE",
"381 111 CURVE",
"410 213.001 LINE",
"410 216.001 OFFCURVE",
"411 219.001 OFFCURVE",
"412 222.001 CURVE",
"400 232.001 OFFCURVE",
"392 248.001 OFFCURVE",
"392 266 CURVE SMOOTH",
"392 297 OFFCURVE",
"418 323 OFFCURVE",
"450 323 CURVE SMOOTH",
"482.002 323 OFFCURVE",
"508.002 298 OFFCURVE",
"508.002 266 CURVE SMOOTH",
"508.002 248.001 OFFCURVE",
"500.002 232.001 OFFCURVE",
"487.002 221.001 CURVE",
"488.002 219.001 OFFCURVE",
"489.002 216.001 OFFCURVE",
"489.002 214.001 CURVE"
);
}
);
width = 960;
}
);
unicode = F128;
},
{
glyphname = uniF129;
layers = (
{
layerId = "8F1B665C-F854-4941-BE6D-BEE4265743FC";
name = Regular;
paths = (
{
closed = 1;
nodes = (
"780.003 34 LINE",
"780.003 15 OFFCURVE",
"767.002 0 OFFCURVE",
"749.002 0 CURVE SMOOTH",
"212.001 0 LINE SMOOTH",
"194.001 0 OFFCURVE",
"180.001 15 OFFCURVE",
"180.001 34 CURVE",
"224.001 160.001 LINE",
"227.001 178.001 OFFCURVE",
"269 291 OFFCURVE",
"447 299 CURVE",
"374 317 OFFCURVE",
"321 401 OFFCURVE",
"321 485.002 CURVE SMOOTH",
"321 580.002 OFFCURVE",
"392 660.002 OFFCURVE",
"480.002 660.002 CURVE SMOOTH",
"568.002 660.002 OFFCURVE",
"639.002 580.002 OFFCURVE",
"639.002 485.002 CURVE SMOOTH",
"639.002 401 OFFCURVE",
"584.002 317 OFFCURVE",
"513.002 299 CURVE",
"691.002 291 OFFCURVE",
"733.002 178.001 OFFCURVE",
"736.002 160.001 CURVE"
);
}
);
width = 960;
}
);
unicode = F129;
},
{
glyphname = uniF12A;
lastChange = "2014-04-08 14:33:49 +0800";
layers = (
{
layerId = "8F1B665C-F854-4941-BE6D-BEE4265743FC";
name = Regular;
paths = (
{
closed = 1;
nodes = (
"756 426 LINE",
"756 532 OFFCURVE",
"727 604 OFFCURVE",
"685 651 CURVE SMOOTH",
"642 698 OFFCURVE",
"586 720 OFFCURVE",
"533 729 CURVE",
"533 729 OFFCURVE",
"533 729 OFFCURVE",
"533 730 CURVE",
"533 730 OFFCURVE",
"533 730 OFFCURVE",
"533 731 CURVE",
"533 731 OFFCURVE",
"533 731 OFFCURVE",
"533 732 CURVE",
"533 732 LINE",
"533 745 OFFCURVE",
"526 757 OFFCURVE",
"517 766 CURVE",
"507 775 OFFCURVE",
"493 780 OFFCURVE",
"479 780 CURVE SMOOTH",
"465 780 OFFCURVE",
"452 775 OFFCURVE",
"443 766 CURVE",
"433 757 OFFCURVE",
"428 745 OFFCURVE",
"428 732 CURVE",
"428 732 LINE",
"428 731 OFFCURVE",
"428 731 OFFCURVE",
"428 731 CURVE",
"428 730 OFFCURVE",
"428 730 OFFCURVE",
"428 730 CURVE",
"428 729 OFFCURVE",
"428 729 OFFCURVE",
"428 729 CURVE",
"374 720 OFFCURVE",
"318 698 OFFCURVE",
"275 651 CURVE SMOOTH",
"233 604 OFFCURVE",
"204 532 OFFCURVE",
"204 426 CURVE SMOOTH",
"204 302 OFFCURVE",
"189 213 OFFCURVE",
"164 166 CURVE SMOOTH",
"151 143 OFFCURVE",
"135 123 OFFCURVE",
"118 109 CURVE SMOOTH",
"99 94 OFFCURVE",
"81 77 OFFCURVE",
"60 60 CURVE",
"900 60 LINE",
"879 77 OFFCURVE",
"861 94 OFFCURVE",
"843 109 CURVE SMOOTH",
"807 139 OFFCURVE",
"780 182 OFFCURVE",
"765 257 CURVE SMOOTH",
"758 294 OFFCURVE",
"755 363 OFFCURVE",
"755 426 CURVE"
);
},
{
closed = 1;
nodes = (
"480 -94 LINE",
"510 -94 OFFCURVE",
"536 -83 OFFCURVE",
"557 -66 CURVE SMOOTH",
"577 -48 OFFCURVE",
"590 -25 OFFCURVE",
"594 0 CURVE",
"367 0 LINE",
"371 -25 OFFCURVE",
"384 -48 OFFCURVE",
"405 -66 CURVE SMOOTH",
"425 -83 OFFCURVE",
"452 -94 OFFCURVE",
"481 -94 CURVE"
);
}
);
width = 960;
}
);
unicode = F12A;
},
{
glyphname = uniF12B;
layers = (
{
layerId = "8F1B665C-F854-4941-BE6D-BEE4265743FC";
name = Regular;
paths = (
{
closed = 1;
nodes = (
"129 660.002 LINE SMOOTH",
"91 660.002 OFFCURVE",
"60 633.002 OFFCURVE",
"60 600.002 CURVE",
"426 280 LINE SMOOTH",
"473.002 240.001 OFFCURVE",
"548.002 240.001 OFFCURVE",
"594.002 280 CURVE SMOOTH",
"960.003 600.002 LINE",
"960.003 633.002 OFFCURVE",
"929.003 660.002 OFFCURVE",
"891.003 660.002 CURVE SMOOTH"
);
},
{
closed = 1;
nodes = (
"314 318 LINE",
"60 539.002 LINE",
"60 120 LINE SMOOTH",
"60 113 OFFCURVE",
"61 106 OFFCURVE",
"65 99 CURVE"
);
},
{
closed = 1;
nodes = (
"960.003 539.002 LINE",
"706.002 318 LINE",
"955.003 99 LINE",
"959.003 106 OFFCURVE",
"960.003 113 OFFCURVE",
"960.003 120 CURVE SMOOTH"
);
},
{
closed = 1;
nodes = (
"703.002 314 LINE",
"704.002 314 LINE",
"705.002 315 LINE"
);
},
{
closed = 1;
nodes = (
"668.002 284 LINE",
"629.002 249.001 LINE SMOOTH",
"564.002 193.001 OFFCURVE",
"456 193.001 OFFCURVE",
"391 249.001 CURVE SMOOTH",
"353 284 LINE",
"103 65 LINE",
"110 63 OFFCURVE",
"119 60 OFFCURVE",
"129 60 CURVE SMOOTH",
"891.003 60 LINE SMOOTH",
"901.003 60 OFFCURVE",
"910.003 63 OFFCURVE",
"918.003 65 CURVE"
);
}
);
width = 960;
}
);
unicode = F12B;
},
{
glyphname = uniF12C;
lastChange = "2014-04-08 15:48:36 +0800";
layers = (
{
layerId = "8F1B665C-F854-4941-BE6D-BEE4265743FC";
name = Regular;
paths = (
{
closed = 1;
nodes = (
"71 471 OFFCURVE",
"60 417 OFFCURVE",
"60 360 CURVE SMOOTH",
"60 247 OFFCURVE",
"108 138 OFFCURVE",
"183 63 CURVE SMOOTH",
"258 -12 OFFCURVE",
"367 -60 OFFCURVE",
"480 -60 CURVE SMOOTH",
"593 -60 OFFCURVE",
"703 -12 OFFCURVE",
"778 63 CURVE SMOOTH",
"852 138 OFFCURVE",
"900 247 OFFCURVE",
"900 360 CURVE SMOOTH",
"900 474 OFFCURVE",
"852 583 OFFCURVE",
"778 658 CURVE SMOOTH",
"703 732 OFFCURVE",
"594 780 OFFCURVE",
"480 780 CURVE SMOOTH",
"367 780 OFFCURVE",
"258 732 OFFCURVE",
"183 658 CURVE SMOOTH",
"145 620 OFFCURVE",
"115 576 OFFCURVE",
"93 523 CURVE SMOOTH"
);
},
{
closed = 1;
nodes = (
"136 235 OFFCURVE",
"120 295 OFFCURVE",
"120 360 CURVE SMOOTH",
"120 490 OFFCURVE",
"190 608 OFFCURVE",
"301 672 CURVE SMOOTH",
"355 704 OFFCURVE",
"415 720 OFFCURVE",
"480 720 CURVE SMOOTH",
"610 720 OFFCURVE",
"728 650 OFFCURVE",
"792 542 CURVE SMOOTH",
"824 485 OFFCURVE",
"840 425 OFFCURVE",
"840 360 CURVE SMOOTH",
"840 230 OFFCURVE",
"770 112 OFFCURVE",
"662 48 CURVE SMOOTH",
"605 16 OFFCURVE",
"545 0 OFFCURVE",
"480 0 CURVE SMOOTH",
"350 0 OFFCURVE",
"232 70 OFFCURVE",
"168 181 CURVE SMOOTH"
);
},
{
closed = 1;
nodes = (
"240 334 LINE",
"240 394 LINE",
"720 394 LINE",
"720 334 LINE"
);
}
);
width = 960;
}
);
unicode = F12C;
},
{
glyphname = uniF12D;
layers = (
{
layerId = "8F1B665C-F854-4941-BE6D-BEE4265743FC";
name = Regular;
paths = (
{
closed = 1;
nodes = (
"12 487.002 OFFCURVE",
"0 425 OFFCURVE",
"0 360 CURVE SMOOTH",
"0 231.001 OFFCURVE",
"55 107 OFFCURVE",
"140 20 CURVE SMOOTH",
"227.001 -65 OFFCURVE",
"351 -120 OFFCURVE",
"480.002 -120 CURVE SMOOTH",
"609.002 -120 OFFCURVE",
"735.002 -65 OFFCURVE",
"820.003 20 CURVE SMOOTH",
"905.003 107 OFFCURVE",
"960.003 231.001 OFFCURVE",
"960.003 360 CURVE SMOOTH",
"960.003 491.002 OFFCURVE",
"905.003 615.002 OFFCURVE",
"820.003 700.002 CURVE SMOOTH",
"735.002 785.003 OFFCURVE",
"611.002 840.003 OFFCURVE",
"480.002 840.003 CURVE SMOOTH",
"351 840.003 OFFCURVE",
"227.001 785.003 OFFCURVE",
"140 700.002 CURVE SMOOTH",
"97 657.002 OFFCURVE",
"63 607.002 OFFCURVE",
"37 547.002 CURVE SMOOTH"
);
},
{
closed = 1;
nodes = (
"136 235.001 OFFCURVE",
"120 295 OFFCURVE",
"120 360 CURVE SMOOTH",
"120 491.002 OFFCURVE",
"189.001 608.002 OFFCURVE",
"300 672.002 CURVE SMOOTH",
"355 704.002 OFFCURVE",
"415 720.002 OFFCURVE",
"480.002 720.002 CURVE SMOOTH",
"611.002 720.002 OFFCURVE",
"728.002 651.002 OFFCURVE",
"792.003 541.002 CURVE SMOOTH",
"824.003 485.002 OFFCURVE",
"840.003 425 OFFCURVE",
"840.003 360 CURVE SMOOTH",
"840.003 229.001 OFFCURVE",
"771.003 112 OFFCURVE",
"661.002 48 CURVE SMOOTH",
"605.002 16 OFFCURVE",
"545.002 0 OFFCURVE",
"480.002 0 CURVE SMOOTH",
"349 0 OFFCURVE",
"232.001 69 OFFCURVE",
"168.001 180.001 CURVE SMOOTH"
);
},
{
closed = 1;
nodes = (
"257 320 LINE",
"245.001 331 OFFCURVE",
"240.001 345 OFFCURVE",
"240.001 360 CURVE SMOOTH",
"240.001 392 OFFCURVE",
"265 417 OFFCURVE",
"297 417 CURVE SMOOTH",
"313 417 OFFCURVE",
"327 412 OFFCURVE",
"339 401 CURVE",
"419 320 LINE",
"621.002 523.002 LINE",
"633.002 533.002 OFFCURVE",
"647.002 539.002 OFFCURVE",
"663.002 539.002 CURVE SMOOTH",
"695.002 539.002 OFFCURVE",
"720.002 513.002 OFFCURVE",
"720.002 481.002 CURVE SMOOTH",
"720.002 465 OFFCURVE",
"715.002 452 OFFCURVE",
"703.002 441 CURVE",
"460 197.001 LINE",
"448 187.001 OFFCURVE",
"435 181.001 OFFCURVE",
"420 181.001 CURVE SMOOTH",
"404 181.001 OFFCURVE",
"391 187.001 OFFCURVE",
"379 197.001 CURVE"
);
}
);
width = 960;
}
);
unicode = F12D;
},
{
glyphname = uniF12E;
layers = (
{
layerId = "8F1B665C-F854-4941-BE6D-BEE4265743FC";
name = Regular;
paths = (
{
closed = 1;
nodes = (
"735.002 785.003 OFFCURVE",
"611.002 840.003 OFFCURVE",
"480.002 840.003 CURVE SMOOTH",
"351 840.003 OFFCURVE",
"227.001 785.003 OFFCURVE",
"140 700.002 CURVE SMOOTH",
"97 657.002 OFFCURVE",
"63 607.002 OFFCURVE",
"37 547.002 CURVE SMOOTH",
"12 487.002 OFFCURVE",
"0 425 OFFCURVE",
"0 360 CURVE SMOOTH",
"0 231.001 OFFCURVE",
"55 107 OFFCURVE",
"140 20 CURVE SMOOTH",
"227.001 -65 OFFCURVE",
"351 -120 OFFCURVE",
"480.002 -120 CURVE SMOOTH",
"609.002 -120 OFFCURVE",
"735.002 -65 OFFCURVE",
"820.003 20 CURVE SMOOTH",
"905.003 107 OFFCURVE",
"960.003 231.001 OFFCURVE",
"960.003 360 CURVE SMOOTH",
"960.003 491.002 OFFCURVE",
"905.003 615.002 OFFCURVE",
"820.003 700.002 CURVE SMOOTH"
);
},
{
closed = 1;
nodes = (
"187.001 151 LINE",
"180.001 160.001 OFFCURVE",
"174.001 170.001 OFFCURVE",
"168.001 180.001 CURVE SMOOTH",
"136 235.001 OFFCURVE",
"120 295 OFFCURVE",
"120 360 CURVE SMOOTH",
"120 491.002 OFFCURVE",
"189.001 608.002 OFFCURVE",
"300 672.002 CURVE SMOOTH",
"355 704.002 OFFCURVE",
"415 720.002 OFFCURVE",
"480.002 720.002 CURVE SMOOTH",
"557.002 720.002 OFFCURVE",
"630.002 696.002 OFFCURVE",
"690.002 654.002 CURVE"
);
},
{
closed = 1;
nodes = (
"774.003 570.002 LINE",
"780.003 560.002 OFFCURVE",
"786.003 551.002 OFFCURVE",
"792.003 541.002 CURVE SMOOTH",
"824.003 485.002 OFFCURVE",
"840.003 425 OFFCURVE",
"840.003 360 CURVE SMOOTH",
"840.003 229.001 OFFCURVE",
"771.003 112 OFFCURVE",
"661.002 48 CURVE SMOOTH",
"605.002 16 OFFCURVE",
"545.002 0 OFFCURVE",
"480.002 0 CURVE SMOOTH",
"403 0 OFFCURVE",
"330 24 OFFCURVE",
"271 67 CURVE"
);
}
);
width = 960;
}
);
unicode = F12E;
},
{
glyphname = uniF12F;
lastChange = "2014-04-09 15:40:25 +0800";
layers = (
{
layerId = "8F1B665C-F854-4941-BE6D-BEE4265743FC";
name = Regular;
paths = (
{
closed = 1;
nodes = (
"720 240 LINE",
"660 240 LINE",
"660 60 LINE",
"180 60 LINE",
"180 600 LINE",
"660 600 LINE",
"660 420 LINE",
"720 420 LINE",
"720 660 LINE",
"120 660 LINE",
"120 0 LINE",
"720 0 LINE"
);
},
{
closed = 1;
nodes = (
"360 300 LINE",
"866 300 LINE",
"762 191 LINE",
"797 156 LINE",
"960 330 LINE",
"797 506 LINE",
"762 470 LINE",
"866 360 LINE",
"360 360 LINE"
);
}
);
width = 960;
}
);
unicode = F12F;
},
{
glyphname = uniF130;
lastChange = "2014-04-09 15:41:28 +0800";
layers = (
{
layerId = "8F1B665C-F854-4941-BE6D-BEE4265743FC";
name = Regular;
paths = (
{
closed = 1;
nodes = (
"780 240 LINE",
"720 240 LINE",
"720 60 LINE",
"180 60 LINE",
"180 600 LINE",
"720 600 LINE",
"720 420 LINE",
"780 420 LINE",
"780 660 LINE",
"120 660 LINE",
"120 0 LINE",
"780 0 LINE"
);
},
{
closed = 1;
nodes = (
"556 470 LINE",
"521 506 LINE",
"360 330 LINE",
"521 156 LINE",
"556 191 LINE",
"452 300 LINE",
"960 300 LINE",
"960 360 LINE",
"452 360 LINE"
);
}
);
width = 960;
}
);
unicode = F130;
},
{
glyphname = uniF131;
lastChange = "2014-04-08 16:14:50 +0800";
layers = (
{
layerId = "8F1B665C-F854-4941-BE6D-BEE4265743FC";
name = Regular;
paths = (
{
closed = 1;
nodes = (
"480 -120 LINE",
"367 -120 OFFCURVE",
"266 -75 OFFCURVE",
"192 0 CURVE SMOOTH",
"119 75 OFFCURVE",
"72 176 OFFCURVE",
"72 290 CURVE SMOOTH",
"72 403 OFFCURVE",
"119 504 OFFCURVE",
"192 579 CURVE SMOOTH",
"266 654 OFFCURVE",
"367 699 OFFCURVE",
"480 699 CURVE",
"480 840 LINE",
"780 635 LINE",
"480 458 LINE",
"480 637 LINE",
"384 637 OFFCURVE",
"298 598 OFFCURVE",
"236 536 CURVE SMOOTH",
"172 472 OFFCURVE",
"133 386 OFFCURVE",
"133 290 CURVE SMOOTH",
"133 194 OFFCURVE",
"172 107 OFFCURVE",
"236 45 CURVE SMOOTH",
"298 -19 OFFCURVE",
"384 -58 OFFCURVE",
"480 -58 CURVE SMOOTH",
"576 -58 OFFCURVE",
"663 -19 OFFCURVE",
"727 45 CURVE SMOOTH",
"789 107 OFFCURVE",
"828 194 OFFCURVE",
"828 290 CURVE",
"892 290 LINE",
"892 176 OFFCURVE",
"847 75 OFFCURVE",
"773 2 CURVE SMOOTH",
"700 -72 OFFCURVE",
"597 -118 OFFCURVE",
"484 -118 CURVE"
);
}
);
width = 960;
}
);
unicode = F131;
},
{
glyphname = uniF132;
lastChange = "2014-04-08 16:16:59 +0800";
layers = (
{
layerId = "8F1B665C-F854-4941-BE6D-BEE4265743FC";
name = Regular;
paths = (
{
closed = 1;
nodes = (
"120 240.001 LINE",
"0 -72 LINE",
"0 -104 OFFCURVE",
"16 -120 OFFCURVE",
"48 -120 CURVE",
"361 0 LINE",
"928.003 568.002 LINE SMOOTH",
"960.003 600.002 OFFCURVE",
"928.003 680.002 OFFCURVE",
"864.003 744.002 CURVE SMOOTH",
"800.003 808.003 OFFCURVE",
"720.002 840.003 OFFCURVE",
"688.002 808.003 CURVE SMOOTH"
);
},
{
closed = 1;
nodes = (
"860 580 LINE",
"360 80 LINE",
"200 240 LINE",
"696 744 LINE"
);
},
{
closed = 1;
nodes = (
"300 30 LINE",
"60 -60 LINE",
"150 180 LINE"
);
}
);
width = 960;
}
);
unicode = F132;
},
{
glyphname = uniF133;
lastChange = "2014-04-08 16:21:33 +0800";
layers = (
{
layerId = "8F1B665C-F854-4941-BE6D-BEE4265743FC";
name = Regular;
paths = (
{
closed = 1;
nodes = (
"30 720 LINE SMOOTH",
"6 720 OFFCURVE",
"0 713 OFFCURVE",
"0 690 CURVE SMOOTH",
"0 150 LINE SMOOTH",
"0 127 OFFCURVE",
"7 120 OFFCURVE",
"30 120 CURVE SMOOTH",
"630 120 LINE SMOOTH",
"653 120 OFFCURVE",
"660 127 OFFCURVE",
"660 150 CURVE SMOOTH",
"660 690 LINE SMOOTH",
"660 713 OFFCURVE",
"647 720 OFFCURVE",
"630 720 CURVE SMOOTH"
);
},
{
closed = 1;
nodes = (
"720.002 260 LINE SMOOTH",
"720.002 245.001 OFFCURVE",
"725.002 233.001 OFFCURVE",
"739.002 225.001 CURVE",
"745.002 221.001 OFFCURVE",
"752.002 220.001 OFFCURVE",
"759.002 220.001 CURVE SMOOTH",
"765.002 220.001 OFFCURVE",
"772.003 221.001 OFFCURVE",
"777.003 224.001 CURVE",
"937.003 384 LINE",
"951.003 391 OFFCURVE",
"960.003 405 OFFCURVE",
"960.003 420 CURVE SMOOTH",
"960.003 435 OFFCURVE",
"951.003 449 OFFCURVE",
"937.003 456 CURVE",
"777.003 616.002 LINE",
"772.003 619.002 OFFCURVE",
"765.002 620.002 OFFCURVE",
"759.002 620.002 CURVE SMOOTH",
"752.002 620.002 OFFCURVE",
"745.002 619.002 OFFCURVE",
"739.002 615.002 CURVE",
"725.002 607.002 OFFCURVE",
"720.002 595.002 OFFCURVE",
"720.002 580.002 CURVE SMOOTH"
);
},
{
closed = 1;
nodes = (
"600 660 LINE",
"600 180 LINE",
"60 180 LINE",
"60 660 LINE"
);
}
);
width = 960;
}
);
unicode = F133;
},
{
glyphname = uniF134;
lastChange = "2014-04-08 16:21:55 +0800";
layers = (
{
layerId = "8F1B665C-F854-4941-BE6D-BEE4265743FC";
name = Regular;
paths = (
{
closed = 1;
nodes = (
"21 456 LINE",
"9 449 OFFCURVE",
"0 435 OFFCURVE",
"0 420 CURVE SMOOTH",
"0 405 OFFCURVE",
"9 391 OFFCURVE",
"21 384 CURVE",
"183.001 224.001 LINE",
"188.001 221.001 OFFCURVE",
"193.001 220.001 OFFCURVE",
"200.001 220.001 CURVE SMOOTH",
"208.001 220.001 OFFCURVE",
"215.001 221.001 OFFCURVE",
"221.001 225.001 CURVE SMOOTH",
"233.001 233.001 OFFCURVE",
"240.001 245.001 OFFCURVE",
"240.001 260 CURVE SMOOTH",
"240.001 580.002 LINE SMOOTH",
"240.001 595.002 OFFCURVE",
"233.001 607.002 OFFCURVE",
"221.001 615.002 CURVE SMOOTH",
"215.001 619.002 OFFCURVE",
"207.001 620.002 OFFCURVE",
"200.001 620.002 CURVE SMOOTH",
"193.001 620.002 OFFCURVE",
"188.001 619.002 OFFCURVE",
"183.001 616.002 CURVE"
);
},
{
closed = 1;
nodes = (
"330 720 LINE SMOOTH",
"306 720 OFFCURVE",
"300 713 OFFCURVE",
"300 690 CURVE SMOOTH",
"300 150 LINE SMOOTH",
"300 127 OFFCURVE",
"307 120 OFFCURVE",
"330 120 CURVE SMOOTH",
"930 120 LINE SMOOTH",
"953 120 OFFCURVE",
"960 127 OFFCURVE",
"960 150 CURVE SMOOTH",
"960 690 LINE SMOOTH",
"960 713 OFFCURVE",
"947 720 OFFCURVE",
"930 720 CURVE SMOOTH"
);
},
{
closed = 1;
nodes = (
"900 660 LINE",
"900 180 LINE",
"360 180 LINE",
"360 660 LINE"
);
}
);
width = 960;
}
);
unicode = F134;
},
{
glyphname = uniF135;
lastChange = "2014-04-08 16:23:14 +0800";
layers = (
{
layerId = "8F1B665C-F854-4941-BE6D-BEE4265743FC";
name = Regular;
paths = (
{
closed = 1;
nodes = (
"474.002 -39 LINE",
"481.002 -51 OFFCURVE",
"495.002 -60 OFFCURVE",
"510.002 -60 CURVE SMOOTH",
"525.002 -60 OFFCURVE",
"539.002 -51 OFFCURVE",
"546.002 -39 CURVE",
"706.002 123 LINE",
"709.002 128 OFFCURVE",
"710.002 133 OFFCURVE",
"710.002 140 CURVE SMOOTH",
"710.002 148 OFFCURVE",
"709.002 155.001 OFFCURVE",
"705.002 161.001 CURVE SMOOTH",
"697.002 173.001 OFFCURVE",
"685.002 180.001 OFFCURVE",
"670.002 180.001 CURVE SMOOTH",
"350 180.001 LINE SMOOTH",
"335 180.001 OFFCURVE",
"323 173.001 OFFCURVE",
"315 161.001 CURVE SMOOTH",
"311 155.001 OFFCURVE",
"310 147 OFFCURVE",
"310 140 CURVE SMOOTH",
"310 133 OFFCURVE",
"311 128 OFFCURVE",
"314 123 CURVE"
);
},
{
closed = 1;
nodes = (
"210 840 LINE SMOOTH",
"186 840 OFFCURVE",
"180 833 OFFCURVE",
"180 810 CURVE SMOOTH",
"180 270 LINE SMOOTH",
"180 247 OFFCURVE",
"187 240 OFFCURVE",
"210 240 CURVE SMOOTH",
"810 240 LINE SMOOTH",
"833 240 OFFCURVE",
"840 247 OFFCURVE",
"840 270 CURVE SMOOTH",
"840 810 LINE SMOOTH",
"840 833 OFFCURVE",
"827 840 OFFCURVE",
"810 840 CURVE SMOOTH"
);
},
{
closed = 1;
nodes = (
"780 780 LINE",
"780 300 LINE",
"240 300 LINE",
"240 780 LINE"
);
}
);
width = 960;
}
);
unicode = F135;
},
{
glyphname = uniF136;
lastChange = "2014-04-08 16:24:03 +0800";
layers = (
{
layerId = "8F1B665C-F854-4941-BE6D-BEE4265743FC";
name = Regular;
paths = (
{
closed = 1;
nodes = (
"546.002 819.003 LINE",
"539.002 831.003 OFFCURVE",
"525.002 840.003 OFFCURVE",
"510.002 840.003 CURVE SMOOTH",
"495.002 840.003 OFFCURVE",
"481.002 831.003 OFFCURVE",
"474.002 819.003 CURVE",
"314 657.002 LINE",
"311 652.002 OFFCURVE",
"310 647.002 OFFCURVE",
"310 640.002 CURVE SMOOTH",
"310 632.002 OFFCURVE",
"311 625.002 OFFCURVE",
"315 619.002 CURVE SMOOTH",
"323 607.002 OFFCURVE",
"335 600.002 OFFCURVE",
"350 600.002 CURVE SMOOTH",
"670.002 600.002 LINE SMOOTH",
"685.002 600.002 OFFCURVE",
"697.002 607.002 OFFCURVE",
"705.002 619.002 CURVE SMOOTH",
"709.002 625.002 OFFCURVE",
"710.002 633.002 OFFCURVE",
"710.002 640.002 CURVE SMOOTH",
"710.002 647.002 OFFCURVE",
"709.002 652.002 OFFCURVE",
"706.002 657.002 CURVE"
);
},
{
closed = 1;
nodes = (
"210 540 LINE SMOOTH",
"186 540 OFFCURVE",
"180 533 OFFCURVE",
"180 510 CURVE SMOOTH",
"180 -30 LINE SMOOTH",
"180 -53 OFFCURVE",
"187 -60 OFFCURVE",
"210 -60 CURVE SMOOTH",
"810 -60 LINE SMOOTH",
"833 -60 OFFCURVE",
"840 -53 OFFCURVE",
"840 -30 CURVE SMOOTH",
"840 510 LINE SMOOTH",
"840 533 OFFCURVE",
"827 540 OFFCURVE",
"810 540 CURVE SMOOTH"
);
},
{
closed = 1;
nodes = (
"780 480 LINE",
"780 0 LINE",
"240 0 LINE",
"240 480 LINE"
);
}
);
width = 960;
}
);
unicode = F136;
},
{
glyphname = uniF137;
layers = (
{
layerId = "8F1B665C-F854-4941-BE6D-BEE4265743FC";
name = Regular;
paths = (
{
closed = 1;
nodes = (
"420 660.002 LINE SMOOTH",
"420 627.002 OFFCURVE",
"447 600.002 OFFCURVE",
"480.002 600.002 CURVE SMOOTH",
"513.002 600.002 OFFCURVE",
"540.002 627.002 OFFCURVE",
"540.002 660.002 CURVE SMOOTH",
"540.002 780.003 LINE SMOOTH",
"540.002 813.003 OFFCURVE",
"513.002 840.003 OFFCURVE",
"480.002 840.003 CURVE SMOOTH",
"447 840.003 OFFCURVE",
"420 813.003 OFFCURVE",
"420 780.003 CURVE SMOOTH"
);
},
{
closed = 1;
nodes = (
"225.001 530.002 LINE SMOOTH",
"237.001 518.002 OFFCURVE",
"251.001 512.002 OFFCURVE",
"268 512.002 CURVE SMOOTH",
"301 512.002 OFFCURVE",
"328 539.002 OFFCURVE",
"328 572.002 CURVE SMOOTH",
"328 589.002 OFFCURVE",
"322 603.002 OFFCURVE",
"310 615.002 CURVE SMOOTH",
"225.001 699.002 LINE",
"214.001 711.002 OFFCURVE",
"200.001 717.002 OFFCURVE",
"183.001 717.002 CURVE SMOOTH",
"167.001 717.002 OFFCURVE",
"152 711.002 OFFCURVE",
"141 699.002 CURVE",
"129 688.002 OFFCURVE",
"123 673.002 OFFCURVE",
"123 657.002 CURVE SMOOTH",
"123 640.002 OFFCURVE",
"129 626.002 OFFCURVE",
"141 615.002 CURVE"
);
},
{
closed = 1;
nodes = (
"650.002 615.002 LINE SMOOTH",
"638.002 603.002 OFFCURVE",
"632.002 589.002 OFFCURVE",
"632.002 572.002 CURVE SMOOTH",
"632.002 539.002 OFFCURVE",
"659.002 512.002 OFFCURVE",
"692.002 512.002 CURVE SMOOTH",
"709.002 512.002 OFFCURVE",
"723.002 518.002 OFFCURVE",
"735.002 530.002 CURVE SMOOTH",
"819.003 615.002 LINE",
"831.003 626.002 OFFCURVE",
"837.003 640.002 OFFCURVE",
"837.003 657.002 CURVE SMOOTH",
"837.003 690.002 OFFCURVE",
"810.003 717.002 OFFCURVE",
"777.003 717.002 CURVE SMOOTH",
"760.002 717.002 OFFCURVE",
"746.002 711.002 OFFCURVE",
"735.002 699.002 CURVE"
);
},
{
closed = 1;
nodes = (
"180.001 300 LINE SMOOTH",
"213.001 300 OFFCURVE",
"240.001 327 OFFCURVE",
"240.001 360 CURVE SMOOTH",
"240.001 393 OFFCURVE",
"213.001 420 OFFCURVE",
"180.001 420 CURVE SMOOTH",
"60 420 LINE SMOOTH",
"44 420 OFFCURVE",
"30 414 OFFCURVE",
"18 403 CURVE",
"6 391 OFFCURVE",
"0 376 OFFCURVE",
"0 360 CURVE SMOOTH",
"0 327 OFFCURVE",
"27 300 OFFCURVE",
"60 300 CURVE SMOOTH"
);
},
{
closed = 1;
nodes = (
"900.003 300 LINE SMOOTH",
"933.003 300 OFFCURVE",
"960.003 327 OFFCURVE",
"960.003 360 CURVE SMOOTH",
"960.003 393 OFFCURVE",
"933.003 420 OFFCURVE",
"900.003 420 CURVE SMOOTH",
"780.003 420 LINE SMOOTH",
"764.002 420 OFFCURVE",
"750.002 414 OFFCURVE",
"738.002 403 CURVE",
"726.002 391 OFFCURVE",
"720.002 376 OFFCURVE",
"720.002 360 CURVE SMOOTH",
"720.002 327 OFFCURVE",
"747.002 300 OFFCURVE",
"780.003 300 CURVE SMOOTH"
);
},
{
closed = 1;
nodes = (
"141 105 LINE",
"129 94 OFFCURVE",
"123 80 OFFCURVE",
"123 63 CURVE SMOOTH",
"123 30 OFFCURVE",
"150 3 OFFCURVE",
"183.001 3 CURVE SMOOTH",
"200.001 3 OFFCURVE",
"214.001 9 OFFCURVE",
"225.001 21 CURVE",
"310 105 LINE SMOOTH",
"322 117 OFFCURVE",
"328 131 OFFCURVE",
"328 148 CURVE SMOOTH",
"328 181.001 OFFCURVE",
"301 208.001 OFFCURVE",
"268 208.001 CURVE SMOOTH",
"251.001 208.001 OFFCURVE",
"237.001 202.001 OFFCURVE",
"225.001 190.001 CURVE SMOOTH"
);
},
{
closed = 1;
nodes = (
"735.002 21 LINE",
"746.002 9 OFFCURVE",
"760.002 3 OFFCURVE",
"777.003 3 CURVE SMOOTH",
"810.003 3 OFFCURVE",
"837.003 30 OFFCURVE",
"837.003 63 CURVE SMOOTH",
"837.003 80 OFFCURVE",
"831.003 94 OFFCURVE",
"819.003 105 CURVE",
"735.002 190.001 LINE SMOOTH",
"723.002 202.001 OFFCURVE",
"709.002 208.001 OFFCURVE",
"692.002 208.001 CURVE SMOOTH",
"676.002 208.001 OFFCURVE",
"661.002 202.001 OFFCURVE",
"650.002 190.001 CURVE",
"638.002 179.001 OFFCURVE",
"632.002 164.001 OFFCURVE",
"632.002 148 CURVE SMOOTH",
"632.002 131 OFFCURVE",
"638.002 117 OFFCURVE",
"650.002 105 CURVE SMOOTH"
);
},
{
closed = 1;
nodes = (
"420 -60 LINE SMOOTH",
"420 -93 OFFCURVE",
"447 -120 OFFCURVE",
"480.002 -120 CURVE SMOOTH",
"513.002 -120 OFFCURVE",
"540.002 -93 OFFCURVE",
"540.002 -60 CURVE SMOOTH",
"540.002 60 LINE SMOOTH",
"540.002 93 OFFCURVE",
"513.002 120 OFFCURVE",
"480.002 120 CURVE SMOOTH",
"447 120 OFFCURVE",
"420 93 OFFCURVE",
"420 60 CURVE SMOOTH"
);
}
);
width = 960;
}
);
unicode = F137;
},
{
glyphname = uniF138;
layers = (
{
layerId = "8F1B665C-F854-4941-BE6D-BEE4265743FC";
name = Regular;
paths = (
{
closed = 1;
nodes = (
"13 487.002 OFFCURVE",
"0 425 OFFCURVE",
"0 360 CURVE SMOOTH",
"0 230.001 OFFCURVE",
"54 106 OFFCURVE",
"141 21 CURVE SMOOTH",
"226.001 -66 OFFCURVE",
"350 -120 OFFCURVE",
"480.002 -120 CURVE SMOOTH",
"610.002 -120 OFFCURVE",
"734.002 -66 OFFCURVE",
"820.003 21 CURVE SMOOTH",
"906.003 106 OFFCURVE",
"960.003 230.001 OFFCURVE",
"960.003 360 CURVE SMOOTH",
"960.003 491.002 OFFCURVE",
"906.003 614.002 OFFCURVE",
"820.003 700.002 CURVE SMOOTH",
"734.002 786.003 OFFCURVE",
"611.002 840.003 OFFCURVE",
"480.002 840.003 CURVE SMOOTH",
"350 840.003 OFFCURVE",
"226.001 786.003 OFFCURVE",
"141 700.002 CURVE SMOOTH",
"98 657.002 OFFCURVE",
"63 606.002 OFFCURVE",
"38 547.002 CURVE SMOOTH"
);
},
{
closed = 1;
nodes = (
"136 234.001 OFFCURVE",
"120 295 OFFCURVE",
"120 360 CURVE SMOOTH",
"120 491.002 OFFCURVE",
"189.001 608.002 OFFCURVE",
"300 672.002 CURVE SMOOTH",
"354 704.002 OFFCURVE",
"415 720.002 OFFCURVE",
"480.002 720.002 CURVE SMOOTH",
"611.002 720.002 OFFCURVE",
"728.002 651.002 OFFCURVE",
"792.003 541.002 CURVE SMOOTH",
"824.003 486.002 OFFCURVE",
"840.003 425 OFFCURVE",
"840.003 360 CURVE SMOOTH",
"840.003 229.001 OFFCURVE",
"771.003 113 OFFCURVE",
"661.002 48 CURVE SMOOTH",
"606.002 16 OFFCURVE",
"545.002 0 OFFCURVE",
"480.002 0 CURVE SMOOTH",
"349 0 OFFCURVE",
"233.001 69 OFFCURVE",
"168.001 180.001 CURVE SMOOTH"
);
},
{
closed = 1;
nodes = (
"420 300 LINE",
"420 267 OFFCURVE",
"447 240.001 OFFCURVE",
"480.002 240.001 CURVE SMOOTH",
"513.002 240.001 OFFCURVE",
"540.002 267 OFFCURVE",
"540.002 300 CURVE",
"600.002 540.002 LINE",
"600.002 606.002 OFFCURVE",
"546.002 660.002 OFFCURVE",
"480.002 660.002 CURVE SMOOTH",
"414 660.002 OFFCURVE",
"360 606.002 OFFCURVE",
"360 540.002 CURVE SMOOTH",
"360 501.002 OFFCURVE",
"385 405 OFFCURVE",
"405 345 CURVE SMOOTH"
);
},
{
closed = 1;
nodes = (
"426 151 OFFCURVE",
"420 136 OFFCURVE",
"420 120 CURVE SMOOTH",
"420 87 OFFCURVE",
"447 60 OFFCURVE",
"480.002 60 CURVE SMOOTH",
"513.002 60 OFFCURVE",
"540.002 87 OFFCURVE",
"540.002 120 CURVE SMOOTH",
"540.002 153 OFFCURVE",
"513.002 180.001 OFFCURVE",
"480.002 180.001 CURVE SMOOTH",
"464 180.001 OFFCURVE",
"450 174.001 OFFCURVE",
"438 163.001 CURVE"
);
}
);
width = 960;
}
);
unicode = F138;
},
{
glyphname = uniF139;
layers = (
{
layerId = "8F1B665C-F854-4941-BE6D-BEE4265743FC";
name = Regular;
paths = (
{
closed = 1;
nodes = (
"13 487.002 OFFCURVE",
"0 425 OFFCURVE",
"0 360 CURVE SMOOTH",
"0 230.001 OFFCURVE",
"54 106 OFFCURVE",
"141 21 CURVE SMOOTH",
"226.001 -66 OFFCURVE",
"350 -120 OFFCURVE",
"480.002 -120 CURVE SMOOTH",
"610.002 -120 OFFCURVE",
"734.002 -66 OFFCURVE",
"820.003 21 CURVE SMOOTH",
"906.003 106 OFFCURVE",
"960.003 230.001 OFFCURVE",
"960.003 360 CURVE SMOOTH",
"960.003 491.002 OFFCURVE",
"906.003 614.002 OFFCURVE",
"820.003 700.002 CURVE SMOOTH",
"734.002 786.003 OFFCURVE",
"611.002 840.003 OFFCURVE",
"480.002 840.003 CURVE SMOOTH",
"350 840.003 OFFCURVE",
"226.001 786.003 OFFCURVE",
"141 700.002 CURVE SMOOTH",
"98 657.002 OFFCURVE",
"63 606.002 OFFCURVE",
"38 547.002 CURVE SMOOTH"
);
},
{
closed = 1;
nodes = (
"136 234.001 OFFCURVE",
"120 295 OFFCURVE",
"120 360 CURVE SMOOTH",
"120 491.002 OFFCURVE",
"189.001 608.002 OFFCURVE",
"300 672.002 CURVE SMOOTH",
"354 704.002 OFFCURVE",
"415 720.002 OFFCURVE",
"480.002 720.002 CURVE SMOOTH",
"611.002 720.002 OFFCURVE",
"728.002 651.002 OFFCURVE",
"792.003 541.002 CURVE SMOOTH",
"824.003 486.002 OFFCURVE",
"840.003 425 OFFCURVE",
"840.003 360 CURVE SMOOTH",
"840.003 229.001 OFFCURVE",
"771.003 113 OFFCURVE",
"661.002 48 CURVE SMOOTH",
"606.002 16 OFFCURVE",
"545.002 0 OFFCURVE",
"480.002 0 CURVE SMOOTH",
"349 0 OFFCURVE",
"233.001 69 OFFCURVE",
"168.001 180.001 CURVE SMOOTH"
);
},
{
closed = 1;
nodes = (
"395 360 LINE",
"310 275 LINE",
"299 263 OFFCURVE",
"293 249.001 OFFCURVE",
"293 233.001 CURVE SMOOTH",
"293 200.001 OFFCURVE",
"320 173.001 OFFCURVE",
"353 173.001 CURVE SMOOTH",
"369 173.001 OFFCURVE",
"383 179.001 OFFCURVE",
"395 190.001 CURVE",
"480.002 275 LINE",
"565.002 190.001 LINE",
"577.002 179.001 OFFCURVE",
"591.002 173.001 OFFCURVE",
"607.002 173.001 CURVE SMOOTH",
"640.002 173.001 OFFCURVE",
"668.002 200.001 OFFCURVE",
"668.002 233.001 CURVE SMOOTH",
"668.002 249.001 OFFCURVE",
"661.002 263 OFFCURVE",
"650.002 275 CURVE",
"565.002 360 LINE",
"650.002 445 LINE",
"661.002 457 OFFCURVE",
"668.002 471.002 OFFCURVE",
"668.002 487.002 CURVE SMOOTH",
"668.002 520.002 OFFCURVE",
"640.002 548.002 OFFCURVE",
"607.002 548.002 CURVE SMOOTH",
"591.002 548.002 OFFCURVE",
"577.002 541.002 OFFCURVE",
"565.002 530.002 CURVE",
"480.002 445 LINE",
"395 530.002 LINE",
"383 541.002 OFFCURVE",
"369 548.002 OFFCURVE",
"353 548.002 CURVE SMOOTH",
"320 548.002 OFFCURVE",
"293 520.002 OFFCURVE",
"293 487.002 CURVE SMOOTH",
"293 471.002 OFFCURVE",
"299 457 OFFCURVE",
"310 445 CURVE"
);
}
);
width = 960;
}
);
unicode = F139;
},
{
glyphname = uniF13A;
layers = (
{
layerId = "8F1B665C-F854-4941-BE6D-BEE4265743FC";
name = Regular;
paths = (
{
closed = 1;
nodes = (
"34 280 LINE",
"10 302 OFFCURVE",
"0 330 OFFCURVE",
"0 360 CURVE SMOOTH",
"0 424 OFFCURVE",
"50 475.002 OFFCURVE",
"114 475.002 CURVE SMOOTH",
"146 475.002 OFFCURVE",
"174.001 465 OFFCURVE",
"198.001 442 CURVE SMOOTH",
"358 280 LINE",
"762.002 688.002 LINE",
"786.003 708.002 OFFCURVE",
"814.003 720.002 OFFCURVE",
"846.003 720.002 CURVE SMOOTH",
"910.003 720.002 OFFCURVE",
"960.003 668.002 OFFCURVE",
"960.003 603.002 CURVE SMOOTH",
"960.003 571.002 OFFCURVE",
"950.003 545.002 OFFCURVE",
"926.003 523.002 CURVE",
"440 32 LINE",
"416 12 OFFCURVE",
"390 0 OFFCURVE",
"360 0 CURVE SMOOTH",
"328 0 OFFCURVE",
"302 12 OFFCURVE",
"278 32 CURVE"
);
}
);
width = 960;
}
);
unicode = F13A;
},
{
glyphname = uniF13B;
lastChange = "2014-04-08 16:27:11 +0800";
layers = (
{
layerId = "8F1B665C-F854-4941-BE6D-BEE4265743FC";
name = Regular;
paths = (
{
closed = 1;
nodes = (
"71 471 OFFCURVE",
"60 417 OFFCURVE",
"60 360 CURVE SMOOTH",
"60 247 OFFCURVE",
"108 138 OFFCURVE",
"183 63 CURVE SMOOTH",
"258 -12 OFFCURVE",
"367 -60 OFFCURVE",
"480 -60 CURVE SMOOTH",
"593 -60 OFFCURVE",
"703 -12 OFFCURVE",
"778 63 CURVE SMOOTH",
"852 138 OFFCURVE",
"900 247 OFFCURVE",
"900 360 CURVE SMOOTH",
"900 474 OFFCURVE",
"852 583 OFFCURVE",
"778 658 CURVE SMOOTH",
"703 732 OFFCURVE",
"594 780 OFFCURVE",
"480 780 CURVE SMOOTH",
"367 780 OFFCURVE",
"258 732 OFFCURVE",
"183 658 CURVE SMOOTH",
"145 620 OFFCURVE",
"115 576 OFFCURVE",
"93 523 CURVE SMOOTH"
);
},
{
closed = 1;
nodes = (
"136 235 OFFCURVE",
"120 295 OFFCURVE",
"120 360 CURVE SMOOTH",
"120 490 OFFCURVE",
"190 608 OFFCURVE",
"301 672 CURVE SMOOTH",
"355 704 OFFCURVE",
"415 720 OFFCURVE",
"480 720 CURVE SMOOTH",
"610 720 OFFCURVE",
"728 650 OFFCURVE",
"792 542 CURVE SMOOTH",
"824 485 OFFCURVE",
"840 425 OFFCURVE",
"840 360 CURVE SMOOTH",
"840 230 OFFCURVE",
"770 112 OFFCURVE",
"662 48 CURVE SMOOTH",
"605 16 OFFCURVE",
"545 0 OFFCURVE",
"480 0 CURVE SMOOTH",
"350 0 OFFCURVE",
"232 70 OFFCURVE",
"168 181 CURVE SMOOTH"
);
},
{
closed = 1;
nodes = (
"480 360 LINE",
"240 360 LINE",
"240 300 LINE",
"540 300 LINE",
"540 600 LINE",
"480 600 LINE"
);
}
);
width = 960;
}
);
unicode = F13B;
},
{
glyphname = uniF13C;
layers = (
{
layerId = "8F1B665C-F854-4941-BE6D-BEE4265743FC";
name = Regular;
paths = (
{
closed = 1;
nodes = (
"720.002 600.002 LINE",
"240.001 600.002 LINE",
"240.001 480.002 LINE",
"720.002 480.002 LINE"
);
},
{
closed = 1;
nodes = (
"720.002 420 LINE",
"240.001 420 LINE",
"240.001 300 LINE",
"720.002 300 LINE"
);
},
{
closed = 1;
nodes = (
"720.002 240.001 LINE",
"240.001 240.001 LINE",
"240.001 120 LINE",
"720.002 120 LINE"
);
}
);
width = 960;
}
);
unicode = F13C;
},
{
glyphname = uniF13D;
lastChange = "2014-04-08 16:27:58 +0800";
layers = (
{
layerId = "8F1B665C-F854-4941-BE6D-BEE4265743FC";
name = Regular;
paths = (
{
closed = 1;
nodes = (
"540 300 LINE",
"754 300 LINE SMOOTH",
"768 300 OFFCURVE",
"780 314 OFFCURVE",
"780 328 CURVE SMOOTH",
"780 392 LINE SMOOTH",
"780 406 OFFCURVE",
"768 420 OFFCURVE",
"754 420 CURVE SMOOTH",
"540 420 LINE",
"540 634 LINE SMOOTH",
"540 648 OFFCURVE",
"526 660 OFFCURVE",
"512 660 CURVE SMOOTH",
"448 660 LINE SMOOTH",
"434 660 OFFCURVE",
"420 648 OFFCURVE",
"420 634 CURVE SMOOTH",
"420 420 LINE",
"206 420 LINE SMOOTH",
"192 420 OFFCURVE",
"180 406 OFFCURVE",
"180 392 CURVE SMOOTH",
"180 328 LINE SMOOTH",
"180 314 OFFCURVE",
"192 300 OFFCURVE",
"206 300 CURVE SMOOTH",
"420 300 LINE",
"420 86 LINE SMOOTH",
"420 72 OFFCURVE",
"434 60 OFFCURVE",
"448 60 CURVE SMOOTH",
"512 60 LINE SMOOTH",
"526 60 OFFCURVE",
"540 72 OFFCURVE",
"540 86 CURVE SMOOTH"
);
}
);
width = 960;
}
);
unicode = F13D;
},
{
glyphname = uniF13E;
lastChange = "2014-04-08 16:29:53 +0800";
layers = (
{
layerId = "8F1B665C-F854-4941-BE6D-BEE4265743FC";
name = Regular;
paths = (
{
closed = 1;
nodes = (
"592 372 LINE",
"787 566 LINE",
"795 576 OFFCURVE",
"796 592 OFFCURVE",
"787 602 CURVE SMOOTH",
"710 678 LINE SMOOTH",
"700 688 OFFCURVE",
"685 687 OFFCURVE",
"675 678 CURVE",
"480 483 LINE",
"285 678 LINE",
"275 687 OFFCURVE",
"260 688 OFFCURVE",
"250 678 CURVE SMOOTH",
"173 602 LINE SMOOTH",
"164 592 OFFCURVE",
"165 576 OFFCURVE",
"173 566 CURVE",
"368 372 LINE",
"176 180 LINE",
"168 170 OFFCURVE",
"166 154 OFFCURVE",
"176 144 CURVE SMOOTH",
"253 68 LINE SMOOTH",
"263 58 OFFCURVE",
"278 59 OFFCURVE",
"288 68 CURVE",
"480 260 LINE",
"672 68 LINE",
"682 59 OFFCURVE",
"697 58 OFFCURVE",
"707 68 CURVE SMOOTH",
"784 144 LINE SMOOTH",
"794 154 OFFCURVE",
"792 170 OFFCURVE",
"784 180 CURVE"
);
}
);
width = 960;
}
);
unicode = F13E;
},
{
glyphname = uniF140;
lastChange = "2014-04-08 19:32:46 +0800";
layers = (
{
layerId = "8F1B665C-F854-4941-BE6D-BEE4265743FC";
name = Regular;
paths = (
{
closed = 1;
nodes = (
"720 673 LINE",
"553 840 LINE",
"0 840 LINE",
"0 -120 LINE",
"720 -120 LINE",
"720 -118 LINE",
"788 -111 OFFCURVE",
"844 -81 OFFCURVE",
"891 -30 CURVE SMOOTH",
"938 21 OFFCURVE",
"960 81 OFFCURVE",
"960 150 CURVE SMOOTH",
"960 219 OFFCURVE",
"938 279 OFFCURVE",
"891 330 CURVE SMOOTH",
"844 381 OFFCURVE",
"788 411 OFFCURVE",
"720 418 CURVE"
);
},
{
closed = 1;
nodes = (
"540 767 LINE",
"647 660 LINE",
"540 660 LINE"
);
},
{
closed = 1;
nodes = (
"60 -60 LINE",
"60 780 LINE",
"480 780 LINE",
"480 600 LINE",
"660 600 LINE",
"660 418 LINE",
"608 413 OFFCURVE",
"561 392 OFFCURVE",
"521 360 CURVE",
"120 360 LINE",
"120 300 LINE",
"465 300 LINE",
"454 281 OFFCURVE",
"444 261 OFFCURVE",
"435 240 CURVE",
"120 240 LINE",
"120 180 LINE",
"422 180 LINE",
"420 171 OFFCURVE",
"420 159 OFFCURVE",
"420 150 CURVE SMOOTH",
"420 64 OFFCURVE",
"454 -6 OFFCURVE",
"521 -60 CURVE"
);
},
{
closed = 1;
nodes = (
"632 -56 OFFCURVE",
"583 -36 OFFCURVE",
"544 4 CURVE SMOOTH",
"504 43 OFFCURVE",
"484 92 OFFCURVE",
"484 150 CURVE SMOOTH",
"484 208 OFFCURVE",
"504 257 OFFCURVE",
"544 296 CURVE SMOOTH",
"583 336 OFFCURVE",
"632 356 OFFCURVE",
"690 356 CURVE SMOOTH",
"748 356 OFFCURVE",
"797 336 OFFCURVE",
"836 296 CURVE SMOOTH",
"876 257 OFFCURVE",
"896 208 OFFCURVE",
"896 150 CURVE SMOOTH",
"896 92 OFFCURVE",
"876 43 OFFCURVE",
"836 4 CURVE SMOOTH",
"797 -36 OFFCURVE",
"748 -56 OFFCURVE",
"690 -56 CURVE SMOOTH"
);
},
{
closed = 1;
nodes = (
"120 480 LINE",
"600 480 LINE",
"600 420 LINE",
"120 420 LINE"
);
},
{
closed = 1;
nodes = (
"660 180 LINE",
"720 180 LINE",
"720 0 LINE",
"660 0 LINE"
);
},
{
closed = 1;
nodes = (
"660 300 LINE",
"720 300 LINE",
"720 240 LINE",
"660 240 LINE"
);
}
);
width = 960;
}
);
unicode = F140;
},
{
glyphname = uniF141;
layers = (
{
layerId = "8F1B665C-F854-4941-BE6D-BEE4265743FC";
name = Regular;
paths = (
{
closed = 1;
nodes = (
"0 315 OFFCURVE",
"30 285 OFFCURVE",
"68 285 CURVE SMOOTH",
"106 285 OFFCURVE",
"137 315 OFFCURVE",
"137 353 CURVE SMOOTH",
"137 428 OFFCURVE",
"199.001 490.002 OFFCURVE",
"274 490.002 CURVE SMOOTH",
"350 490.002 OFFCURVE",
"412 429 OFFCURVE",
"412 353 CURVE SMOOTH",
"412 254.001 OFFCURVE",
"464 165.001 OFFCURVE",
"548.002 116 CURVE SMOOTH",
"590.002 91 OFFCURVE",
"636.002 79 OFFCURVE",
"686.002 79 CURVE SMOOTH",
"785.003 79 OFFCURVE",
"874.003 131 OFFCURVE",
"923.003 216.001 CURVE SMOOTH",
"948.003 257 OFFCURVE",
"960.003 303 OFFCURVE",
"960.003 353 CURVE SMOOTH",
"960.003 391 OFFCURVE",
"930.003 421 OFFCURVE",
"892.003 421 CURVE SMOOTH",
"854.003 421 OFFCURVE",
"823.003 391 OFFCURVE",
"823.003 353 CURVE SMOOTH",
"823.003 278 OFFCURVE",
"761.002 216.001 OFFCURVE",
"686.002 216.001 CURVE SMOOTH",
"610.002 216.001 OFFCURVE",
"548.002 277 OFFCURVE",
"548.002 353 CURVE SMOOTH",
"548.002 452 OFFCURVE",
"496.002 541.002 OFFCURVE",
"412 591.002 CURVE SMOOTH",
"370 615.002 OFFCURVE",
"324 627.002 OFFCURVE",
"274 627.002 CURVE SMOOTH",
"175.001 627.002 OFFCURVE",
"86 575.002 OFFCURVE",
"37 491.002 CURVE SMOOTH",
"12 449 OFFCURVE",
"0 403 OFFCURVE",
"0 353 CURVE SMOOTH"
);
}
);
width = 960;
}
);
unicode = F141;
},
{
glyphname = uniF142;
lastChange = "2014-04-08 16:34:55 +0800";
layers = (
{
layerId = "8F1B665C-F854-4941-BE6D-BEE4265743FC";
name = Regular;
paths = (
{
closed = 1;
nodes = (
"277 565 LINE",
"688 565 LINE",
"687 587 OFFCURVE",
"680 606 OFFCURVE",
"672 621 CURVE",
"662 636 OFFCURVE",
"648 647 OFFCURVE",
"628 652 CURVE",
"628 652 OFFCURVE",
"628 652 OFFCURVE",
"628 652 CURVE SMOOTH",
"627 652 OFFCURVE",
"627 652 OFFCURVE",
"627 652 CURVE SMOOTH",
"626 652 OFFCURVE",
"626 652 OFFCURVE",
"626 652 CURVE SMOOTH",
"624 652 OFFCURVE",
"624 652 OFFCURVE",
"624 652 CURVE",
"611 657 OFFCURVE",
"601 661 OFFCURVE",
"593 667 CURVE",
"584 674 OFFCURVE",
"580 682 OFFCURVE",
"580 696 CURVE SMOOTH",
"580 740 LINE SMOOTH",
"580 766 OFFCURVE",
"569 792 OFFCURVE",
"552 810 CURVE",
"534 827 OFFCURVE",
"508 840 OFFCURVE",
"482 840 CURVE SMOOTH",
"455 840 OFFCURVE",
"429 827 OFFCURVE",
"412 810 CURVE SMOOTH",
"394 792 OFFCURVE",
"384 766 OFFCURVE",
"384 740 CURVE SMOOTH",
"384 696 LINE SMOOTH",
"384 682 OFFCURVE",
"379 674 OFFCURVE",
"372 667 CURVE",
"363 661 OFFCURVE",
"352 657 OFFCURVE",
"340 652 CURVE",
"340 652 OFFCURVE",
"340 652 OFFCURVE",
"340 652 CURVE SMOOTH",
"339 652 OFFCURVE",
"339 652 OFFCURVE",
"339 652 CURVE SMOOTH",
"338 652 OFFCURVE",
"338 652 OFFCURVE",
"338 652 CURVE SMOOTH",
"336 652 OFFCURVE",
"336 652 OFFCURVE",
"336 652 CURVE",
"316 647 OFFCURVE",
"302 636 OFFCURVE",
"294 621 CURVE",
"284 606 OFFCURVE",
"279 587 OFFCURVE",
"278 565 CURVE"
);
},
{
closed = 1;
nodes = (
"483 770 LINE",
"491 770 OFFCURVE",
"499 766 OFFCURVE",
"505 763 CURVE",
"510 757 OFFCURVE",
"513 749 OFFCURVE",
"513 741 CURVE SMOOTH",
"513 732 OFFCURVE",
"510 725 OFFCURVE",
"505 721 CURVE",
"499 715 OFFCURVE",
"491 713 OFFCURVE",
"483 713 CURVE SMOOTH",
"474 713 OFFCURVE",
"467 715 OFFCURVE",
"462 721 CURVE",
"457 725 OFFCURVE",
"454 732 OFFCURVE",
"454 741 CURVE SMOOTH",
"454 749 OFFCURVE",
"457 757 OFFCURVE",
"462 763 CURVE",
"468 766 OFFCURVE",
"475 770 OFFCURVE",
"484 770 CURVE"
);
},
{
closed = 1;
nodes = (
"781 779 LINE",
"645 779 LINE",
"645 760 LINE SMOOTH",
"645 749 OFFCURVE",
"649 739 OFFCURVE",
"656 731 CURVE SMOOTH",
"663 723 OFFCURVE",
"673 720 OFFCURVE",
"685 720 CURVE SMOOTH",
"754 720 LINE SMOOTH",
"761 720 OFFCURVE",
"767 716 OFFCURVE",
"773 712 CURVE",
"777 706 OFFCURVE",
"780 700 OFFCURVE",
"780 693 CURVE SMOOTH",
"780 -36 LINE SMOOTH",
"780 -43 OFFCURVE",
"777 -48 OFFCURVE",
"773 -53 CURVE SMOOTH",
"768 -56 OFFCURVE",
"763 -60 OFFCURVE",
"756 -60 CURVE SMOOTH",
"205 -60 LINE SMOOTH",
"197 -60 OFFCURVE",
"192 -56 OFFCURVE",
"188 -53 CURVE SMOOTH",
"184 -48 OFFCURVE",
"180 -43 OFFCURVE",
"180 -36 CURVE SMOOTH",
"180 694 LINE SMOOTH",
"180 701 OFFCURVE",
"184 708 OFFCURVE",
"189 713 CURVE SMOOTH",
"194 717 OFFCURVE",
"200 721 OFFCURVE",
"207 721 CURVE SMOOTH",
"283 721 LINE SMOOTH",
"295 721 OFFCURVE",
"305 725 OFFCURVE",
"312 732 CURVE SMOOTH",
"319 740 OFFCURVE",
"323 749 OFFCURVE",
"323 761 CURVE SMOOTH",
"323 780 LINE",
"179 780 LINE SMOOTH",
"163 780 OFFCURVE",
"149 773 OFFCURVE",
"138 761 CURVE SMOOTH",
"127 749 OFFCURVE",
"120 735 OFFCURVE",
"120 718 CURVE SMOOTH",
"120 -60 LINE SMOOTH",
"120 -77 OFFCURVE",
"127 -90 OFFCURVE",
"138 -101 CURVE SMOOTH",
"149 -112 OFFCURVE",
"163 -120 OFFCURVE",
"179 -120 CURVE SMOOTH",
"781 -120 LINE SMOOTH",
"797 -120 OFFCURVE",
"812 -112 OFFCURVE",
"823 -101 CURVE SMOOTH",
"834 -90 OFFCURVE",
"840 -77 OFFCURVE",
"840 -60 CURVE SMOOTH",
"840 718 LINE SMOOTH",
"840 735 OFFCURVE",
"834 749 OFFCURVE",
"823 761 CURVE SMOOTH",
"812 773 OFFCURVE",
"797 780 OFFCURVE",
"781 780 CURVE"
);
},
{
closed = 1;
nodes = (
"484 498 LINE",
"484 464 LINE",
"244 464 LINE",
"244 498 LINE"
);
},
{
closed = 1;
nodes = (
"587 293 LINE",
"587 259 LINE",
"244 259 LINE",
"244 293 LINE"
);
},
{
closed = 1;
nodes = (
"521 87 LINE",
"521 53 LINE",
"244 53 LINE",
"244 87 LINE"
);
},
{
closed = 1;
nodes = (
"621 190 LINE",
"621 155 LINE",
"244 155 LINE",
"244 190 LINE"
);
},
{
closed = 1;
nodes = (
"689 395 LINE",
"689 361 LINE",
"244 361 LINE",
"244 395 LINE"
);
}
);
width = 960;
}
);
unicode = F142;
},
{
glyphname = uniF143;
lastChange = "2014-04-08 16:35:46 +0800";
layers = (
{
layerId = "8F1B665C-F854-4941-BE6D-BEE4265743FC";
name = Regular;
paths = (
{
closed = 1;
nodes = (
"700.002 302 LINE SMOOTH",
"678.002 302 OFFCURVE",
"660 284 OFFCURVE",
"660.002 262 CURVE SMOOTH",
"660 179 LINE",
"626 179 LINE",
"360 600 LINE",
"300 600 LINE",
"300 680.002 LINE SMOOTH",
"300 702.002 OFFCURVE",
"282 720.002 OFFCURVE",
"260 720.002 CURVE SMOOTH",
"40 720.002 LINE SMOOTH",
"18 720.002 OFFCURVE",
"0 702.002 OFFCURVE",
"0 680.002 CURVE SMOOTH",
"0 460 LINE SMOOTH",
"0 438 OFFCURVE",
"18 420 OFFCURVE",
"40 420 CURVE SMOOTH",
"260 420 LINE SMOOTH",
"282 420 OFFCURVE",
"300 438 OFFCURVE",
"300 460 CURVE SMOOTH",
"300 540 LINE",
"335 540 LINE",
"600 120 LINE",
"600 119 LINE",
"660 119 LINE",
"660.002 42 LINE SMOOTH",
"660 20 OFFCURVE",
"678.002 2 OFFCURVE",
"700.002 2 CURVE SMOOTH",
"920.003 2 LINE SMOOTH",
"942.003 2 OFFCURVE",
"960.003 20 OFFCURVE",
"960.003 42 CURVE SMOOTH",
"960.003 262 LINE SMOOTH",
"960.003 284 OFFCURVE",
"942.003 302 OFFCURVE",
"920.003 302 CURVE SMOOTH"
);
},
{
closed = 1;
nodes = (
"240 660 LINE",
"240 480 LINE",
"60 480 LINE",
"60 660 LINE"
);
},
{
closed = 1;
nodes = (
"900 242 LINE",
"900 62 LINE",
"720 62 LINE",
"720 242 LINE"
);
}
);
width = 960;
}
);
unicode = F143;
},
{
glyphname = uniF144;
lastChange = "2014-04-08 16:37:13 +0800";
layers = (
{
layerId = "8F1B665C-F854-4941-BE6D-BEE4265743FC";
name = Regular;
paths = (
{
closed = 1;
nodes = (
"700.002 300 LINE SMOOTH",
"678.002 300 OFFCURVE",
"660 282 OFFCURVE",
"660.002 260 CURVE SMOOTH",
"660 180 LINE",
"510 180 LINE",
"510 560 LINE SMOOTH",
"510 582 OFFCURVE",
"492 600 OFFCURVE",
"470 600 CURVE SMOOTH",
"300 600 LINE",
"300 680.002 LINE SMOOTH",
"300 702.002 OFFCURVE",
"282 720.002 OFFCURVE",
"260 720.002 CURVE SMOOTH",
"40 720.002 LINE SMOOTH",
"18 720.002 OFFCURVE",
"0 702.002 OFFCURVE",
"0 680.002 CURVE SMOOTH",
"0 460 LINE SMOOTH",
"0 438 OFFCURVE",
"18 420 OFFCURVE",
"40 420 CURVE SMOOTH",
"260 420 LINE SMOOTH",
"282 420 OFFCURVE",
"300 438 OFFCURVE",
"300 460 CURVE SMOOTH",
"300 540 LINE",
"450 540 LINE",
"450 160 LINE SMOOTH",
"450 138 OFFCURVE",
"468 120 OFFCURVE",
"490 120 CURVE SMOOTH",
"660 120 LINE",
"660.002 40 LINE SMOOTH",
"660 18 OFFCURVE",
"678.002 0 OFFCURVE",
"700.002 0 CURVE SMOOTH",
"920.003 0 LINE SMOOTH",
"942.003 0 OFFCURVE",
"960.003 18 OFFCURVE",
"960.003 40 CURVE SMOOTH",
"960.003 260 LINE SMOOTH",
"960.003 282 OFFCURVE",
"942.003 300 OFFCURVE",
"920.003 300 CURVE SMOOTH"
);
},
{
closed = 1;
nodes = (
"240 660 LINE",
"240 480 LINE",
"60 480 LINE",
"60 660 LINE"
);
},
{
closed = 1;
nodes = (
"900 240 LINE",
"900 60 LINE",
"720 60 LINE",
"720 240 LINE"
);
}
);
width = 960;
}
);
unicode = F144;
},
{
glyphname = uniF145;
lastChange = "2014-04-08 16:38:43 +0800";
layers = (
{
layerId = "8F1B665C-F854-4941-BE6D-BEE4265743FC";
name = Regular;
paths = (
{
closed = 1;
nodes = (
"660 177 LINE",
"571 177 OFFCURVE",
"510 220 OFFCURVE",
"510 362 CURVE SMOOTH",
"510 470 OFFCURVE",
"479 600 OFFCURVE",
"330 600 CURVE SMOOTH",
"300 600 LINE",
"300 680.002 LINE SMOOTH",
"300 702.002 OFFCURVE",
"282 720.002 OFFCURVE",
"260 720.002 CURVE SMOOTH",
"40 720.002 LINE SMOOTH",
"18 720.002 OFFCURVE",
"0 702.002 OFFCURVE",
"0 680.002 CURVE SMOOTH",
"0 460 LINE SMOOTH",
"0 438 OFFCURVE",
"18 420 OFFCURVE",
"40 420 CURVE SMOOTH",
"260 420 LINE SMOOTH",
"282 420 OFFCURVE",
"300 438 OFFCURVE",
"300 460 CURVE SMOOTH",
"300 540 LINE",
"388 540 OFFCURVE",
"450 498 OFFCURVE",
"450 362 CURVE SMOOTH",
"450 250 OFFCURVE",
"478 117 OFFCURVE",
"629 117 CURVE SMOOTH",
"660 117 LINE",
"660.002 40 LINE SMOOTH",
"660 18 OFFCURVE",
"678.002 0 OFFCURVE",
"700.002 0 CURVE SMOOTH",
"920.003 0 LINE SMOOTH",
"942.003 0 OFFCURVE",
"960.003 18 OFFCURVE",
"960.003 40 CURVE SMOOTH",
"960.003 260 LINE SMOOTH",
"960.003 282 OFFCURVE",
"942.003 300 OFFCURVE",
"920.003 300 CURVE SMOOTH",
"700.002 300 LINE SMOOTH",
"678.002 300 OFFCURVE",
"660 282 OFFCURVE",
"660.002 260 CURVE SMOOTH"
);
},
{
closed = 1;
nodes = (
"240 660 LINE",
"240 480 LINE",
"60 480 LINE",
"60 660 LINE"
);
},
{
closed = 1;
nodes = (
"900 240 LINE",
"900 60 LINE",
"720 60 LINE",
"720 240 LINE"
);
}
);
width = 960;
}
);
unicode = F145;
},
{
glyphname = uniF146;
lastChange = "2014-04-08 16:39:14 +0800";
layers = (
{
layerId = "8F1B665C-F854-4941-BE6D-BEE4265743FC";
name = Regular;
paths = (
{
closed = 1;
nodes = (
"840 300 LINE",
"840 629 OFFCURVE",
"401 600 OFFCURVE",
"360 600 CURVE SMOOTH",
"300 600 LINE",
"300 680.002 LINE SMOOTH",
"300 702.002 OFFCURVE",
"282 720.002 OFFCURVE",
"260 720.002 CURVE SMOOTH",
"40 720.002 LINE SMOOTH",
"18 720.002 OFFCURVE",
"0 702.002 OFFCURVE",
"0 680.002 CURVE SMOOTH",
"0 460 LINE SMOOTH",
"0 438 OFFCURVE",
"18 420 OFFCURVE",
"40 420 CURVE SMOOTH",
"260 420 LINE SMOOTH",
"282 420 OFFCURVE",
"300 438 OFFCURVE",
"300 460 CURVE SMOOTH",
"300 540 LINE",
"339 540 OFFCURVE",
"780 570 OFFCURVE",
"780 300 CURVE",
"700.002 300 LINE SMOOTH",
"678.002 300 OFFCURVE",
"660.002 282 OFFCURVE",
"660.002 260 CURVE SMOOTH",
"660.002 40 LINE SMOOTH",
"660.002 18 OFFCURVE",
"678.002 0 OFFCURVE",
"700.002 0 CURVE SMOOTH",
"920.003 0 LINE SMOOTH",
"942.003 0 OFFCURVE",
"960.003 18 OFFCURVE",
"960.003 40 CURVE SMOOTH",
"960.003 260 LINE SMOOTH",
"960.003 282 OFFCURVE",
"942.003 300 OFFCURVE",
"920.003 300 CURVE SMOOTH"
);
},
{
closed = 1;
nodes = (
"240 660 LINE",
"240 480 LINE",
"60 480 LINE",
"60 660 LINE"
);
},
{
closed = 1;
nodes = (
"900 240 LINE",
"900 60 LINE",
"720 60 LINE",
"720 240 LINE"
);
}
);
width = 960;
}
);
unicode = F146;
},
{
glyphname = uniF147;
lastChange = "2014-04-08 19:30:41 +0800";
layers = (
{
layerId = "8F1B665C-F854-4941-BE6D-BEE4265743FC";
name = Regular;
paths = (
{
closed = 1;
nodes = (
"150 780 LINE SMOOTH",
"133 780 OFFCURVE",
"120 767 OFFCURVE",
"120 750 CURVE SMOOTH",
"120 -30 LINE SMOOTH",
"120 -47 OFFCURVE",
"133 -60 OFFCURVE",
"150 -60 CURVE SMOOTH",
"810 -60 LINE SMOOTH",
"827 -60 OFFCURVE",
"840 -47 OFFCURVE",
"840 -30 CURVE SMOOTH",
"840 750 LINE SMOOTH",
"840 767 OFFCURVE",
"827 780 OFFCURVE",
"810 780 CURVE SMOOTH"
);
},
{
closed = 1;
nodes = (
"780 10 LINE SMOOTH",
"780 4 OFFCURVE",
"776 0 OFFCURVE",
"770 0 CURVE SMOOTH",
"190 0 LINE SMOOTH",
"184 0 OFFCURVE",
"180 4 OFFCURVE",
"180 10 CURVE SMOOTH",
"180 710 LINE SMOOTH",
"180 716 OFFCURVE",
"184 720 OFFCURVE",
"190 720 CURVE SMOOTH",
"770 720 LINE SMOOTH",
"776 720 OFFCURVE",
"780 716 OFFCURVE",
"780 710 CURVE SMOOTH"
);
},
{
closed = 1;
nodes = (
"240 480 LINE",
"240 600 LINE",
"360 600 LINE",
"360 480 LINE"
);
},
{
closed = 1;
nodes = (
"420 480 LINE",
"420 600 LINE",
"721 600 LINE",
"721 480 LINE"
);
},
{
closed = 1;
nodes = (
"240 300 LINE",
"240 420 LINE",
"360 420 LINE",
"360 300 LINE"
);
},
{
closed = 1;
nodes = (
"420 300 LINE",
"420 420 LINE",
"719 420 LINE",
"719 300 LINE"
);
},
{
closed = 1;
nodes = (
"240 120 LINE",
"240 240 LINE",
"360 240 LINE",
"360 120 LINE"
);
},
{
closed = 1;
nodes = (
"420 120 LINE",
"420 240 LINE",
"720 240 LINE",
"720 120 LINE"
);
}
);
width = 960;
}
);
unicode = F147;
},
{
glyphname = uniF148;
lastChange = "2014-04-08 16:42:24 +0800";
layers = (
{
layerId = "8F1B665C-F854-4941-BE6D-BEE4265743FC";
name = Regular;
paths = (
{
closed = 1;
nodes = (
"943 751 LINE",
"867 827 LINE SMOOTH",
"858 836 OFFCURVE",
"847 840 OFFCURVE",
"835 840 CURVE SMOOTH",
"824 840 OFFCURVE",
"813 836 OFFCURVE",
"804 827 CURVE SMOOTH",
"725 747 LINE",
"863 609 LINE",
"943 688 LINE SMOOTH",
"951 696 OFFCURVE",
"955 708 OFFCURVE",
"955 719 CURVE SMOOTH",
"955 730 OFFCURVE",
"951 741 OFFCURVE",
"943 750 CURVE"
);
},
{
closed = 1;
nodes = (
"702 722 LINE",
"274 280 LINE",
"239 121 LINE",
"398 156 LINE",
"838 587 LINE"
);
},
{
closed = 1;
nodes = (
"780 360 LINE",
"780 -33 LINE SMOOTH",
"780 -40 OFFCURVE",
"777 -46 OFFCURVE",
"774 -51 CURVE",
"769 -56 OFFCURVE",
"762 -58 OFFCURVE",
"756 -58 CURVE SMOOTH",
"752 -58 OFFCURVE",
"733 -58 OFFCURVE",
"664 -58 CURVE SMOOTH",
"593 -58 OFFCURVE",
"517 -58 OFFCURVE",
"433 -58 CURVE SMOOTH",
"350 -58 OFFCURVE",
"275 -58 OFFCURVE",
"207 -58 CURVE SMOOTH",
"138 -58 OFFCURVE",
"83 -58 OFFCURVE",
"83 -58 CURVE SMOOTH",
"77 -58 OFFCURVE",
"71 -55 OFFCURVE",
"67 -50 CURVE",
"62 -45 OFFCURVE",
"60 -38 OFFCURVE",
"60 -33 CURVE SMOOTH",
"60 -31 OFFCURVE",
"60 5 OFFCURVE",
"60 95 CURVE SMOOTH",
"60 165 OFFCURVE",
"60 241 OFFCURVE",
"60 324 CURVE SMOOTH",
"60 406 OFFCURVE",
"60 482 OFFCURVE",
"60 551 CURVE SMOOTH",
"60 619 OFFCURVE",
"60 635 OFFCURVE",
"60 635 CURVE",
"60 641 OFFCURVE",
"62 647 OFFCURVE",
"67 652 CURVE SMOOTH",
"72 657 OFFCURVE",
"80 660 OFFCURVE",
"86 660 CURVE SMOOTH",
"478 660 LINE",
"558 719 LINE",
"59 719 LINE SMOOTH",
"42 719 OFFCURVE",
"27 713 OFFCURVE",
"17 703 CURVE SMOOTH",
"6 692 OFFCURVE",
"0 677 OFFCURVE",
"0 661 CURVE SMOOTH",
"0 -62 LINE SMOOTH",
"0 -78 OFFCURVE",
"6 -93 OFFCURVE",
"17 -103 CURVE",
"27 -114 OFFCURVE",
"42 -120 OFFCURVE",
"59 -120 CURVE SMOOTH",
"781 -120 LINE SMOOTH",
"797 -120 OFFCURVE",
"812 -114 OFFCURVE",
"824 -103 CURVE SMOOTH",
"834 -93 OFFCURVE",
"840 -78 OFFCURVE",
"840 -62 CURVE SMOOTH",
"840 437 LINE",
"781 358 LINE"
);
}
);
width = 960;
}
);
unicode = F148;
},
{
glyphname = uniF149;
lastChange = "2014-04-08 16:45:10 +0800";
layers = (
{
layerId = "8F1B665C-F854-4941-BE6D-BEE4265743FC";
name = Regular;
paths = (
{
closed = 1;
nodes = (
"959.003 180.001 LINE SMOOTH",
"959.003 213.001 OFFCURVE",
"933.003 240.001 OFFCURVE",
"899.003 240.001 CURVE SMOOTH",
"783.003 240.001 LINE",
"776.003 240.001 LINE",
"660.002 240.001 LINE SMOOTH",
"626.002 240.001 OFFCURVE",
"599 213 OFFCURVE",
"599.002 180.001 CURVE SMOOTH",
"599 91 LINE",
"536 91 OFFCURVE",
"509 117 OFFCURVE",
"509 151 CURVE SMOOTH",
"509 241 LINE SMOOTH",
"509 286 OFFCURVE",
"493 327 OFFCURVE",
"462 360 CURVE",
"493 394 OFFCURVE",
"509 435 OFFCURVE",
"509 480 CURVE SMOOTH",
"509 551 LINE SMOOTH",
"509 604 OFFCURVE",
"546 630 OFFCURVE",
"599 630 CURVE",
"599.002 540.002 LINE SMOOTH",
"599 507 OFFCURVE",
"626.002 480.002 OFFCURVE",
"660.002 480.002 CURVE SMOOTH",
"899.003 480.002 LINE SMOOTH",
"933.003 480.002 OFFCURVE",
"959.003 507.002 OFFCURVE",
"959.003 540.002 CURVE SMOOTH",
"959.003 654.002 LINE",
"960.003 659.002 OFFCURVE",
"960.003 663.002 OFFCURVE",
"959.003 667.002 CURVE",
"959.003 780.003 LINE SMOOTH",
"959.003 813.003 OFFCURVE",
"933.003 840.003 OFFCURVE",
"899.003 840.003 CURVE SMOOTH",
"660.002 840.003 LINE SMOOTH",
"626.002 840.003 OFFCURVE",
"599 813 OFFCURVE",
"599.002 780.003 CURVE SMOOTH",
"599 690 LINE",
"500 690 OFFCURVE",
"449 639 OFFCURVE",
"449 541 CURVE SMOOTH",
"449 450 LINE SMOOTH",
"449 397 OFFCURVE",
"393 391 OFFCURVE",
"360 391 CURVE",
"360 480.002 LINE SMOOTH",
"360 513.002 OFFCURVE",
"333 540.002 OFFCURVE",
"300 540.002 CURVE",
"60 480.002 LINE",
"27 480.002 OFFCURVE",
"0 453 OFFCURVE",
"0 420 CURVE SMOOTH",
"0 300 LINE SMOOTH",
"0 267 OFFCURVE",
"27 240.001 OFFCURVE",
"60 240.001 CURVE",
"300 180.001 LINE",
"333 180.001 OFFCURVE",
"360 207.001 OFFCURVE",
"360 240.001 CURVE SMOOTH",
"360 331 LINE",
"393 330 OFFCURVE",
"449 304 OFFCURVE",
"449 271 CURVE SMOOTH",
"449 211 LINE SMOOTH",
"449 82 OFFCURVE",
"500 31 OFFCURVE",
"599 31 CURVE",
"599.002 -60 LINE SMOOTH",
"599 -93 OFFCURVE",
"626.002 -120 OFFCURVE",
"660.002 -120 CURVE SMOOTH",
"899.003 -120 LINE SMOOTH",
"933.003 -120 OFFCURVE",
"959.003 -93 OFFCURVE",
"959.003 -60 CURVE SMOOTH",
"959.003 54 LINE",
"960.003 58 OFFCURVE",
"960.003 63 OFFCURVE",
"959.003 67 CURVE"
);
},
{
closed = 1;
nodes = (
"660 754 LINE SMOOTH",
"660 771 OFFCURVE",
"673 784 OFFCURVE",
"690 784 CURVE SMOOTH",
"870 784 LINE SMOOTH",
"887 784 OFFCURVE",
"900 771 OFFCURVE",
"900 754 CURVE SMOOTH",
"900 574 LINE SMOOTH",
"900 557 OFFCURVE",
"887 544 OFFCURVE",
"870 544 CURVE SMOOTH",
"690 544 LINE SMOOTH",
"673 544 OFFCURVE",
"660 557 OFFCURVE",
"660 574 CURVE SMOOTH"
);
},
{
closed = 1;
nodes = (
"300 280 LINE SMOOTH",
"300 258 OFFCURVE",
"282 240 OFFCURVE",
"260 240 CURVE",
"100 270 LINE",
"78 270 OFFCURVE",
"60 288 OFFCURVE",
"60 310 CURVE SMOOTH",
"60 410 LINE SMOOTH",
"60 432 OFFCURVE",
"78 450 OFFCURVE",
"100 450 CURVE",
"260 480 LINE",
"282 480 OFFCURVE",
"300 462 OFFCURVE",
"300 440 CURVE SMOOTH"
);
},
{
closed = 1;
nodes = (
"900 -30 LINE SMOOTH",
"900 -47 OFFCURVE",
"887 -60 OFFCURVE",
"870 -60 CURVE SMOOTH",
"690 -60 LINE SMOOTH",
"673 -60 OFFCURVE",
"660 -47 OFFCURVE",
"660 -30 CURVE SMOOTH",
"660 150 LINE SMOOTH",
"660 167 OFFCURVE",
"673 180 OFFCURVE",
"690 180 CURVE SMOOTH",
"870 180 LINE SMOOTH",
"887 180 OFFCURVE",
"900 167 OFFCURVE",
"900 150 CURVE SMOOTH"
);
}
);
width = 960;
}
);
unicode = F149;
},
{
glyphname = uniF14A;
lastChange = "2014-04-08 17:00:09 +0800";
layers = (
{
layerId = "8F1B665C-F854-4941-BE6D-BEE4265743FC";
name = Regular;
paths = (
{
closed = 1;
nodes = (
"720 673 LINE",
"553 840 LINE",
"0 840 LINE",
"0 -120 LINE",
"720 -120 LINE",
"720 -118 LINE",
"788 -111 OFFCURVE",
"844 -81 OFFCURVE",
"891 -30 CURVE SMOOTH",
"938 21 OFFCURVE",
"960 81 OFFCURVE",
"960 150 CURVE SMOOTH",
"960 219 OFFCURVE",
"938 279 OFFCURVE",
"891 330 CURVE SMOOTH",
"844 381 OFFCURVE",
"788 411 OFFCURVE",
"720 418 CURVE"
);
},
{
closed = 1;
nodes = (
"540 767 LINE",
"647 660 LINE",
"540 660 LINE"
);
},
{
closed = 1;
nodes = (
"60 -60 LINE",
"60 780 LINE",
"480 780 LINE",
"480 600 LINE",
"660 600 LINE",
"660 418 LINE",
"608 413 OFFCURVE",
"561 392 OFFCURVE",
"521 360 CURVE",
"120 360 LINE",
"120 300 LINE",
"465 300 LINE",
"454 281 OFFCURVE",
"444 261 OFFCURVE",
"435 240 CURVE",
"120 240 LINE",
"120 180 LINE",
"422 180 LINE",
"420 171 OFFCURVE",
"420 159 OFFCURVE",
"420 150 CURVE SMOOTH",
"420 64 OFFCURVE",
"454 -6 OFFCURVE",
"521 -60 CURVE"
);
},
{
closed = 1;
nodes = (
"632 -56 OFFCURVE",
"583 -36 OFFCURVE",
"544 4 CURVE SMOOTH",
"504 43 OFFCURVE",
"484 92 OFFCURVE",
"484 150 CURVE SMOOTH",
"484 208 OFFCURVE",
"504 257 OFFCURVE",
"544 296 CURVE SMOOTH",
"583 336 OFFCURVE",
"632 356 OFFCURVE",
"690 356 CURVE SMOOTH",
"748 356 OFFCURVE",
"797 336 OFFCURVE",
"836 296 CURVE SMOOTH",
"876 257 OFFCURVE",
"896 208 OFFCURVE",
"896 150 CURVE SMOOTH",
"896 92 OFFCURVE",
"876 43 OFFCURVE",
"836 4 CURVE SMOOTH",
"797 -36 OFFCURVE",
"748 -56 OFFCURVE",
"690 -56 CURVE SMOOTH"
);
},
{
closed = 1;
nodes = (
"120 480 LINE",
"600 480 LINE",
"600 420 LINE",
"120 420 LINE"
);
},
{
closed = 1;
nodes = (
"720 180 LINE",
"720 300 LINE",
"660 300 LINE",
"660 180 LINE",
"660 120 LINE",
"720 120 LINE",
"840 120 LINE",
"840 180 LINE"
);
}
);
width = 960;
}
);
unicode = F14A;
},
{
glyphname = uniF14B;
lastChange = "2014-04-08 17:02:03 +0800";
layers = (
{
layerId = "8F1B665C-F854-4941-BE6D-BEE4265743FC";
name = Regular;
paths = (
{
closed = 1;
nodes = (
"13 487.002 OFFCURVE",
"0 425 OFFCURVE",
"0 360 CURVE SMOOTH",
"0 230.001 OFFCURVE",
"54 106 OFFCURVE",
"141 21 CURVE SMOOTH",
"226.001 -66 OFFCURVE",
"350 -120 OFFCURVE",
"480.002 -120 CURVE SMOOTH",
"610.002 -120 OFFCURVE",
"734.002 -66 OFFCURVE",
"820.003 21 CURVE SMOOTH",
"906.003 106 OFFCURVE",
"960.003 230.001 OFFCURVE",
"960.003 360 CURVE SMOOTH",
"960.003 491.002 OFFCURVE",
"906.003 614.002 OFFCURVE",
"820.003 700.002 CURVE SMOOTH",
"734.002 786.003 OFFCURVE",
"611.002 840.003 OFFCURVE",
"480.002 840.003 CURVE SMOOTH",
"350 840.003 OFFCURVE",
"226.001 786.003 OFFCURVE",
"141 700.002 CURVE SMOOTH",
"98 657.002 OFFCURVE",
"63 606.002 OFFCURVE",
"38 547.002 CURVE SMOOTH"
);
},
{
closed = 1;
nodes = (
"84 204 OFFCURVE",
"60 295 OFFCURVE",
"60 360 CURVE SMOOTH",
"60 491 OFFCURVE",
"159 660 OFFCURVE",
"270 724 CURVE SMOOTH",
"324 756 OFFCURVE",
"415 780 OFFCURVE",
"480 780 CURVE SMOOTH",
"611 780 OFFCURVE",
"780 681 OFFCURVE",
"844 571 CURVE SMOOTH",
"876 516 OFFCURVE",
"900 425 OFFCURVE",
"900 360 CURVE SMOOTH",
"900 229 OFFCURVE",
"801 61 OFFCURVE",
"691 -4 CURVE SMOOTH",
"636 -36 OFFCURVE",
"545 -60 OFFCURVE",
"480 -60 CURVE SMOOTH",
"349 -60 OFFCURVE",
"181 39 OFFCURVE",
"116 150 CURVE SMOOTH"
);
},
{
closed = 1;
nodes = (
"497 663 OFFCURVE",
"513 656 OFFCURVE",
"525 645 CURVE",
"536 633 OFFCURVE",
"543 617 OFFCURVE",
"543 600 CURVE SMOOTH",
"543 583 OFFCURVE",
"536 567 OFFCURVE",
"525 556 CURVE SMOOTH",
"513 544 OFFCURVE",
"497 537 OFFCURVE",
"480 537 CURVE SMOOTH",
"463 537 OFFCURVE",
"447 544 OFFCURVE",
"436 556 CURVE",
"424 567 OFFCURVE",
"417 583 OFFCURVE",
"417 600 CURVE SMOOTH",
"417 617 OFFCURVE",
"424 633 OFFCURVE",
"436 645 CURVE SMOOTH",
"447 656 OFFCURVE",
"463 663 OFFCURVE",
"480 663 CURVE SMOOTH"
);
},
{
closed = 1;
nodes = (
"392 97 LINE",
"392 119 LINE",
"436 119 LINE",
"436 439 LINE",
"392 439 LINE",
"392 463 LINE",
"524 463 LINE",
"524 119 LINE",
"568 119 LINE",
"568 97 LINE"
);
}
);
width = 960;
}
);
unicode = F14B;
},
{
glyphname = uniF14C;
lastChange = "2014-04-08 17:11:37 +0800";
layers = (
{
layerId = "8F1B665C-F854-4941-BE6D-BEE4265743FC";
name = Regular;
paths = (
{
closed = 1;
nodes = (
"99 2 LINE SMOOTH",
"78 2 OFFCURVE",
"60 20 OFFCURVE",
"60 41 CURVE SMOOTH",
"60 740 LINE SMOOTH",
"60 761 OFFCURVE",
"78 779 OFFCURVE",
"99 779 CURVE SMOOTH",
"861 779 LINE SMOOTH",
"882 779 OFFCURVE",
"900 761 OFFCURVE",
"900 740 CURVE SMOOTH",
"900 41 LINE SMOOTH",
"900 20 OFFCURVE",
"882 2 OFFCURVE",
"861 2 CURVE SMOOTH"
);
},
{
closed = 1;
nodes = (
"138 720 OFFCURVE",
"120 702 OFFCURVE",
"120 680 CURVE SMOOTH",
"120 659 OFFCURVE",
"138 641 OFFCURVE",
"160 641 CURVE SMOOTH",
"181 641 OFFCURVE",
"199 659 OFFCURVE",
"199 680 CURVE SMOOTH",
"199 702 OFFCURVE",
"181 720 OFFCURVE",
"160 720 CURVE SMOOTH"
);
},
{
closed = 1;
nodes = (
"256 720 OFFCURVE",
"238 702 OFFCURVE",
"238 680 CURVE SMOOTH",
"238 659 OFFCURVE",
"256 641 OFFCURVE",
"278 641 CURVE SMOOTH",
"300 641 OFFCURVE",
"317 659 OFFCURVE",
"317 680 CURVE SMOOTH",
"317 702 OFFCURVE",
"300 720 OFFCURVE",
"278 720 CURVE SMOOTH"
);
},
{
closed = 1;
nodes = (
"374 720 OFFCURVE",
"357 702 OFFCURVE",
"357 680 CURVE SMOOTH",
"357 659 OFFCURVE",
"374 641 OFFCURVE",
"396 641 CURVE SMOOTH",
"418 641 OFFCURVE",
"435 659 OFFCURVE",
"435 680 CURVE SMOOTH",
"435 702 OFFCURVE",
"418 720 OFFCURVE",
"396 720 CURVE SMOOTH"
);
},
{
closed = 1;
nodes = (
"821 600 LINE",
"160 600 LINE",
"120 600 LINE",
"120 60 LINE",
"840 60 LINE",
"840 600 LINE"
);
},
{
closed = 1;
nodes = (
"402 420 LINE",
"344 420 LINE",
"271 420 LINE SMOOTH",
"255 420 OFFCURVE",
"241 433 OFFCURVE",
"241 450 CURVE SMOOTH",
"241 467 OFFCURVE",
"255 480 OFFCURVE",
"271 480 CURVE SMOOTH",
"344 480 LINE",
"402 480 LINE",
"691 480 LINE SMOOTH",
"709 480 OFFCURVE",
"721 467 OFFCURVE",
"721 450 CURVE SMOOTH",
"721 433 OFFCURVE",
"709 420 OFFCURVE",
"691 420 CURVE SMOOTH"
);
},
{
closed = 1;
nodes = (
"402 300 LINE",
"344 300 LINE",
"271 300 LINE SMOOTH",
"255 300 OFFCURVE",
"241 313 OFFCURVE",
"241 330 CURVE SMOOTH",
"241 347 OFFCURVE",
"255 360 OFFCURVE",
"271 360 CURVE SMOOTH",
"344 360 LINE",
"402 360 LINE",
"691 360 LINE SMOOTH",
"709 360 OFFCURVE",
"721 347 OFFCURVE",
"721 330 CURVE SMOOTH",
"721 313 OFFCURVE",
"709 300 OFFCURVE",
"691 300 CURVE SMOOTH"
);
},
{
closed = 1;
nodes = (
"402 180 LINE",
"344 180 LINE",
"271 180 LINE SMOOTH",
"255 180 OFFCURVE",
"241 193 OFFCURVE",
"241 210 CURVE SMOOTH",
"241 227 OFFCURVE",
"255 240 OFFCURVE",
"271 240 CURVE SMOOTH",
"344 240 LINE",
"402 240 LINE",
"691 240 LINE SMOOTH",
"709 240 OFFCURVE",
"721 227 OFFCURVE",
"721 210 CURVE SMOOTH",
"721 193 OFFCURVE",
"709 180 OFFCURVE",
"691 180 CURVE SMOOTH"
);
}
);
width = 960;
}
);
unicode = F14C;
},
{
glyphname = uniF14D;
lastChange = "2014-04-08 18:00:17 +0800";
layers = (
{
layerId = "8F1B665C-F854-4941-BE6D-BEE4265743FC";
name = Regular;
paths = (
{
closed = 1;
nodes = (
"747 60 LINE SMOOTH",
"760 60 OFFCURVE",
"760 60 OFFCURVE",
"760 47 CURVE SMOOTH",
"760 -48 LINE SMOOTH",
"760 -60 OFFCURVE",
"760 -60 OFFCURVE",
"747 -60 CURVE SMOOTH",
"213 -60 LINE SMOOTH",
"200 -60 OFFCURVE",
"200 -60 OFFCURVE",
"200 -48 CURVE SMOOTH",
"200 47 LINE SMOOTH",
"200 60 OFFCURVE",
"200 60 OFFCURVE",
"213 60 CURVE SMOOTH"
);
},
{
closed = 1;
nodes = (
"540 420 LINE",
"540 210 LINE",
"420 210 LINE",
"420 420 LINE",
"200 420 LINE",
"200 540 LINE",
"420 540 LINE",
"420 770 LINE",
"540 770 LINE",
"540 540 LINE",
"760 540 LINE",
"760 420 LINE"
);
}
);
width = 960;
}
);
unicode = F14D;
},
{
glyphname = uniF14E;
lastChange = "2014-04-08 17:15:08 +0800";
layers = (
{
layerId = "8F1B665C-F854-4941-BE6D-BEE4265743FC";
name = Regular;
paths = (
{
closed = 1;
nodes = (
"60 60 LINE SMOOTH",
"60 -10 OFFCURVE",
"103 -60 OFFCURVE",
"170 -60 CURVE SMOOTH",
"780 -60 LINE SMOOTH",
"849 -60 OFFCURVE",
"900 -9 OFFCURVE",
"900 60 CURVE SMOOTH",
"900 660 LINE SMOOTH",
"900 729 OFFCURVE",
"849 780 OFFCURVE",
"780 780 CURVE SMOOTH",
"660 780 LINE",
"660 720 LINE",
"780 720 LINE SMOOTH",
"813 720 OFFCURVE",
"840 693 OFFCURVE",
"840 660 CURVE SMOOTH",
"840 60 LINE SMOOTH",
"840 27 OFFCURVE",
"813 0 OFFCURVE",
"780 0 CURVE SMOOTH",
"180 0 LINE SMOOTH",
"147 0 OFFCURVE",
"120 27 OFFCURVE",
"120 60 CURVE SMOOTH",
"120 660 LINE SMOOTH",
"120 693 OFFCURVE",
"147 720 OFFCURVE",
"180 720 CURVE SMOOTH",
"300 720 LINE",
"300 780 LINE",
"170 780 LINE SMOOTH",
"101 780 OFFCURVE",
"60 729 OFFCURVE",
"60 660 CURVE SMOOTH"
);
},
{
closed = 1;
nodes = (
"420 840.003 LINE",
"420 600.002 LINE",
"300 600.002 LINE",
"480.002 360 LINE",
"660.002 600.002 LINE",
"540.002 600.002 LINE",
"540.002 840.003 LINE"
);
},
{
closed = 1;
nodes = (
"660 240 LINE",
"300 240 LINE",
"180 60 LINE",
"780 60 LINE"
);
}
);
width = 960;
}
);
unicode = F14E;
},
{
glyphname = uniF14F;
lastChange = "2014-04-08 17:18:13 +0800";
layers = (
{
layerId = "8F1B665C-F854-4941-BE6D-BEE4265743FC";
name = Regular;
paths = (
{
closed = 1;
nodes = (
"720 720 LINE SMOOTH",
"789 720 OFFCURVE",
"840 679 OFFCURVE",
"840 610 CURVE SMOOTH",
"840.003 71 LINE",
"911.003 95 OFFCURVE",
"900 162 OFFCURVE",
"900 240 CURVE SMOOTH",
"900 660 LINE SMOOTH",
"900 729 OFFCURVE",
"839 780 OFFCURVE",
"780 780 CURVE SMOOTH",
"360 780 LINE SMOOTH",
"283 780 OFFCURVE",
"216 767 OFFCURVE",
"191.001 720.002 CURVE"
);
},
{
closed = 1;
nodes = (
"0 0 LINE SMOOTH",
"0 -70 OFFCURVE",
"51 -120 OFFCURVE",
"120 -120 CURVE SMOOTH",
"660 -120 LINE SMOOTH",
"729 -120 OFFCURVE",
"780 -70 OFFCURVE",
"780 0 CURVE SMOOTH",
"780 540 LINE SMOOTH",
"780 609 OFFCURVE",
"729 660 OFFCURVE",
"660 660 CURVE SMOOTH",
"120 660 LINE SMOOTH",
"51 660 OFFCURVE",
"0 609 OFFCURVE",
"0 540 CURVE SMOOTH"
);
},
{
closed = 1;
nodes = (
"60 540 LINE SMOOTH",
"60 573 OFFCURVE",
"87 600 OFFCURVE",
"120 600 CURVE SMOOTH",
"660 600 LINE SMOOTH",
"693 600 OFFCURVE",
"720 573 OFFCURVE",
"720 540 CURVE SMOOTH",
"720 0 LINE SMOOTH",
"720 -34 OFFCURVE",
"693 -60 OFFCURVE",
"660 -60 CURVE SMOOTH",
"120 -60 LINE SMOOTH",
"87 -60 OFFCURVE",
"60 -34 OFFCURVE",
"60 0 CURVE SMOOTH"
);
}
);
width = 960;
}
);
unicode = F14F;
},
{
glyphname = uniF150;
layers = (
{
layerId = "8F1B665C-F854-4941-BE6D-BEE4265743FC";
name = Regular;
paths = (
{
closed = 1;
nodes = (
"867.003 299 LINE",
"867.003 321 LINE",
"870.003 347 OFFCURVE",
"870.003 373 OFFCURVE",
"867.003 399 CURVE",
"867.003 422 LINE",
"960.003 483.002 LINE",
"954.003 510.002 OFFCURVE",
"948.003 531.002 OFFCURVE",
"940.003 550.002 CURVE SMOOTH",
"931.003 570.002 OFFCURVE",
"922.003 589.002 OFFCURVE",
"905.003 614.002 CURVE",
"792.003 588.002 LINE",
"783.003 608.002 LINE",
"766.002 628.002 OFFCURVE",
"748.002 646.002 OFFCURVE",
"728.002 662.002 CURVE",
"708.002 672.002 LINE",
"734.002 784.003 LINE",
"690.002 813.003 OFFCURVE",
"651.002 829.003 OFFCURVE",
"602.002 840.003 CURVE",
"541.002 746.002 LINE",
"519.002 746.002 LINE",
"493.002 750.002 OFFCURVE",
"467 750.002 OFFCURVE",
"441 747.002 CURVE",
"419 747.002 LINE",
"358 840.003 LINE",
"330 834.003 OFFCURVE",
"310 828.003 OFFCURVE",
"290 820.003 CURVE",
"270 811.003 OFFCURVE",
"252.001 802.003 OFFCURVE",
"226.001 785.003 CURVE",
"252.001 672.002 LINE",
"233.001 663.002 LINE",
"212.001 646.002 OFFCURVE",
"194.001 628.002 OFFCURVE",
"178.001 608.002 CURVE",
"168.001 588.002 LINE",
"56 614.002 LINE",
"28 570.002 OFFCURVE",
"11 531.002 OFFCURVE",
"0 482.002 CURVE",
"95 421 LINE",
"93 399 LINE SMOOTH",
"90 373 OFFCURVE",
"90 347 OFFCURVE",
"93 321 CURVE SMOOTH",
"95 299 LINE",
"0 238.001 LINE",
"6 210.001 OFFCURVE",
"12 190.001 OFFCURVE",
"20 170.001 CURVE",
"29 150 OFFCURVE",
"38 132 OFFCURVE",
"56 106 CURVE",
"168.001 132 LINE",
"178.001 113 LINE",
"194.001 92 OFFCURVE",
"212.001 74 OFFCURVE",
"233.001 58 CURVE",
"252.001 48 LINE",
"226.001 -64 LINE",
"270 -92 OFFCURVE",
"309 -109 OFFCURVE",
"358 -120 CURVE",
"419 -25 LINE",
"441 -27 LINE SMOOTH",
"467 -30 OFFCURVE",
"493.002 -30 OFFCURVE",
"519.002 -27 CURVE SMOOTH",
"542.002 -25 LINE",
"603.002 -120 LINE",
"630.002 -114 OFFCURVE",
"651.002 -108 OFFCURVE",
"670.002 -100 CURVE SMOOTH",
"690.002 -91 OFFCURVE",
"709.002 -82 OFFCURVE",
"734.002 -64 CURVE",
"708.002 48 LINE",
"728.002 58 LINE",
"748.002 74 OFFCURVE",
"766.002 92 OFFCURVE",
"782.003 113 CURVE",
"792.003 132 LINE",
"904.003 106 LINE",
"933.003 150 OFFCURVE",
"949.003 189.001 OFFCURVE",
"960.003 238.001 CURVE"
);
},
{
closed = 1;
nodes = (
"354 120 OFFCURVE",
"240.001 234.001 OFFCURVE",
"240.001 360 CURVE SMOOTH",
"240.001 486.002 OFFCURVE",
"354 600.002 OFFCURVE",
"480.002 600.002 CURVE SMOOTH",
"606.002 600.002 OFFCURVE",
"720.002 486.002 OFFCURVE",
"720.002 360 CURVE SMOOTH",
"720.002 234.001 OFFCURVE",
"606.002 120 OFFCURVE",
"480.002 120 CURVE SMOOTH"
);
}
);
width = 960;
}
);
unicode = F150;
},
{
glyphname = uniF151;
lastChange = "2014-04-03 11:35:16 +0800";
layers = (
{
layerId = "8F1B665C-F854-4941-BE6D-BEE4265743FC";
name = Regular;
paths = (
{
closed = 1;
nodes = (
"880 640 LINE",
"80 640 LINE",
"80 520 LINE",
"880 520 LINE"
);
},
{
closed = 1;
nodes = (
"880 400 LINE",
"80 400 LINE",
"80 280 LINE",
"880 280 LINE"
);
},
{
closed = 1;
nodes = (
"880 160 LINE",
"80 160 LINE",
"80 40 LINE",
"880 40 LINE"
);
}
);
width = 960;
}
);
unicode = F151;
},
{
glyphname = uniF152;
lastChange = "2014-05-06 12:54:30 +0800";
layers = (
{
layerId = "8F1B665C-F854-4941-BE6D-BEE4265743FC";
name = Regular;
paths = (
{
closed = 1;
nodes = (
"712 -120 LINE SMOOTH",
"684 -120 OFFCURVE",
"662 -98 OFFCURVE",
"662 -70 CURVE SMOOTH",
"662 -43 OFFCURVE",
"684 -21 OFFCURVE",
"712 -21 CURVE SMOOTH",
"790 -21 LINE",
"544 226 LINE",
"544 226 LINE",
"535 235 OFFCURVE",
"530 247 OFFCURVE",
"530 261 CURVE SMOOTH",
"530 288 OFFCURVE",
"552 310 OFFCURVE",
"579 310 CURVE SMOOTH",
"593 310 OFFCURVE",
"605 305 OFFCURVE",
"614 296 CURVE",
"614 296 LINE",
"861 50 LINE",
"861 128 LINE SMOOTH",
"861 156 OFFCURVE",
"883 178 OFFCURVE",
"910 178 CURVE SMOOTH",
"938 178 OFFCURVE",
"960 156 OFFCURVE",
"960 128 CURVE SMOOTH",
"960 -70 LINE SMOOTH",
"960 -98 OFFCURVE",
"938 -120 OFFCURVE",
"910 -120 CURVE SMOOTH"
);
},
{
closed = 1;
nodes = (
"883 542 OFFCURVE",
"861 564 OFFCURVE",
"861 592 CURVE SMOOTH",
"861 670 LINE",
"614 424 LINE",
"614 424 LINE",
"605 415 OFFCURVE",
"593 410 OFFCURVE",
"579 410 CURVE SMOOTH",
"552 410 OFFCURVE",
"530 432 OFFCURVE",
"530 459 CURVE SMOOTH",
"530 473 OFFCURVE",
"535 485 OFFCURVE",
"544 494 CURVE",
"544 494 LINE",
"790 741 LINE",
"712 741 LINE SMOOTH",
"684 741 OFFCURVE",
"662 763 OFFCURVE",
"662 790 CURVE SMOOTH",
"662 818 OFFCURVE",
"684 840 OFFCURVE",
"712 840 CURVE SMOOTH",
"910 840 LINE SMOOTH",
"938 840 OFFCURVE",
"960 818 OFFCURVE",
"960 790 CURVE SMOOTH",
"960 592 LINE SMOOTH",
"960 564 OFFCURVE",
"938 542 OFFCURVE",
"910 542 CURVE SMOOTH"
);
},
{
closed = 1;
nodes = (
"170 -21 LINE",
"248 -21 LINE SMOOTH",
"276 -21 OFFCURVE",
"298 -43 OFFCURVE",
"298 -70 CURVE SMOOTH",
"298 -98 OFFCURVE",
"276 -120 OFFCURVE",
"248 -120 CURVE SMOOTH",
"50 -120 LINE SMOOTH",
"22 -120 OFFCURVE",
"0 -98 OFFCURVE",
"0 -70 CURVE SMOOTH",
"0 128 LINE SMOOTH",
"0 156 OFFCURVE",
"22 178 OFFCURVE",
"50 178 CURVE SMOOTH",
"77 178 OFFCURVE",
"99 156 OFFCURVE",
"99 128 CURVE SMOOTH",
"99 50 LINE",
"346 296 LINE",
"346 296 LINE",
"355 305 OFFCURVE",
"367 310 OFFCURVE",
"381 310 CURVE SMOOTH",
"408 310 OFFCURVE",
"430 288 OFFCURVE",
"430 261 CURVE SMOOTH",
"430 247 OFFCURVE",
"425 235 OFFCURVE",
"416 226 CURVE SMOOTH"
);
},
{
closed = 1;
nodes = (
"367 410 OFFCURVE",
"355 415 OFFCURVE",
"346 424 CURVE",
"346 424 LINE",
"99 670 LINE",
"99 592 LINE SMOOTH",
"99 564 OFFCURVE",
"77 542 OFFCURVE",
"50 542 CURVE SMOOTH",
"22 542 OFFCURVE",
"0 564 OFFCURVE",
"0 592 CURVE SMOOTH",
"0 790 LINE SMOOTH",
"0 818 OFFCURVE",
"22 840 OFFCURVE",
"50 840 CURVE SMOOTH",
"248 840 LINE SMOOTH",
"276 840 OFFCURVE",
"298 818 OFFCURVE",
"298 790 CURVE SMOOTH",
"298 763 OFFCURVE",
"276 741 OFFCURVE",
"248 741 CURVE SMOOTH",
"170 741 LINE",
"416 494 LINE",
"416 494 LINE",
"425 485 OFFCURVE",
"430 473 OFFCURVE",
"430 459 CURVE SMOOTH",
"430 432 OFFCURVE",
"408 410 OFFCURVE",
"381 410 CURVE SMOOTH"
);
}
);
width = 960;
}
);
unicode = F152;
},
{
glyphname = uniF153;
lastChange = "2014-05-08 18:10:08 +0800";
layers = (
{
layerId = "8F1B665C-F854-4941-BE6D-BEE4265743FC";
name = Regular;
paths = (
{
closed = 1;
nodes = (
"328 405 LINE",
"238 358 LINE",
"600 160 LINE",
"960 358 LINE",
"861 401 LINE",
"600 260 LINE SMOOTH"
);
},
{
closed = 1;
nodes = (
"327 183 LINE",
"240 139 LINE",
"600 -60 LINE",
"960 139 LINE",
"861 183 LINE",
"600 36 LINE"
);
},
{
closed = 1;
nodes = (
"487 739 LINE",
"591 660 LINE",
"380 507 LINE",
"600 385 LINE",
"960 583 LINE",
"600 791 LINE"
);
},
{
closed = 1;
nodes = (
"240 601 LINE",
"214 600 OFFCURVE",
"194 597 OFFCURVE",
"170 593 CURVE SMOOTH",
"147 587 OFFCURVE",
"123 579 OFFCURVE",
"100 570 CURVE SMOOTH",
"78 560 OFFCURVE",
"58 547 OFFCURVE",
"40 530 CURVE SMOOTH",
"23 514 OFFCURVE",
"9 495 OFFCURVE",
"-1 473 CURVE",
"1 510 OFFCURVE",
"8 544 OFFCURVE",
"17 575 CURVE SMOOTH",
"27 605 OFFCURVE",
"40 632 OFFCURVE",
"59 657 CURVE SMOOTH",
"77 681 OFFCURVE",
"103 702 OFFCURVE",
"134 715 CURVE SMOOTH",
"166 730 OFFCURVE",
"197 739 OFFCURVE",
"240 741 CURVE",
"240 840 LINE",
"480 660 LINE",
"240 480 LINE"
);
}
);
width = 960;
}
);
unicode = F153;
},
{
glyphname = uniF154;
lastChange = "2014-05-08 18:11:37 +0800";
layers = (
{
layerId = "8F1B665C-F854-4941-BE6D-BEE4265743FC";
name = Regular;
paths = (
{
closed = 1;
nodes = (
"959 362 LINE",
"959 362 LINE"
);
},
{
closed = 1;
nodes = (
"479 -120 LINE SMOOTH",
"239 -120 OFFCURVE",
"60 77 OFFCURVE",
"60 317 CURVE SMOOTH",
"60 499 OFFCURVE",
"156 655 OFFCURVE",
"314 720 CURVE",
"314 719 LINE",
"319 721 OFFCURVE",
"324 722 OFFCURVE",
"329 722 CURVE SMOOTH",
"354 722 OFFCURVE",
"374 702 OFFCURVE",
"374 677 CURVE SMOOTH",
"374 657 OFFCURVE",
"361 641 OFFCURVE",
"344 635 CURVE",
"344 635 LINE",
"221 582 OFFCURVE",
"150 460 OFFCURVE",
"150 317 CURVE SMOOTH",
"150 126 OFFCURVE",
"288 -30 OFFCURVE",
"479 -30 CURVE SMOOTH",
"670 -30 OFFCURVE",
"810 126 OFFCURVE",
"810 317 CURVE SMOOTH",
"810 460 OFFCURVE",
"737 582 OFFCURVE",
"614 635 CURVE",
"614 635 LINE",
"597 641 OFFCURVE",
"584 657 OFFCURVE",
"584 677 CURVE SMOOTH",
"584 702 OFFCURVE",
"604 722 OFFCURVE",
"629 722 CURVE SMOOTH",
"634 722 OFFCURVE",
"639 721 OFFCURVE",
"644 719 CURVE",
"644 720 LINE",
"802 655 OFFCURVE",
"900 499 OFFCURVE",
"900 317 CURVE SMOOTH",
"900 77 OFFCURVE",
"719 -120 OFFCURVE",
"479 -120 CURVE SMOOTH"
);
},
{
closed = 1;
nodes = (
"455 360 OFFCURVE",
"434 380 OFFCURVE",
"434 405 CURVE SMOOTH",
"434 658 LINE",
"434 658 LINE",
"434 749 LINE",
"434 749 LINE",
"434 797 LINE SMOOTH",
"434 822 OFFCURVE",
"455 842 OFFCURVE",
"480 842 CURVE SMOOTH",
"505 842 OFFCURVE",
"524 822 OFFCURVE",
"524 797 CURVE SMOOTH",
"524 662 LINE",
"524 572 LINE",
"524 405 LINE SMOOTH",
"524 380 OFFCURVE",
"505 360 OFFCURVE",
"480 360 CURVE SMOOTH"
);
}
);
width = 960;
}
);
unicode = F154;
},
{
glyphname = uniF155;
lastChange = "2014-05-08 19:06:47 +0800";
layers = (
{
layerId = "8F1B665C-F854-4941-BE6D-BEE4265743FC";
name = Regular;
paths = (
{
closed = 1;
nodes = (
"895 117 OFFCURVE",
"960 232 OFFCURVE",
"960 360 CURVE SMOOTH",
"960 592 OFFCURVE",
"745 781 OFFCURVE",
"480 781 CURVE SMOOTH",
"215 781 OFFCURVE",
"0 592 OFFCURVE",
"0 360 CURVE SMOOTH",
"0 127 OFFCURVE",
"215 -61 OFFCURVE",
"480 -61 CURVE SMOOTH",
"535 -61 OFFCURVE",
"588 -53 OFFCURVE",
"637 -39 CURVE",
"676 -63 OFFCURVE",
"724 -79 OFFCURVE",
"781 -89 CURVE SMOOTH",
"848 -101 OFFCURVE",
"896 -101 OFFCURVE",
"936 -93 CURVE",
"875 -59 OFFCURVE",
"827 -13 OFFCURVE",
"792 40 CURVE"
);
},
{
closed = 1;
nodes = (
"685 59 LINE",
"716 12 LINE",
"701 17 OFFCURVE",
"689 24 OFFCURVE",
"677 31 CURVE SMOOTH",
"647 48 LINE",
"613 37 LINE SMOOTH",
"571 25 OFFCURVE",
"525 19 OFFCURVE",
"480 19 CURVE SMOOTH",
"260 19 OFFCURVE",
"80 172 OFFCURVE",
"80 360 CURVE SMOOTH",
"80 548 OFFCURVE",
"260 701 OFFCURVE",
"480 701 CURVE SMOOTH",
"700 701 OFFCURVE",
"880 548 OFFCURVE",
"880 360 CURVE SMOOTH",
"880 311 OFFCURVE",
"868 263 OFFCURVE",
"844 219 CURVE SMOOTH",
"821 175 OFFCURVE",
"787 136 OFFCURVE",
"744 104 CURVE SMOOTH"
);
},
{
closed = 1;
nodes = (
"589 433 OFFCURVE",
"583 409 OFFCURVE",
"567 388 CURVE SMOOTH",
"557 376 OFFCURVE",
"539 359 OFFCURVE",
"511 336 CURVE SMOOTH",
"485 316 OFFCURVE",
"468 299 OFFCURVE",
"460 285 CURVE SMOOTH",
"453 275 OFFCURVE",
"448 271 OFFCURVE",
"444 272 CURVE SMOOTH",
"433 273 OFFCURVE",
"417 287 OFFCURVE",
"396 312 CURVE",
"395 313 OFFCURVE",
"395 315 OFFCURVE",
"395 317 CURVE SMOOTH",
"395 323 OFFCURVE",
"397 329 OFFCURVE",
"403 336 CURVE SMOOTH",
"409 344 OFFCURVE",
"428 361 OFFCURVE",
"459 388 CURVE SMOOTH",
"489 413 OFFCURVE",
"511 433 OFFCURVE",
"521 448 CURVE SMOOTH",
"539 471 OFFCURVE",
"544 488 OFFCURVE",
"533 501 CURVE SMOOTH",
"528 508 OFFCURVE",
"520 512 OFFCURVE",
"507 512 CURVE SMOOTH",
"485 512 OFFCURVE",
"456 501 OFFCURVE",
"421 481 CURVE",
"420 481 OFFCURVE",
"420 481 OFFCURVE",
"419 481 CURVE SMOOTH",
"413 481 OFFCURVE",
"407 487 OFFCURVE",
"396 497 CURVE SMOOTH",
"389 505 OFFCURVE",
"383 515 OFFCURVE",
"377 523 CURVE SMOOTH",
"375 527 OFFCURVE",
"376 532 OFFCURVE",
"380 537 CURVE SMOOTH",
"384 543 OFFCURVE",
"397 549 OFFCURVE",
"417 557 CURVE SMOOTH",
"443 567 OFFCURVE",
"464 571 OFFCURVE",
"485 571 CURVE SMOOTH",
"503 571 OFFCURVE",
"519 568 OFFCURVE",
"531 560 CURVE SMOOTH",
"564 540 OFFCURVE",
"584 507 OFFCURVE",
"588 460 CURVE SMOOTH"
);
},
{
closed = 1;
nodes = (
"481 199 OFFCURVE",
"481 197 OFFCURVE",
"481 196 CURVE SMOOTH",
"481 193 OFFCURVE",
"480 189 OFFCURVE",
"475 185 CURVE SMOOTH",
"471 181 OFFCURVE",
"468 177 OFFCURVE",
"468 175 CURVE SMOOTH",
"465 168 OFFCURVE",
"463 161 OFFCURVE",
"461 155 CURVE SMOOTH",
"457 145 OFFCURVE",
"453 140 OFFCURVE",
"448 141 CURVE SMOOTH",
"435 144 OFFCURVE",
"416 157 OFFCURVE",
"395 180 CURVE SMOOTH",
"393 181 OFFCURVE",
"392 183 OFFCURVE",
"393 184 CURVE",
"393 185 OFFCURVE",
"395 187 OFFCURVE",
"395 188 CURVE",
"397 195 OFFCURVE",
"400 200 OFFCURVE",
"403 205 CURVE",
"405 213 OFFCURVE",
"407 220 OFFCURVE",
"407 227 CURVE SMOOTH",
"405 231 OFFCURVE",
"408 233 OFFCURVE",
"412 236 CURVE SMOOTH",
"416 239 OFFCURVE",
"421 240 OFFCURVE",
"427 240 CURVE SMOOTH",
"433 240 OFFCURVE",
"444 235 OFFCURVE",
"457 224 CURVE SMOOTH",
"471 213 OFFCURVE",
"479 205 OFFCURVE",
"480 200 CURVE"
);
}
);
width = 960;
}
);
unicode = F155;
},
{
glyphname = uniF156;
lastChange = "2014-05-21 11:26:17 +0800";
layers = (
{
layerId = "8F1B665C-F854-4941-BE6D-BEE4265743FC";
name = Regular;
paths = (
{
closed = 1;
nodes = (
"447 288 OFFCURVE",
"428 242 OFFCURVE",
"390 204 CURVE SMOOTH",
"352 166 OFFCURVE",
"307 147 OFFCURVE",
"253 147 CURVE SMOOTH",
"198 147 OFFCURVE",
"153 166 OFFCURVE",
"115 204 CURVE SMOOTH",
"77 242 OFFCURVE",
"58 288 OFFCURVE",
"58 342 CURVE SMOOTH",
"58 393 OFFCURVE",
"75 437 OFFCURVE",
"110 475 CURVE SMOOTH",
"144 512 OFFCURVE",
"187 532 OFFCURVE",
"238 537 CURVE",
"238 447 LINE SMOOTH",
"238 434 OFFCURVE",
"244 425 OFFCURVE",
"254 421 CURVE",
"258 418 OFFCURVE",
"263 417 OFFCURVE",
"267 417 CURVE SMOOTH",
"273 417 OFFCURVE",
"279 418 OFFCURVE",
"285 422 CURVE",
"465 543 LINE SMOOTH",
"474 548 OFFCURVE",
"478 557 OFFCURVE",
"478 567 CURVE SMOOTH",
"478 578 OFFCURVE",
"474 587 OFFCURVE",
"465 592 CURVE SMOOTH",
"285 713 LINE",
"275 718 OFFCURVE",
"264 718 OFFCURVE",
"254 714 CURVE",
"244 708 OFFCURVE",
"238 699 OFFCURVE",
"238 688 CURVE SMOOTH",
"238 597 LINE",
"170 592 OFFCURVE",
"113 566 OFFCURVE",
"68 518 CURVE SMOOTH",
"21 468 OFFCURVE",
"-3 409 OFFCURVE",
"-3 342 CURVE SMOOTH",
"-3 271 OFFCURVE",
"22 211 OFFCURVE",
"72 161 CURVE SMOOTH",
"122 112 OFFCURVE",
"182 87 OFFCURVE",
"253 87 CURVE SMOOTH",
"323 87 OFFCURVE",
"383 112 OFFCURVE",
"433 161 CURVE SMOOTH",
"483 211 OFFCURVE",
"508 271 OFFCURVE",
"508 342 CURVE SMOOTH",
"508 396 OFFCURVE",
"527 441 OFFCURVE",
"565 480 CURVE SMOOTH",
"603 518 OFFCURVE",
"648 537 OFFCURVE",
"702 537 CURVE SMOOTH",
"757 537 OFFCURVE",
"802 518 OFFCURVE",
"840 480 CURVE SMOOTH",
"878 441 OFFCURVE",
"897 396 OFFCURVE",
"897 342 CURVE SMOOTH",
"897 290 OFFCURVE",
"880 246 OFFCURVE",
"846 210 CURVE SMOOTH",
"811 172 OFFCURVE",
"768 151 OFFCURVE",
"719 147 CURVE",
"719 236 LINE SMOOTH",
"719 249 OFFCURVE",
"713 258 OFFCURVE",
"702 264 CURVE",
"692 268 OFFCURVE",
"682 268 OFFCURVE",
"672 261 CURVE SMOOTH",
"491 141 LINE SMOOTH",
"483 135 OFFCURVE",
"478 126 OFFCURVE",
"478 116 CURVE SMOOTH",
"478 106 OFFCURVE",
"483 97 OFFCURVE",
"491 91 CURVE SMOOTH",
"672 -29 LINE SMOOTH",
"676 -32 OFFCURVE",
"682 -33 OFFCURVE",
"688 -33 CURVE SMOOTH",
"692 -33 OFFCURVE",
"698 -32 OFFCURVE",
"702 -31 CURVE",
"713 -25 OFFCURVE",
"719 -16 OFFCURVE",
"719 -4 CURVE SMOOTH",
"719 87 LINE",
"785 91 OFFCURVE",
"842 118 OFFCURVE",
"889 167 CURVE SMOOTH",
"934 216 OFFCURVE",
"958 274 OFFCURVE",
"958 342 CURVE SMOOTH",
"958 412 OFFCURVE",
"933 472 OFFCURVE",
"883 522 CURVE SMOOTH",
"833 572 OFFCURVE",
"773 597 OFFCURVE",
"702 597 CURVE SMOOTH",
"632 597 OFFCURVE",
"572 572 OFFCURVE",
"522 522 CURVE SMOOTH",
"472 472 OFFCURVE",
"447 412 OFFCURVE",
"447 342 CURVE SMOOTH"
);
}
);
width = 960;
}
);
unicode = F156;
},
{
glyphname = uniF157;
lastChange = "2014-05-30 17:35:38 +0800";
layers = (
{
layerId = "8F1B665C-F854-4941-BE6D-BEE4265743FC";
name = Regular;
paths = (
{
closed = 1;
nodes = (
"540 420 LINE",
"840 420 LINE",
"840 720 LINE",
"540 720 LINE"
);
},
{
closed = 1;
nodes = (
"120 0 LINE",
"420 0 LINE",
"420 300 LINE",
"120 300 LINE"
);
},
{
closed = 1;
nodes = (
"120 420 LINE",
"420 420 LINE",
"420 720 LINE",
"120 720 LINE"
);
},
{
closed = 1;
nodes = (
"540 0 LINE",
"840 0 LINE",
"840 300 LINE",
"540 300 LINE"
);
}
);
width = 960;
}
);
unicode = F157;
},
{
glyphname = uniF160;
lastChange = "2014-06-18 18:06:41 +0800";
layers = (
{
layerId = "8F1B665C-F854-4941-BE6D-BEE4265743FC";
name = Regular;
paths = (
{
closed = 1;
nodes = (
"960 275 OFFCURVE",
"960 275 OFFCURVE",
"960 274 CURVE SMOOTH",
"960 274 OFFCURVE",
"960 274 OFFCURVE",
"960 274 CURVE SMOOTH",
"960 274 OFFCURVE",
"960 273 OFFCURVE",
"960 273 CURVE SMOOTH",
"960 273 OFFCURVE",
"960 272 OFFCURVE",
"959 272 CURVE",
"959 272 OFFCURVE",
"959 272 OFFCURVE",
"959 272 CURVE",
"958 264 OFFCURVE",
"955 257 OFFCURVE",
"949 252 CURVE",
"939 240 OFFCURVE",
"928 228 OFFCURVE",
"917 217 CURVE SMOOTH",
"858 156 OFFCURVE",
"789 102 OFFCURVE",
"715 63 CURVE SMOOTH",
"667 38 OFFCURVE",
"616 18 OFFCURVE",
"563 8 CURVE SMOOTH",
"504 -2 OFFCURVE",
"446 -2 OFFCURVE",
"388 11 CURVE SMOOTH",
"342 21 OFFCURVE",
"298 38 OFFCURVE",
"256 59 CURVE",
"257 61 LINE",
"377 139 LINE",
"406 118 OFFCURVE",
"442 106 OFFCURVE",
"482 106 CURVE SMOOTH",
"581 106 OFFCURVE",
"661 186 OFFCURVE",
"661 285 CURVE SMOOTH",
"661 298 OFFCURVE",
"659 311 OFFCURVE",
"657 323 CURVE",
"815 427 LINE",
"825 420 OFFCURVE",
"836 412 OFFCURVE",
"846 403 CURVE SMOOTH",
"883 373 OFFCURVE",
"919 340 OFFCURVE",
"949 303 CURVE",
"955 298 OFFCURVE",
"958 291 OFFCURVE",
"959 283 CURVE",
"959 283 OFFCURVE",
"959 283 OFFCURVE",
"959 283 CURVE",
"959 283 OFFCURVE",
"960 282 OFFCURVE",
"960 282 CURVE SMOOTH",
"960 282 OFFCURVE",
"960 281 OFFCURVE",
"960 281 CURVE",
"960 281 OFFCURVE",
"960 281 OFFCURVE",
"960 281 CURVE SMOOTH",
"960 280 OFFCURVE",
"960 280 OFFCURVE",
"960 279 CURVE SMOOTH",
"960 279 OFFCURVE",
"960 278 OFFCURVE",
"960 277 CURVE SMOOTH",
"960 277 OFFCURVE",
"960 276 OFFCURVE",
"960 276 CURVE SMOOTH"
);
},
{
closed = 1;
nodes = (
"476 195 OFFCURVE",
"470 196 OFFCURVE",
"464 197 CURVE",
"569 266 LINE",
"560 226 OFFCURVE",
"525 195 OFFCURVE",
"482 195 CURVE SMOOTH"
);
},
{
closed = 1;
nodes = (
"98 5 LINE",
"98 5 LINE",
"98 5 LINE",
"94 2 OFFCURVE",
"90 1 OFFCURVE",
"85 1 CURVE SMOOTH",
"73 1 OFFCURVE",
"63 11 OFFCURVE",
"63 23 CURVE SMOOTH",
"63 31 OFFCURVE",
"67 38 OFFCURVE",
"73 42 CURVE",
"73 42 LINE",
"850 550 LINE",
"850 550 LINE",
"850 550 LINE",
"854 553 OFFCURVE",
"858 554 OFFCURVE",
"863 554 CURVE SMOOTH",
"875 554 OFFCURVE",
"885 544 OFFCURVE",
"885 532 CURVE SMOOTH",
"885 524 OFFCURVE",
"881 517 OFFCURVE",
"875 513 CURVE SMOOTH"
);
},
{
closed = 1;
nodes = (
"490 375 OFFCURVE",
"498 373 OFFCURVE",
"506 371 CURVE",
"393 295 LINE",
"398 340 OFFCURVE",
"436 375 OFFCURVE",
"482 375 CURVE SMOOTH"
);
},
{
closed = 1;
nodes = (
"560 450 OFFCURVE",
"523 464 OFFCURVE",
"482 464 CURVE SMOOTH",
"382 464 OFFCURVE",
"302 384 OFFCURVE",
"302 285 CURVE SMOOTH",
"302 269 OFFCURVE",
"304 254 OFFCURVE",
"308 239 CURVE",
"153 136 LINE",
"145 130 LINE",
"135 137 OFFCURVE",
"126 144 OFFCURVE",
"117 152 CURVE SMOOTH",
"80 182 OFFCURVE",
"44 215 OFFCURVE",
"13 252 CURVE SMOOTH",
"0 268 OFFCURVE",
"0 287 OFFCURVE",
"13 303 CURVE SMOOTH",
"23 315 OFFCURVE",
"34 327 OFFCURVE",
"45 338 CURVE SMOOTH",
"105 399 OFFCURVE",
"173 453 OFFCURVE",
"248 492 CURVE SMOOTH",
"296 517 OFFCURVE",
"347 537 OFFCURVE",
"400 547 CURVE SMOOTH",
"458 557 OFFCURVE",
"517 557 OFFCURVE",
"575 544 CURVE SMOOTH",
"618 535 OFFCURVE",
"659 519 OFFCURVE",
"699 499 CURVE",
"691 494 LINE",
"590 427 LINE"
);
}
);
width = 960;
}
);
unicode = F160;
},
{
glyphname = uniF161;
lastChange = "2014-08-13 15:25:09 +0800";
layers = (
{
layerId = "8F1B665C-F854-4941-BE6D-BEE4265743FC";
name = Regular;
paths = (
{
closed = 1;
nodes = (
"715 318 LINE",
"715 318 LINE",
"715 318 LINE",
"668 398 LINE",
"721 444 OFFCURVE",
"735 522 OFFCURVE",
"699 584 CURVE SMOOTH",
"658 656 OFFCURVE",
"567 680 OFFCURVE",
"495 639 CURVE SMOOTH",
"424 598 OFFCURVE",
"400 507 OFFCURVE",
"440 435 CURVE SMOOTH",
"476 373 OFFCURVE",
"551 347 OFFCURVE",
"616 369 CURVE",
"648 314 LINE",
"622 299 LINE SMOOTH",
"608 291 OFFCURVE",
"603 272 OFFCURVE",
"611 258 CURVE SMOOTH",
"619 244 OFFCURVE",
"638 239 OFFCURVE",
"652 247 CURVE SMOOTH",
"678 262 LINE",
"708 211 LINE",
"630 166 LINE SMOOTH",
"616 158 OFFCURVE",
"611 139 OFFCURVE",
"619 125 CURVE SMOOTH",
"627 111 OFFCURVE",
"646 106 OFFCURVE",
"660 114 CURVE SMOOTH",
"737 159 LINE",
"752 133 LINE SMOOTH",
"760 119 OFFCURVE",
"779 114 OFFCURVE",
"793 122 CURVE SMOOTH",
"807 130 OFFCURVE",
"812 149 OFFCURVE",
"804 163 CURVE SMOOTH"
);
},
{
closed = 1;
nodes = (
"467 508 OFFCURVE",
"482 562 OFFCURVE",
"525 587 CURVE SMOOTH",
"568 612 OFFCURVE",
"622 597 OFFCURVE",
"647 554 CURVE SMOOTH",
"672 512 OFFCURVE",
"657 457 OFFCURVE",
"614 432 CURVE SMOOTH",
"572 407 OFFCURVE",
"517 422 OFFCURVE",
"492 465 CURVE SMOOTH"
);
},
{
closed = 1;
nodes = (
"365 425 OFFCURVE",
"349 420 OFFCURVE",
"331 420 CURVE SMOOTH",
"282 420 OFFCURVE",
"242 460 OFFCURVE",
"242 510 CURVE SMOOTH",
"242 559 OFFCURVE",
"282 599 OFFCURVE",
"331 599 CURVE SMOOTH",
"348 599 OFFCURVE",
"363 595 OFFCURVE",
"376 587 CURVE",
"385 605 OFFCURVE",
"396 622 OFFCURVE",
"409 637 CURVE",
"387 651 OFFCURVE",
"360 659 OFFCURVE",
"331 659 CURVE SMOOTH",
"249 659 OFFCURVE",
"182 592 OFFCURVE",
"182 510 CURVE SMOOTH",
"182 438 OFFCURVE",
"234 378 OFFCURVE",
"301 364 CURVE",
"301 301 LINE",
"271 301 LINE SMOOTH",
"255 301 OFFCURVE",
"242 288 OFFCURVE",
"242 271 CURVE SMOOTH",
"242 254 OFFCURVE",
"255 241 OFFCURVE",
"271 241 CURVE SMOOTH",
"301 241 LINE",
"301 182 LINE",
"212 182 LINE SMOOTH",
"195 182 OFFCURVE",
"182 169 OFFCURVE",
"182 152 CURVE SMOOTH",
"182 135 OFFCURVE",
"195 122 OFFCURVE",
"212 122 CURVE SMOOTH",
"301 122 LINE",
"301 90 LINE SMOOTH",
"301 74 OFFCURVE",
"314 61 OFFCURVE",
"331 61 CURVE SMOOTH",
"348 61 OFFCURVE",
"361 74 OFFCURVE",
"361 90 CURVE SMOOTH",
"361 364 LINE",
"380 368 OFFCURVE",
"398 375 OFFCURVE",
"413 385 CURVE",
"399 399 OFFCURVE",
"387 415 OFFCURVE",
"378 433 CURVE"
);
}
);
width = 960;
}
);
unicode = F161;
},
{
glyphname = uniF162;
lastChange = "2014-08-13 15:43:03 +0800";
layers = (
{
layerId = "8F1B665C-F854-4941-BE6D-BEE4265743FC";
name = Regular;
paths = (
{
closed = 1;
nodes = (
"840 693 OFFCURVE",
"813 720 OFFCURVE",
"780 720 CURVE SMOOTH",
"180 720 LINE SMOOTH",
"147 720 OFFCURVE",
"120 693 OFFCURVE",
"120 660 CURVE SMOOTH",
"120 60 LINE SMOOTH",
"120 27 OFFCURVE",
"147 0 OFFCURVE",
"180 0 CURVE SMOOTH",
"780 0 LINE SMOOTH",
"813 0 OFFCURVE",
"840 27 OFFCURVE",
"840 60 CURVE SMOOTH",
"840 660 LINE SMOOTH"
);
},
{
closed = 1;
nodes = (
"180 120 LINE",
"180 660 LINE",
"780 660 LINE",
"780 120 LINE"
);
},
{
closed = 1;
nodes = (
"660 573 OFFCURVE",
"633 600 OFFCURVE",
"600 600 CURVE SMOOTH",
"360 600 LINE SMOOTH",
"327 600 OFFCURVE",
"300 573 OFFCURVE",
"300 540 CURVE SMOOTH",
"300 240 LINE SMOOTH",
"300 207 OFFCURVE",
"327 180 OFFCURVE",
"360 180 CURVE SMOOTH",
"600 180 LINE SMOOTH",
"633 180 OFFCURVE",
"660 207 OFFCURVE",
"660 240 CURVE SMOOTH",
"660 540 LINE SMOOTH"
);
},
{
closed = 1;
nodes = (
"360 240 LINE",
"360 540 LINE",
"600 540 LINE",
"600 240 LINE"
);
},
{
closed = 1;
nodes = (
"360 300 LINE",
"360 360 LINE",
"600 360 LINE",
"600 300 LINE"
);
}
);
width = 960;
}
);
unicode = F162;
},
{
glyphname = uniF163;
lastChange = "2014-08-13 16:16:48 +0800";
layers = (
{
layerId = "8F1B665C-F854-4941-BE6D-BEE4265743FC";
name = Regular;
paths = (
{
closed = 1;
nodes = (
"236 542 LINE SMOOTH",
"203 542 OFFCURVE",
"176 515 OFFCURVE",
"176 482 CURVE SMOOTH",
"176 242 LINE SMOOTH",
"176 209 OFFCURVE",
"203 182 OFFCURVE",
"236 182 CURVE SMOOTH",
"296 182 LINE",
"296 62 LINE",
"416 182 LINE",
"596 182 LINE SMOOTH",
"629 182 OFFCURVE",
"656 209 OFFCURVE",
"656 242 CURVE SMOOTH",
"656 482 LINE SMOOTH",
"656 515 OFFCURVE",
"629 542 OFFCURVE",
"596 542 CURVE SMOOTH"
);
},
{
closed = 1;
nodes = (
"391 242 LINE",
"356 207 LINE",
"356 242 LINE",
"236 242 LINE",
"236 482 LINE",
"596 482 LINE",
"596 242 LINE"
);
},
{
closed = 1;
nodes = (
"416 722 LINE SMOOTH",
"383 722 OFFCURVE",
"356 695 OFFCURVE",
"356 662 CURVE SMOOTH",
"356 602 LINE",
"416 602 LINE",
"416 662 LINE",
"776 662 LINE",
"776 422 LINE",
"716 422 LINE",
"716 362 LINE",
"776 362 LINE SMOOTH",
"809 362 OFFCURVE",
"836 389 OFFCURVE",
"836 422 CURVE SMOOTH",
"836 662 LINE SMOOTH",
"836 695 OFFCURVE",
"809 722 OFFCURVE",
"776 722 CURVE SMOOTH"
);
}
);
width = 960;
}
);
unicode = F163;
},
{
glyphname = uniF164;
lastChange = "2014-08-13 17:50:18 +0800";
layers = (
{
layerId = "8F1B665C-F854-4941-BE6D-BEE4265743FC";
name = Regular;
paths = (
{
closed = 1;
nodes = (
"630 553 OFFCURVE",
"617 540 OFFCURVE",
"600 540 CURVE SMOOTH",
"300 540 LINE SMOOTH",
"283 540 OFFCURVE",
"270 553 OFFCURVE",
"270 570 CURVE",
"270 570 LINE",
"270 587 OFFCURVE",
"283 600 OFFCURVE",
"300 600 CURVE SMOOTH",
"600 600 LINE SMOOTH",
"617 600 OFFCURVE",
"630 587 OFFCURVE",
"630 570 CURVE SMOOTH"
);
},
{
closed = 1;
nodes = (
"607 420 OFFCURVE",
"540 353 OFFCURVE",
"540 270 CURVE SMOOTH",
"540 187 OFFCURVE",
"607 120 OFFCURVE",
"690 120 CURVE SMOOTH",
"773 120 OFFCURVE",
"840 187 OFFCURVE",
"840 270 CURVE SMOOTH",
"840 353 OFFCURVE",
"773 420 OFFCURVE",
"690 420 CURVE SMOOTH"
);
},
{
closed = 1;
nodes = (
"640 180 OFFCURVE",
"600 220 OFFCURVE",
"600 270 CURVE SMOOTH",
"600 320 OFFCURVE",
"640 360 OFFCURVE",
"690 360 CURVE SMOOTH",
"740 360 OFFCURVE",
"780 320 OFFCURVE",
"780 270 CURVE SMOOTH",
"780 220 OFFCURVE",
"740 180 OFFCURVE",
"690 180 CURVE SMOOTH"
);
},
{
closed = 1;
nodes = (
"180 240 LINE",
"180 660 LINE",
"720 660 LINE",
"720 478 LINE",
"741 475 OFFCURVE",
"761 469 OFFCURVE",
"780 460 CURVE",
"780 660 LINE SMOOTH",
"780 693 OFFCURVE",
"753 720 OFFCURVE",
"720 720 CURVE SMOOTH",
"180 720 LINE SMOOTH",
"147 720 OFFCURVE",
"120 693 OFFCURVE",
"120 660 CURVE SMOOTH",
"120 240 LINE SMOOTH",
"120 207 OFFCURVE",
"147 180 OFFCURVE",
"180 180 CURVE SMOOTH",
"500 180 LINE",
"491 199 OFFCURVE",
"485 219 OFFCURVE",
"482 240 CURVE"
);
},
{
closed = 1;
nodes = (
"607 420 OFFCURVE",
"540 353 OFFCURVE",
"540 270 CURVE SMOOTH",
"540 187 OFFCURVE",
"607 120 OFFCURVE",
"690 120 CURVE SMOOTH",
"773 120 OFFCURVE",
"840 187 OFFCURVE",
"840 270 CURVE SMOOTH",
"840 353 OFFCURVE",
"773 420 OFFCURVE",
"690 420 CURVE SMOOTH"
);
},
{
closed = 1;
nodes = (
"640 180 OFFCURVE",
"600 220 OFFCURVE",
"600 270 CURVE SMOOTH",
"600 320 OFFCURVE",
"640 360 OFFCURVE",
"690 360 CURVE SMOOTH",
"740 360 OFFCURVE",
"780 320 OFFCURVE",
"780 270 CURVE SMOOTH",
"780 220 OFFCURVE",
"740 180 OFFCURVE",
"690 180 CURVE SMOOTH"
);
},
{
closed = 1;
nodes = (
"300 360 LINE SMOOTH",
"283 360 OFFCURVE",
"270 347 OFFCURVE",
"270 330 CURVE SMOOTH",
"270 313 OFFCURVE",
"283 300 OFFCURVE",
"300 300 CURVE SMOOTH",
"482 300 LINE",
"485 321 OFFCURVE",
"491 341 OFFCURVE",
"500 360 CURVE"
);
},
{
closed = 1;
nodes = (
"618 476 OFFCURVE",
"609 480 OFFCURVE",
"600 480 CURVE SMOOTH",
"300 480 LINE SMOOTH",
"283 480 OFFCURVE",
"270 467 OFFCURVE",
"270 450 CURVE SMOOTH",
"270 433 OFFCURVE",
"283 420 OFFCURVE",
"300 420 CURVE SMOOTH",
"543 420 LINE",
"566 442 OFFCURVE",
"593 459 OFFCURVE",
"623 469 CURVE"
);
},
{
closed = 1;
nodes = (
"840 353 OFFCURVE",
"773 420 OFFCURVE",
"690 420 CURVE SMOOTH",
"607 420 OFFCURVE",
"540 353 OFFCURVE",
"540 270 CURVE SMOOTH",
"540 236 OFFCURVE",
"551 205 OFFCURVE",
"570 180 CURVE",
"570 -59 LINE",
"690 60 LINE",
"810 -60 LINE",
"809 -60 LINE",
"810 -60 LINE",
"810 180 LINE",
"829 205 OFFCURVE",
"840 236 OFFCURVE",
"840 270 CURVE SMOOTH"
);
},
{
closed = 1;
nodes = (
"740 360 OFFCURVE",
"780 320 OFFCURVE",
"780 270 CURVE SMOOTH",
"780 220 OFFCURVE",
"740 180 OFFCURVE",
"690 180 CURVE SMOOTH",
"640 180 OFFCURVE",
"600 220 OFFCURVE",
"600 270 CURVE SMOOTH",
"600 320 OFFCURVE",
"640 360 OFFCURVE",
"690 360 CURVE SMOOTH"
);
},
{
closed = 1;
nodes = (
"570 -60 LINE",
"570 -60 LINE"
);
}
);
width = 960;
}
);
unicode = F164;
},
{
glyphname = uniF165;
lastChange = "2014-08-13 18:26:05 +0800";
layers = (
{
layerId = "8F1B665C-F854-4941-BE6D-BEE4265743FC";
name = Regular;
paths = (
{
closed = 1;
nodes = (
"181 720 LINE SMOOTH",
"148 720 OFFCURVE",
"121 693 OFFCURVE",
"121 660 CURVE SMOOTH",
"121 480 LINE SMOOTH",
"121 447 OFFCURVE",
"148 420 OFFCURVE",
"181 420 CURVE SMOOTH",
"781 420 LINE SMOOTH",
"814 420 OFFCURVE",
"841 447 OFFCURVE",
"841 480 CURVE SMOOTH",
"841 660 LINE SMOOTH",
"841 693 OFFCURVE",
"814 720 OFFCURVE",
"781 720 CURVE SMOOTH"
);
},
{
closed = 1;
nodes = (
"181 480 LINE",
"181 660 LINE",
"781 660 LINE",
"781 480 LINE"
);
},
{
closed = 1;
nodes = (
"361 480 LINE",
"361 660 LINE",
"421 660 LINE",
"421 480 LINE"
);
},
{
closed = 1;
nodes = (
"541 480 LINE",
"541 660 LINE",
"601 660 LINE",
"601 480 LINE"
);
},
{
closed = 1;
nodes = (
"181 300 LINE SMOOTH",
"148 300 OFFCURVE",
"121 273 OFFCURVE",
"121 240 CURVE SMOOTH",
"121 60 LINE SMOOTH",
"121 27 OFFCURVE",
"148 0 OFFCURVE",
"181 0 CURVE SMOOTH",
"781 0 LINE SMOOTH",
"814 0 OFFCURVE",
"841 27 OFFCURVE",
"841 60 CURVE SMOOTH",
"841 240 LINE SMOOTH",
"841 273 OFFCURVE",
"814 300 OFFCURVE",
"781 300 CURVE SMOOTH"
);
},
{
closed = 1;
nodes = (
"181 60 LINE",
"181 240 LINE",
"781 240 LINE",
"781 60 LINE"
);
},
{
closed = 1;
nodes = (
"361 60 LINE",
"361 240 LINE",
"421 240 LINE",
"421 60 LINE"
);
},
{
closed = 1;
nodes = (
"541 60 LINE",
"541 240 LINE",
"601 240 LINE",
"601 60 LINE"
);
}
);
width = 960;
}
);
unicode = F165;
},
{
glyphname = uniF166;
lastChange = "2014-08-13 18:25:49 +0800";
layers = (
{
layerId = "8F1B665C-F854-4941-BE6D-BEE4265743FC";
name = Regular;
paths = (
{
closed = 1;
nodes = (
"151 690 LINE SMOOTH",
"134 690 OFFCURVE",
"121 677 OFFCURVE",
"121 660 CURVE SMOOTH",
"121 643 OFFCURVE",
"134 630 OFFCURVE",
"151 630 CURVE SMOOTH",
"301 630 LINE",
"301 690 LINE"
);
},
{
closed = 1;
nodes = (
"421 690 LINE",
"421 630 LINE",
"811 630 LINE SMOOTH",
"828 630 OFFCURVE",
"841 643 OFFCURVE",
"841 660 CURVE SMOOTH",
"841 677 OFFCURVE",
"828 690 OFFCURVE",
"811 690 CURVE SMOOTH"
);
},
{
closed = 1;
nodes = (
"301 780 LINE SMOOTH",
"268 780 OFFCURVE",
"241 753 OFFCURVE",
"241 720 CURVE SMOOTH",
"241 600 LINE SMOOTH",
"241 567 OFFCURVE",
"268 540 OFFCURVE",
"301 540 CURVE SMOOTH",
"421 540 LINE SMOOTH",
"454 540 OFFCURVE",
"481 567 OFFCURVE",
"481 600 CURVE SMOOTH",
"481 720 LINE SMOOTH",
"481 753 OFFCURVE",
"454 780 OFFCURVE",
"421 780 CURVE SMOOTH"
);
},
{
closed = 1;
nodes = (
"301 600 LINE",
"301 720 LINE",
"421 720 LINE",
"421 600 LINE"
);
},
{
closed = 1;
nodes = (
"811 390 LINE SMOOTH",
"828 390 OFFCURVE",
"841 377 OFFCURVE",
"841 360 CURVE SMOOTH",
"841 343 OFFCURVE",
"828 330 OFFCURVE",
"811 330 CURVE SMOOTH",
"721 330 LINE",
"721 390 LINE"
);
},
{
closed = 1;
nodes = (
"481 390 LINE",
"481 330 LINE",
"151 330 LINE SMOOTH",
"134 330 OFFCURVE",
"121 343 OFFCURVE",
"121 360 CURVE SMOOTH",
"121 377 OFFCURVE",
"134 390 OFFCURVE",
"151 390 CURVE SMOOTH"
);
},
{
closed = 1;
nodes = (
"721 453 OFFCURVE",
"694 480 OFFCURVE",
"661 480 CURVE SMOOTH",
"541 480 LINE SMOOTH",
"508 480 OFFCURVE",
"481 453 OFFCURVE",
"481 420 CURVE SMOOTH",
"481 300 LINE SMOOTH",
"481 267 OFFCURVE",
"508 240 OFFCURVE",
"541 240 CURVE SMOOTH",
"661 240 LINE SMOOTH",
"694 240 OFFCURVE",
"721 267 OFFCURVE",
"721 300 CURVE SMOOTH",
"721 420 LINE SMOOTH"
);
},
{
closed = 1;
nodes = (
"661 420 LINE",
"661 300 LINE",
"541 300 LINE",
"541 420 LINE"
);
},
{
closed = 1;
nodes = (
"151 90 LINE SMOOTH",
"134 90 OFFCURVE",
"121 77 OFFCURVE",
"121 60 CURVE SMOOTH",
"121 43 OFFCURVE",
"134 30 OFFCURVE",
"151 30 CURVE SMOOTH",
"301 30 LINE",
"301 90 LINE"
);
},
{
closed = 1;
nodes = (
"421 90 LINE",
"421 30 LINE",
"811 30 LINE SMOOTH",
"828 30 OFFCURVE",
"841 43 OFFCURVE",
"841 60 CURVE SMOOTH",
"841 77 OFFCURVE",
"828 90 OFFCURVE",
"811 90 CURVE SMOOTH"
);
},
{
closed = 1;
nodes = (
"301 180 LINE SMOOTH",
"268 180 OFFCURVE",
"241 153 OFFCURVE",
"241 120 CURVE SMOOTH",
"241 0 LINE SMOOTH",
"241 -33 OFFCURVE",
"268 -60 OFFCURVE",
"301 -60 CURVE SMOOTH",
"421 -60 LINE SMOOTH",
"454 -60 OFFCURVE",
"481 -33 OFFCURVE",
"481 0 CURVE SMOOTH",
"481 120 LINE SMOOTH",
"481 153 OFFCURVE",
"454 180 OFFCURVE",
"421 180 CURVE SMOOTH"
);
},
{
closed = 1;
nodes = (
"301 0 LINE",
"301 120 LINE",
"421 120 LINE",
"421 0 LINE"
);
}
);
width = 960;
}
);
unicode = F166;
},
{
glyphname = uniF167;
lastChange = "2014-08-13 18:34:35 +0800";
layers = (
{
layerId = "8F1B665C-F854-4941-BE6D-BEE4265743FC";
name = Regular;
paths = (
{
closed = 1;
nodes = (
"840 693 OFFCURVE",
"813 720 OFFCURVE",
"780 720 CURVE SMOOTH",
"180 720 LINE SMOOTH",
"147 720 OFFCURVE",
"120 693 OFFCURVE",
"120 660 CURVE SMOOTH",
"120 60 LINE SMOOTH",
"120 27 OFFCURVE",
"147 0 OFFCURVE",
"180 0 CURVE SMOOTH",
"780 0 LINE SMOOTH",
"813 0 OFFCURVE",
"840 27 OFFCURVE",
"840 60 CURVE SMOOTH",
"840 660 LINE SMOOTH"
);
},
{
closed = 1;
nodes = (
"180 120 LINE",
"180 660 LINE",
"780 660 LINE",
"780 120 LINE"
);
},
{
closed = 1;
nodes = (
"381 600 OFFCURVE",
"300 560 OFFCURVE",
"300 510 CURVE SMOOTH",
"300 460 OFFCURVE",
"381 420 OFFCURVE",
"480 420 CURVE SMOOTH",
"579 420 OFFCURVE",
"660 460 OFFCURVE",
"660 510 CURVE SMOOTH",
"660 560 OFFCURVE",
"579 600 OFFCURVE",
"480 600 CURVE SMOOTH"
);
},
{
closed = 1;
nodes = (
"544 485 OFFCURVE",
"512 480 OFFCURVE",
"480 480 CURVE SMOOTH",
"448 480 OFFCURVE",
"416 485 OFFCURVE",
"392 495 CURVE SMOOTH",
"378 500 OFFCURVE",
"369 506 OFFCURVE",
"364 510 CURVE",
"369 514 OFFCURVE",
"378 520 OFFCURVE",
"392 525 CURVE SMOOTH",
"416 535 OFFCURVE",
"448 540 OFFCURVE",
"480 540 CURVE SMOOTH",
"512 540 OFFCURVE",
"544 535 OFFCURVE",
"568 525 CURVE SMOOTH",
"582 520 OFFCURVE",
"591 514 OFFCURVE",
"596 510 CURVE",
"591 506 OFFCURVE",
"582 500 OFFCURVE",
"568 495 CURVE SMOOTH"
);
},
{
closed = 1;
nodes = (
"381 420 OFFCURVE",
"300 460 OFFCURVE",
"300 510 CURVE",
"300 270 LINE SMOOTH",
"300 220 OFFCURVE",
"381 180 OFFCURVE",
"480 180 CURVE SMOOTH",
"579 180 OFFCURVE",
"660 220 OFFCURVE",
"660 270 CURVE SMOOTH",
"660 510 LINE",
"660 460 OFFCURVE",
"579 420 OFFCURVE",
"480 420 CURVE SMOOTH"
);
},
{
closed = 1;
nodes = (
"597 270 OFFCURVE",
"587 262 OFFCURVE",
"568 255 CURVE SMOOTH",
"544 245 OFFCURVE",
"512 240 OFFCURVE",
"480 240 CURVE SMOOTH",
"448 240 OFFCURVE",
"416 245 OFFCURVE",
"392 255 CURVE SMOOTH",
"373 262 OFFCURVE",
"363 270 OFFCURVE",
"360 274 CURVE",
"360 439 LINE",
"396 426 OFFCURVE",
"437 420 OFFCURVE",
"480 420 CURVE SMOOTH",
"523 420 OFFCURVE",
"564 426 OFFCURVE",
"600 439 CURVE",
"600 274 LINE"
);
}
);
width = 960;
}
);
unicode = F167;
},
{
glyphname = uniF168;
lastChange = "2014-08-28 17:23:23 +0800";
layers = (
{
layerId = "8F1B665C-F854-4941-BE6D-BEE4265743FC";
name = Regular;
paths = (
{
closed = 1;
nodes = (
"299 720 OFFCURVE",
"126 550 OFFCURVE",
"120 339 CURVE",
"3 339 LINE",
"179 144 LINE",
"354 339 LINE",
"218 339 LINE",
"224 496 OFFCURVE",
"352 623 OFFCURVE",
"510 623 CURVE SMOOTH",
"670 623 OFFCURVE",
"800 491 OFFCURVE",
"800 330 CURVE SMOOTH",
"800 168 OFFCURVE",
"670 37 OFFCURVE",
"510 37 CURVE SMOOTH",
"445 37 OFFCURVE",
"386 58 OFFCURVE",
"338 93 CURVE",
"270 23 LINE",
"337 -29 OFFCURVE",
"420 -60 OFFCURVE",
"511 -60 CURVE SMOOTH",
"725 -60 OFFCURVE",
"900 114 OFFCURVE",
"900 330 CURVE SMOOTH",
"900 545 OFFCURVE",
"724 720 OFFCURVE",
"510 720 CURVE SMOOTH"
);
},
{
closed = 1;
nodes = (
"480 316 LINE",
"600 180 LINE",
"651 222 LINE",
"540 343 LINE",
"540 539 LINE",
"480 539 LINE"
);
}
);
width = 960;
}
);
unicode = F168;
},
{
glyphname = uniF170;
lastChange = "2014-09-26 11:01:58 +0800";
layers = (
{
layerId = "8F1B665C-F854-4941-BE6D-BEE4265743FC";
name = Regular;
paths = (
{
closed = 1;
nodes = (
"780 300 LINE",
"780 240 LINE",
"857 240 LINE SMOOTH",
"880 240 OFFCURVE",
"900 220 OFFCURVE",
"900 196 CURVE SMOOTH",
"900 -17 LINE SMOOTH",
"900 -40 OFFCURVE",
"881 -60 OFFCURVE",
"857 -60 CURVE SMOOTH",
"644 -60 LINE SMOOTH",
"620 -60 OFFCURVE",
"600 -41 OFFCURVE",
"600 -17 CURVE SMOOTH",
"600 60 LINE",
"540 60 LINE",
"540 -33 LINE SMOOTH",
"540 -81 OFFCURVE",
"579 -120 OFFCURVE",
"627 -120 CURVE SMOOTH",
"873 -120 LINE SMOOTH",
"921 -120 OFFCURVE",
"960 -81 OFFCURVE",
"960 -33 CURVE SMOOTH",
"960 213 LINE SMOOTH",
"960 261 OFFCURVE",
"921 300 OFFCURVE",
"873 300 CURVE SMOOTH"
);
},
{
closed = 1;
nodes = (
"627 840 LINE SMOOTH",
"579 840 OFFCURVE",
"540 801 OFFCURVE",
"540 753 CURVE SMOOTH",
"540 660 LINE",
"600 660 LINE",
"600 737 LINE SMOOTH",
"600 760 OFFCURVE",
"620 780 OFFCURVE",
"644 780 CURVE SMOOTH",
"857 780 LINE SMOOTH",
"880 780 OFFCURVE",
"900 761 OFFCURVE",
"900 737 CURVE SMOOTH",
"900 524 LINE SMOOTH",
"900 500 OFFCURVE",
"881 480 OFFCURVE",
"857 480 CURVE SMOOTH",
"780 480 LINE",
"780 420 LINE",
"873 420 LINE SMOOTH",
"921 420 OFFCURVE",
"960 461 OFFCURVE",
"960 509 CURVE SMOOTH",
"960 753 LINE SMOOTH",
"960 801 OFFCURVE",
"921 840 OFFCURVE",
"873 840 CURVE SMOOTH"
);
},
{
closed = 1;
nodes = (
"360 -40 OFFCURVE",
"340 -60 OFFCURVE",
"309 -60 CURVE SMOOTH",
"103 -60 LINE SMOOTH",
"80 -60 OFFCURVE",
"60 -41 OFFCURVE",
"60 -17 CURVE SMOOTH",
"60 196 LINE SMOOTH",
"60 220 OFFCURVE",
"79 240 OFFCURVE",
"103 240 CURVE SMOOTH",
"180 240 LINE",
"180 300 LINE",
"87 300 LINE SMOOTH",
"39 300 OFFCURVE",
"0 261 OFFCURVE",
"0 213 CURVE SMOOTH",
"0 -33 LINE SMOOTH",
"0 -81 OFFCURVE",
"39 -120 OFFCURVE",
"87 -120 CURVE SMOOTH",
"326 -120 LINE SMOOTH",
"381 -120 OFFCURVE",
"420 -81 OFFCURVE",
"420 -33 CURVE SMOOTH",
"420 60 LINE",
"360 60 LINE",
"360 -17 LINE SMOOTH"
);
},
{
closed = 1;
nodes = (
"180 420 LINE",
"180 480 LINE",
"103 480 LINE SMOOTH",
"80 480 OFFCURVE",
"60 500 OFFCURVE",
"60 524 CURVE SMOOTH",
"60 737 LINE SMOOTH",
"60 760 OFFCURVE",
"79 780 OFFCURVE",
"103 780 CURVE SMOOTH",
"316 780 LINE SMOOTH",
"340 780 OFFCURVE",
"360 761 OFFCURVE",
"360 737 CURVE SMOOTH",
"360 660 LINE",
"420 660 LINE",
"420 753 LINE SMOOTH",
"420 801 OFFCURVE",
"381 840 OFFCURVE",
"333 840 CURVE SMOOTH",
"87 840 LINE SMOOTH",
"39 840 OFFCURVE",
"0 801 OFFCURVE",
"0 753 CURVE SMOOTH",
"0 509 LINE SMOOTH",
"0 461 OFFCURVE",
"39 420 OFFCURVE",
"87 420 CURVE SMOOTH"
);
},
{
closed = 1;
nodes = (
"240 208 LINE SMOOTH",
"240 160 OFFCURVE",
"279 120 OFFCURVE",
"328 120 CURVE SMOOTH",
"632 120 LINE SMOOTH",
"680 120 OFFCURVE",
"720 159 OFFCURVE",
"720 208 CURVE SMOOTH",
"720 512 LINE SMOOTH",
"720 560 OFFCURVE",
"681 600 OFFCURVE",
"632 600 CURVE SMOOTH",
"328 600 LINE SMOOTH",
"280 600 OFFCURVE",
"240 561 OFFCURVE",
"240 512 CURVE"
);
},
{
closed = 1;
nodes = (
"436 404 LINE",
"436 448 LINE SMOOTH",
"436 471 OFFCURVE",
"456 491 OFFCURVE",
"480 491 CURVE SMOOTH",
"504 491 OFFCURVE",
"524 472 OFFCURVE",
"524 448 CURVE SMOOTH",
"524 404 LINE",
"568 404 LINE SMOOTH",
"591 404 OFFCURVE",
"611 384 OFFCURVE",
"611 360 CURVE SMOOTH",
"611 336 OFFCURVE",
"592 316 OFFCURVE",
"568 316 CURVE SMOOTH",
"524 316 LINE",
"524 272 LINE SMOOTH",
"524 249 OFFCURVE",
"504 229 OFFCURVE",
"480 229 CURVE SMOOTH",
"456 229 OFFCURVE",
"436 248 OFFCURVE",
"436 272 CURVE SMOOTH",
"436 316 LINE",
"392 316 LINE SMOOTH",
"369 316 OFFCURVE",
"349 336 OFFCURVE",
"349 360 CURVE SMOOTH",
"349 384 OFFCURVE",
"368 404 OFFCURVE",
"392 404 CURVE SMOOTH"
);
}
);
width = 960;
}
);
unicode = F170;
},
{
glyphname = uniF171;
lastChange = "2014-09-26 11:03:20 +0800";
layers = (
{
layerId = "8F1B665C-F854-4941-BE6D-BEE4265743FC";
name = Regular;
paths = (
{
closed = 1;
nodes = (
"900 -60 LINE",
"900 780 LINE",
"60 780 LINE",
"60 -60 LINE"
);
},
{
closed = 1;
nodes = (
"45 -120 LINE SMOOTH",
"20 -120 OFFCURVE",
"0 -100 OFFCURVE",
"0 -75 CURVE SMOOTH",
"0 795 LINE SMOOTH",
"0 820 OFFCURVE",
"20 840 OFFCURVE",
"45 840 CURVE SMOOTH",
"915 840 LINE SMOOTH",
"940 840 OFFCURVE",
"960 820 OFFCURVE",
"960 795 CURVE SMOOTH",
"960 -75 LINE SMOOTH",
"960 -100 OFFCURVE",
"940 -120 OFFCURVE",
"915 -120 CURVE SMOOTH"
);
},
{
closed = 1;
nodes = (
"141 714 OFFCURVE",
"152 720 OFFCURVE",
"164 720 CURVE SMOOTH",
"339 720 LINE SMOOTH",
"363 720 OFFCURVE",
"383 700 OFFCURVE",
"383 676 CURVE SMOOTH",
"383 652 OFFCURVE",
"363 632 OFFCURVE",
"339 632 CURVE SMOOTH",
"208 632 LINE",
"208 501 LINE SMOOTH",
"208 477 OFFCURVE",
"188 457 OFFCURVE",
"164 457 CURVE SMOOTH",
"140 457 OFFCURVE",
"120 477 OFFCURVE",
"120 501 CURVE SMOOTH",
"120 676 LINE SMOOTH",
"120 688 OFFCURVE",
"125 698 OFFCURVE",
"133 706 CURVE SMOOTH"
);
},
{
closed = 1;
nodes = (
"125 22 OFFCURVE",
"120 32 OFFCURVE",
"120 44 CURVE SMOOTH",
"120 219 LINE SMOOTH",
"120 243 OFFCURVE",
"140 263 OFFCURVE",
"164 263 CURVE SMOOTH",
"188 263 OFFCURVE",
"208 243 OFFCURVE",
"208 219 CURVE SMOOTH",
"208 88 LINE",
"339 88 LINE SMOOTH",
"363 88 OFFCURVE",
"383 68 OFFCURVE",
"383 44 CURVE SMOOTH",
"383 20 OFFCURVE",
"363 0 OFFCURVE",
"339 0 CURVE SMOOTH",
"164 0 LINE SMOOTH",
"152 0 OFFCURVE",
"141 6 OFFCURVE",
"133 14 CURVE SMOOTH"
);
},
{
closed = 1;
nodes = (
"820 714 OFFCURVE",
"809 720 OFFCURVE",
"797 720 CURVE SMOOTH",
"623 720 LINE SMOOTH",
"599 720 OFFCURVE",
"579 700 OFFCURVE",
"579 676 CURVE SMOOTH",
"579 652 OFFCURVE",
"599 632 OFFCURVE",
"623 632 CURVE SMOOTH",
"753 632 LINE",
"753 501 LINE SMOOTH",
"753 477 OFFCURVE",
"773 457 OFFCURVE",
"797 457 CURVE SMOOTH",
"821 457 OFFCURVE",
"841 477 OFFCURVE",
"841 501 CURVE SMOOTH",
"841 676 LINE SMOOTH",
"841 688 OFFCURVE",
"836 698 OFFCURVE",
"828 706 CURVE SMOOTH"
);
},
{
closed = 1;
nodes = (
"836 22 OFFCURVE",
"841 32 OFFCURVE",
"841 44 CURVE SMOOTH",
"841 219 LINE SMOOTH",
"841 243 OFFCURVE",
"821 263 OFFCURVE",
"797 263 CURVE SMOOTH",
"773 263 OFFCURVE",
"753 243 OFFCURVE",
"753 219 CURVE SMOOTH",
"753 88 LINE",
"623 88 LINE SMOOTH",
"599 88 OFFCURVE",
"579 68 OFFCURVE",
"579 44 CURVE SMOOTH",
"579 20 OFFCURVE",
"599 0 OFFCURVE",
"623 0 CURVE SMOOTH",
"797 0 LINE SMOOTH",
"809 0 OFFCURVE",
"820 6 OFFCURVE",
"828 14 CURVE SMOOTH"
);
}
);
width = 960;
}
);
unicode = F171;
},
{
glyphname = uniF172;
lastChange = "2014-09-26 11:04:33 +0800";
layers = (
{
layerId = "8F1B665C-F854-4941-BE6D-BEE4265743FC";
name = Regular;
paths = (
{
closed = 1;
nodes = (
"44 649 LINE",
"916 649 LINE",
"916 736 LINE",
"44 736 LINE"
);
},
{
closed = 1;
nodes = (
"0 600 LINE",
"960 600 LINE",
"960 780 LINE",
"0 780 LINE"
);
},
{
closed = 1;
nodes = (
"0 0 LINE",
"960 0 LINE",
"960 180 LINE",
"0 180 LINE"
);
},
{
closed = 1;
nodes = (
"225 346 LINE",
"916 346 LINE",
"916 434 LINE",
"225 434 LINE SMOOTH"
);
},
{
closed = 1;
nodes = (
"181 300 LINE",
"960 300 LINE",
"960 480 LINE",
"181 480 LINE"
);
}
